<?xml version="1.0" encoding="utf-8"?>
<!-- Generator: Adobe Illustrator 22.0.1, SVG Export Plug-In . SVG Version: 6.00 Build 0)  -->
<svg version="1.1" id="Calque_1" xmlns="http://www.w3.org/2000/svg" xmlns:xlink="http://www.w3.org/1999/xlink" x="0px" y="0px"
	 viewBox="0 0 468.4 1710" style="enable-background:new 0 0 468.4 1710;" xml:space="preserve">
<style type="text/css">
	.st0{fill:none;stroke:#191919;stroke-width:0.35;stroke-linecap:square;}
	.st1{fill:none;stroke:#000000;stroke-width:0.35;stroke-linecap:square;}
	.st2{fill:#CCCCCC;stroke:#191919;stroke-width:0.35;stroke-linecap:square;}
	.st3{fill:#CCCCCC;}
</style>
<g id="Part__Mirroring001" transform="translate(82.620000,601.620000) scale(1,-1)">
	<path id="Part__Mirroring001_w0000" class="st0" d="M104-636v21.3"/>
	<path id="Part__Mirroring001_w0001" class="st0" d="M93.8-636v21.3"/>
	<path id="Part__Mirroring001_w0002" class="st0" d="M83.5-636v21.3"/>
	<path id="Part__Mirroring001_w0003" class="st0" d="M73.3-636v21.3"/>
	<path id="Part__Mirroring001_w0004" class="st0" d="M63.1-636v21.3"/>
	<path id="Part__Mirroring001_w0005" class="st0" d="M52.9-636v21.3"/>
	<path id="Part__Mirroring001_w0006" class="st0" d="M42.7-636v21.3"/>
	<path id="Part__Mirroring001_w0007" class="st0" d="M32.5-636v21.3"/>
	<path id="Part__Mirroring001_w0008" class="st0" d="M22.3-636v21.3"/>
	<path id="Part__Mirroring001_w0009" class="st0" d="M12.1-636v21.3"/>
	<path id="Part__Mirroring001_w0010" class="st0" d="M104-437.6v21.3"/>
	<path id="Part__Mirroring001_w0011" class="st0" d="M93.8-437.6v21.3"/>
	<path id="Part__Mirroring001_w0012" class="st0" d="M83.5-437.6v21.3"/>
	<path id="Part__Mirroring001_w0013" class="st0" d="M73.3-437.6v21.3"/>
	<path id="Part__Mirroring001_w0014" class="st0" d="M63.1-437.6v21.3"/>
	<path id="Part__Mirroring001_w0015" class="st0" d="M52.9-437.6v21.3"/>
	<path id="Part__Mirroring001_w0016" class="st0" d="M42.7-437.6v21.3"/>
	<path id="Part__Mirroring001_w0017" class="st0" d="M32.5-437.6v21.3"/>
	<path id="Part__Mirroring001_w0018" class="st0" d="M22.3-437.6v21.3"/>
	<path id="Part__Mirroring001_w0019" class="st0" d="M12.1-437.6v21.3"/>
	<path id="Part__Mirroring001_w0020" class="st0" d="M104-239.2v21.3"/>
	<path id="Part__Mirroring001_w0021" class="st0" d="M93.8-239.2v21.3"/>
	<path id="Part__Mirroring001_w0022" class="st0" d="M83.5-239.2v21.3"/>
	<path id="Part__Mirroring001_w0023" class="st0" d="M73.3-239.2v21.3"/>
	<path id="Part__Mirroring001_w0024" class="st0" d="M63.1-239.2v21.3"/>
	<path id="Part__Mirroring001_w0025" class="st0" d="M52.9-239.2v21.3"/>
	<path id="Part__Mirroring001_w0026" class="st0" d="M42.7-239.2v21.3"/>
	<path id="Part__Mirroring001_w0027" class="st0" d="M32.5-239.2v21.3"/>
	<path id="Part__Mirroring001_w0028" class="st0" d="M22.3-239.2v21.3"/>
	<path id="Part__Mirroring001_w0029" class="st0" d="M12.1-239.2v21.3"/>
	<path id="Part__Mirroring001_w0030" class="st0" d="M104-40.8v21.3"/>
	<path id="Part__Mirroring001_w0031" class="st0" d="M93.8-40.8v21.3"/>
	<path id="Part__Mirroring001_w0032" class="st0" d="M83.5-40.8v21.3"/>
	<path id="Part__Mirroring001_w0033" class="st0" d="M73.3-40.8v21.3"/>
	<path id="Part__Mirroring001_w0034" class="st0" d="M63.1-40.8v21.3"/>
	<path id="Part__Mirroring001_w0035" class="st0" d="M52.9-40.8v21.3"/>
	<path id="Part__Mirroring001_w0036" class="st0" d="M42.7-40.8v21.3"/>
	<path id="Part__Mirroring001_w0037" class="st0" d="M32.5-40.8v21.3"/>
	<path id="Part__Mirroring001_w0038" class="st0" d="M22.3-40.8v21.3"/>
	<path id="Part__Mirroring001_w0039" class="st0" d="M12.1-40.8v21.3"/>
	<path id="Part__Mirroring001_w0040" class="st0" d="M104,157.7v21.3"/>
	<path id="Part__Mirroring001_w0041" class="st0" d="M93.8,157.7v21.3"/>
	<path id="Part__Mirroring001_w0042" class="st0" d="M83.5,157.7v21.3"/>
	<path id="Part__Mirroring001_w0043" class="st0" d="M73.3,157.7v21.3"/>
	<path id="Part__Mirroring001_w0044" class="st0" d="M63.1,157.7v21.3"/>
	<path id="Part__Mirroring001_w0045" class="st0" d="M52.9,157.7v21.3"/>
	<path id="Part__Mirroring001_w0046" class="st0" d="M42.7,157.7v21.3"/>
	<path id="Part__Mirroring001_w0047" class="st0" d="M32.5,157.7v21.3"/>
	<path id="Part__Mirroring001_w0048" class="st0" d="M22.3,157.7v21.3"/>
	<path id="Part__Mirroring001_w0049" class="st0" d="M12.1,157.7v21.3"/>
	<title>b&apos;Sketch005 (Mirror #2)&apos;</title>
</g>
<g id="Part__Mirroring" transform="translate(82.620000,601.620000) scale(1,-1)">
	<path id="Part__Mirroring_w0000" class="st0" d="M98.9-735.3v21.3"/>
	<path id="Part__Mirroring_w0001" class="st0" d="M88.6-735.3v21.3"/>
	<path id="Part__Mirroring_w0002" class="st0" d="M78.4-735.3v21.3"/>
	<path id="Part__Mirroring_w0003" class="st0" d="M68.2-735.3v21.3"/>
	<path id="Part__Mirroring_w0004" class="st0" d="M58-735.3v21.3"/>
	<path id="Part__Mirroring_w0005" class="st0" d="M47.8-735.3v21.3"/>
	<path id="Part__Mirroring_w0006" class="st0" d="M37.6-735.3v21.3"/>
	<path id="Part__Mirroring_w0007" class="st0" d="M27.4-735.3v21.3"/>
	<path id="Part__Mirroring_w0008" class="st0" d="M17.2-735.3v21.3"/>
	<path id="Part__Mirroring_w0009" class="st0" d="M7-735.3v21.3"/>
	<path id="Part__Mirroring_w0010" class="st0" d="M98.9-536.5v21.3"/>
	<path id="Part__Mirroring_w0011" class="st0" d="M88.6-536.5v21.3"/>
	<path id="Part__Mirroring_w0012" class="st0" d="M78.4-536.5v21.3"/>
	<path id="Part__Mirroring_w0013" class="st0" d="M68.2-536.5v21.3"/>
	<path id="Part__Mirroring_w0014" class="st0" d="M58-536.5v21.3"/>
	<path id="Part__Mirroring_w0015" class="st0" d="M47.8-536.5v21.3"/>
	<path id="Part__Mirroring_w0016" class="st0" d="M37.6-536.5v21.3"/>
	<path id="Part__Mirroring_w0017" class="st0" d="M27.4-536.5v21.3"/>
	<path id="Part__Mirroring_w0018" class="st0" d="M17.2-536.5v21.3"/>
	<path id="Part__Mirroring_w0019" class="st0" d="M7-536.5v21.3"/>
	<path id="Part__Mirroring_w0020" class="st0" d="M98.9-337.8v21.3"/>
	<path id="Part__Mirroring_w0021" class="st0" d="M88.6-337.8v21.3"/>
	<path id="Part__Mirroring_w0022" class="st0" d="M78.4-337.8v21.3"/>
	<path id="Part__Mirroring_w0023" class="st0" d="M68.2-337.8v21.3"/>
	<path id="Part__Mirroring_w0024" class="st0" d="M58-337.8v21.3"/>
	<path id="Part__Mirroring_w0025" class="st0" d="M47.8-337.8v21.3"/>
	<path id="Part__Mirroring_w0026" class="st0" d="M37.6-337.8v21.3"/>
	<path id="Part__Mirroring_w0027" class="st0" d="M27.4-337.8v21.3"/>
	<path id="Part__Mirroring_w0028" class="st0" d="M17.2-337.8v21.3"/>
	<path id="Part__Mirroring_w0029" class="st0" d="M7-337.8v21.3"/>
	<path id="Part__Mirroring_w0030" class="st0" d="M98.9-139v21.3"/>
	<path id="Part__Mirroring_w0031" class="st0" d="M88.6-139v21.3"/>
	<path id="Part__Mirroring_w0032" class="st0" d="M78.4-139v21.3"/>
	<path id="Part__Mirroring_w0033" class="st0" d="M68.2-139v21.3"/>
	<path id="Part__Mirroring_w0034" class="st0" d="M58-139v21.3"/>
	<path id="Part__Mirroring_w0035" class="st0" d="M47.8-139v21.3"/>
	<path id="Part__Mirroring_w0036" class="st0" d="M37.6-139v21.3"/>
	<path id="Part__Mirroring_w0037" class="st0" d="M27.4-139v21.3"/>
	<path id="Part__Mirroring_w0038" class="st0" d="M17.2-139v21.3"/>
	<path id="Part__Mirroring_w0039" class="st0" d="M7-139v21.3"/>
	<path id="Part__Mirroring_w0040" class="st0" d="M98.9,59.7V81"/>
	<path id="Part__Mirroring_w0041" class="st0" d="M88.6,59.7V81"/>
	<path id="Part__Mirroring_w0042" class="st0" d="M78.4,59.7V81"/>
	<path id="Part__Mirroring_w0043" class="st0" d="M68.2,59.7V81"/>
	<path id="Part__Mirroring_w0044" class="st0" d="M58,59.7V81"/>
	<path id="Part__Mirroring_w0045" class="st0" d="M47.8,59.7V81"/>
	<path id="Part__Mirroring_w0046" class="st0" d="M37.6,59.7V81"/>
	<path id="Part__Mirroring_w0047" class="st0" d="M27.4,59.7V81"/>
	<path id="Part__Mirroring_w0048" class="st0" d="M17.2,59.7V81"/>
	<path id="Part__Mirroring_w0049" class="st0" d="M7,59.7V81"/>
	<path id="Part__Mirroring_w0050" class="st0" d="M98.9,258.4v21.3"/>
	<path id="Part__Mirroring_w0051" class="st0" d="M88.6,258.4v21.3"/>
	<path id="Part__Mirroring_w0052" class="st0" d="M78.4,258.4v21.3"/>
	<path id="Part__Mirroring_w0053" class="st0" d="M68.2,258.4v21.3"/>
	<path id="Part__Mirroring_w0054" class="st0" d="M58,258.4v21.3"/>
	<path id="Part__Mirroring_w0055" class="st0" d="M47.8,258.4v21.3"/>
	<path id="Part__Mirroring_w0056" class="st0" d="M37.6,258.4v21.3"/>
	<path id="Part__Mirroring_w0057" class="st0" d="M27.4,258.4v21.3"/>
	<path id="Part__Mirroring_w0058" class="st0" d="M17.2,258.4v21.3"/>
	<path id="Part__Mirroring_w0059" class="st0" d="M7,258.4v21.3"/>
	<title>b&apos;Sketch003 (Mirror #1)&apos;</title>
</g>
<g id="Sketch008" transform="translate(82.620000,601.620000) scale(1,-1)">
	<path id="Sketch008_w0000" class="st1" d="M179.9-993.9v-21.3"/>
	<path id="Sketch008_w0001" class="st1" d="M123.2-993.9v-21.3"/>
	<title>b&apos;Sketch008&apos;</title>
</g>
<g id="Sketch007" transform="translate(82.620000,601.620000) scale(1,-1)">
	<path id="Sketch007_w0000" class="st1" d="M178.6,366.7v-21.3"/>
	<path id="Sketch007_w0001" class="st1" d="M124.6,366.7v-21.3"/>
	<title>b&apos;Sketch007&apos;</title>
</g>
<g id="Mirrored" transform="translate(82.620000,601.620000) scale(1,-1)">
	<path id="Mirrored_f0001" class="st2" d="M-78,597L-78,597h459.2l0,0H-78z"/>
	<path id="Mirrored_f0002" class="st2" d="M-78-1103.8L-78-1103.8V597l0,0V-1103.8z"/>
	<path id="Mirrored_f0003" class="st2" d="M381.2,597L381.2,597v-1700.8l0,0V597z"/>
	<path id="Mirrored_f0004" class="st2" d="M381.2-1103.8L381.2-1103.8H-78l0,0H381.2z"/>
	<path id="Mirrored_f0005" class="st2" d="M2-1064.4L2-1064.4c0.6,0.3,0.8,1.1,0.5,1.7c0,0,0,0.1-0.1,0.1h0c0.4-0.6,0.3-1.3-0.3-1.7
		C2.1-1064.3,2-1064.3,2-1064.4L2-1064.4z"/>
	<path id="Mirrored_f0006" class="st2" d="M2-1064.4c-2.2-1.2-3-4-1.7-6.2c1.2-2.2,4-3,6.2-1.7c2.2,1.2,3,4,1.7,6.2
		c-0.4,0.7-1,1.3-1.7,1.7l0,0c2.2-1.2,3-4,1.7-6.2c-1.2-2.2-4-3-6.2-1.7c-2.2,1.2-3,4-1.7,6.2C0.7-1065.4,1.3-1064.8,2-1064.4
		L2-1064.4z"/>
	<path id="Mirrored_f0007" class="st2" d="M6-1062.6L6-1062.6c-0.4-0.6-0.3-1.3,0.3-1.7c0,0,0.1-0.1,0.1-0.1l0,0
		c-0.6,0.3-0.8,1.1-0.5,1.7C6-1062.6,6-1062.6,6-1062.6L6-1062.6z"/>
	<path id="Mirrored_f0008" class="st2" d="M6-1062.6c0.7,1,0.5,2.4-0.5,3.2c-1,0.7-2.4,0.5-3.2-0.5c-0.6-0.8-0.6-1.9,0-2.7h0
		c-0.7,1-0.5,2.4,0.5,3.2c1,0.7,2.4,0.5,3.2-0.5C6.6-1060.7,6.6-1061.8,6-1062.6L6-1062.6z"/>
	<path id="Mirrored_f0009" class="st2" d="M12.2-1064.4L12.2-1064.4c0.6,0.3,0.8,1.1,0.5,1.7c0,0,0,0.1-0.1,0.1l0,0
		c0.4-0.6,0.3-1.3-0.3-1.7C12.3-1064.3,12.3-1064.3,12.2-1064.4L12.2-1064.4z"/>
	<path id="Mirrored_f0010" class="st2" d="M12.2-1064.4c-2.2-1.2-3-4-1.7-6.2c1.2-2.2,4-3,6.2-1.7c2.2,1.2,3,4,1.7,6.2
		c-0.4,0.7-1,1.3-1.7,1.7l0,0c2.2-1.2,3-4,1.7-6.2c-1.2-2.2-4-3-6.2-1.7c-2.2,1.2-3,4-1.7,6.2C10.9-1065.4,11.5-1064.8,12.2-1064.4
		L12.2-1064.4z"/>
	<path id="Mirrored_f0011" class="st2" d="M16.3-1062.6L16.3-1062.6c-0.4-0.6-0.3-1.3,0.3-1.7c0,0,0.1-0.1,0.1-0.1l0,0
		c-0.6,0.3-0.8,1.1-0.5,1.7C16.2-1062.6,16.3-1062.6,16.3-1062.6L16.3-1062.6z"/>
	<path id="Mirrored_f0012" class="st2" d="M16.3-1062.6c0.7,1,0.5,2.4-0.5,3.2s-2.4,0.5-3.2-0.5c-0.6-0.8-0.6-1.9,0-2.7l0,0
		c-0.7,1-0.5,2.4,0.5,3.2c1,0.7,2.4,0.5,3.2-0.5C16.9-1060.7,16.9-1061.8,16.3-1062.6L16.3-1062.6z"/>
	<path id="Mirrored_f0013" class="st2" d="M22.4-1064.4L22.4-1064.4c0.6,0.3,0.8,1.1,0.5,1.7c0,0,0,0.1-0.1,0.1h0
		c0.4-0.6,0.3-1.3-0.3-1.7C22.5-1064.3,22.5-1064.3,22.4-1064.4L22.4-1064.4z"/>
	<path id="Mirrored_f0014" class="st2" d="M22.4-1064.4c-2.2-1.2-3-4-1.7-6.2c1.2-2.2,4-3,6.2-1.7s3,4,1.7,6.2
		c-0.4,0.7-1,1.3-1.7,1.7h0c2.2-1.2,3-4,1.7-6.2c-1.2-2.2-4-3-6.2-1.7c-2.2,1.2-3,4-1.7,6.2C21.1-1065.4,21.7-1064.8,22.4-1064.4
		L22.4-1064.4z"/>
	<path id="Mirrored_f0015" class="st2" d="M26.5-1062.6L26.5-1062.6c-0.4-0.6-0.3-1.3,0.3-1.7c0,0,0.1-0.1,0.1-0.1h0
		c-0.6,0.3-0.8,1.1-0.5,1.7C26.5-1062.6,26.5-1062.6,26.5-1062.6L26.5-1062.6z"/>
	<path id="Mirrored_f0016" class="st2" d="M26.5-1062.6c0.7,1,0.5,2.4-0.5,3.2c-1,0.7-2.4,0.5-3.2-0.5c-0.6-0.8-0.6-1.9,0-2.7h0
		c-0.7,1-0.5,2.4,0.5,3.2c1,0.7,2.4,0.5,3.2-0.5C27.1-1060.7,27.1-1061.8,26.5-1062.6L26.5-1062.6z"/>
	<path id="Mirrored_f0017" class="st2" d="M32.7-1064.4L32.7-1064.4c0.6,0.3,0.8,1.1,0.5,1.7c0,0,0,0.1-0.1,0.1h0
		c0.4-0.6,0.3-1.3-0.3-1.7C32.8-1064.3,32.7-1064.3,32.7-1064.4z"/>
	<path id="Mirrored_f0018" class="st2" d="M32.7-1064.4c-2.2-1.2-3-4-1.7-6.2c1.2-2.2,4-3,6.2-1.7c2.2,1.2,3,4,1.7,6.2
		c-0.4,0.7-1,1.3-1.7,1.7h0c2.2-1.2,3-4,1.7-6.2s-4-3-6.2-1.7c-2.2,1.2-3,4-1.7,6.2C31.4-1065.4,32-1064.8,32.7-1064.4L32.7-1064.4z
		"/>
	<path id="Mirrored_f0019" class="st2" d="M36.7-1062.6L36.7-1062.6c-0.4-0.6-0.3-1.3,0.3-1.7c0,0,0.1-0.1,0.1-0.1h0
		c-0.6,0.3-0.8,1.1-0.5,1.7C36.7-1062.6,36.7-1062.6,36.7-1062.6L36.7-1062.6z"/>
	<path id="Mirrored_f0020" class="st2" d="M36.7-1062.6c0.7,1,0.5,2.4-0.5,3.2c-1,0.7-2.4,0.5-3.2-0.5c-0.6-0.8-0.6-1.9,0-2.7h0
		c-0.7,1-0.5,2.4,0.5,3.2c1,0.7,2.4,0.5,3.2-0.5C37.3-1060.7,37.3-1061.8,36.7-1062.6L36.7-1062.6z"/>
	<path id="Mirrored_f0021" class="st2" d="M42.9-1064.4L42.9-1064.4c0.6,0.3,0.8,1.1,0.5,1.7c0,0,0,0.1-0.1,0.1h0
		c0.4-0.6,0.3-1.3-0.3-1.7C43-1064.3,43-1064.3,42.9-1064.4L42.9-1064.4z"/>
	<path id="Mirrored_f0022" class="st2" d="M42.9-1064.4c-2.2-1.2-3-4-1.7-6.2c1.2-2.2,4-3,6.2-1.7c2.2,1.2,3,4,1.7,6.2
		c-0.4,0.7-1,1.3-1.7,1.7h0c2.2-1.2,3-4,1.7-6.2c-1.2-2.2-4-3-6.2-1.7c-2.2,1.2-3,4-1.7,6.2C41.6-1065.4,42.2-1064.8,42.9-1064.4
		L42.9-1064.4z"/>
	<path id="Mirrored_f0023" class="st2" d="M47-1062.6L47-1062.6c-0.4-0.6-0.3-1.3,0.3-1.7c0,0,0.1-0.1,0.1-0.1h0
		c-0.6,0.3-0.8,1.1-0.5,1.7C46.9-1062.6,46.9-1062.6,47-1062.6L47-1062.6z"/>
	<path id="Mirrored_f0024" class="st2" d="M47-1062.6c0.7,1,0.5,2.4-0.5,3.2c-1,0.7-2.4,0.5-3.2-0.5c-0.6-0.8-0.6-1.9,0-2.7h0
		c-0.7,1-0.5,2.4,0.5,3.2c1,0.7,2.4,0.5,3.2-0.5C47.6-1060.7,47.6-1061.8,47-1062.6L47-1062.6z"/>
	<path id="Mirrored_f0025" class="st2" d="M53.1-1064.4L53.1-1064.4c0.6,0.3,0.8,1.1,0.5,1.7c0,0,0,0.1-0.1,0.1l0,0
		c0.4-0.6,0.3-1.3-0.3-1.7C53.2-1064.3,53.2-1064.3,53.1-1064.4L53.1-1064.4z"/>
	<path id="Mirrored_f0026" class="st2" d="M53.1-1064.4c-2.2-1.2-3-4-1.7-6.2s4-3,6.2-1.7c2.2,1.2,3,4,1.7,6.2
		c-0.4,0.7-1,1.3-1.7,1.7l0,0c2.2-1.2,3-4,1.7-6.2c-1.2-2.2-4-3-6.2-1.7c-2.2,1.2-3,4-1.7,6.2C51.8-1065.4,52.4-1064.8,53.1-1064.4
		L53.1-1064.4z"/>
	<path id="Mirrored_f0027" class="st2" d="M57.2-1062.6L57.2-1062.6c-0.4-0.6-0.3-1.3,0.3-1.7c0,0,0.1-0.1,0.1-0.1l0,0
		c-0.6,0.3-0.8,1.1-0.5,1.7C57.2-1062.6,57.2-1062.6,57.2-1062.6L57.2-1062.6z"/>
	<path id="Mirrored_f0028" class="st2" d="M57.2-1062.6c0.7,1,0.5,2.4-0.5,3.2c-1,0.7-2.4,0.5-3.2-0.5c-0.6-0.8-0.6-1.9,0-2.7l0,0
		c-0.7,1-0.5,2.4,0.5,3.2c1,0.7,2.4,0.5,3.2-0.5C57.8-1060.7,57.8-1061.8,57.2-1062.6L57.2-1062.6z"/>
	<path id="Mirrored_f0029" class="st2" d="M63.4-1064.4L63.4-1064.4c0.6,0.3,0.8,1.1,0.5,1.7c0,0,0,0.1-0.1,0.1l0,0
		c0.4-0.6,0.3-1.3-0.3-1.7C63.5-1064.3,63.4-1064.4,63.4-1064.4L63.4-1064.4z"/>
	<path id="Mirrored_f0030" class="st2" d="M63.4-1064.4c-2.2-1.2-3-4-1.7-6.2c1.2-2.2,4-3,6.2-1.7c2.2,1.2,3,4,1.7,6.2
		c-0.4,0.7-1,1.3-1.7,1.7v0c2.2-1.2,3-4,1.7-6.2c-1.2-2.2-4-3-6.2-1.7c-2.2,1.2-3,4-1.7,6.2C62.1-1065.4,62.7-1064.8,63.4-1064.4
		L63.4-1064.4z"/>
	<path id="Mirrored_f0031" class="st2" d="M67.4-1062.6L67.4-1062.6c-0.4-0.6-0.3-1.3,0.3-1.7c0,0,0.1-0.1,0.1-0.1v0
		c-0.6,0.3-0.8,1.1-0.5,1.7C67.4-1062.6,67.4-1062.6,67.4-1062.6L67.4-1062.6z"/>
	<path id="Mirrored_f0032" class="st2" d="M67.4-1062.6c0.7,1,0.5,2.4-0.5,3.2c-1,0.7-2.4,0.5-3.2-0.5c-0.6-0.8-0.6-1.9,0-2.7l0,0
		c-0.7,1-0.5,2.4,0.5,3.2c1,0.7,2.4,0.5,3.2-0.5C68-1060.7,68-1061.8,67.4-1062.6L67.4-1062.6z"/>
	<path id="Mirrored_f0033" class="st2" d="M73.6-1064.4L73.6-1064.4c0.6,0.3,0.8,1.1,0.5,1.7c0,0,0,0.1-0.1,0.1l0,0
		c0.4-0.6,0.3-1.3-0.3-1.7C73.7-1064.3,73.7-1064.4,73.6-1064.4L73.6-1064.4z"/>
	<path id="Mirrored_f0034" class="st2" d="M73.6-1064.4c-2.2-1.2-3-4-1.7-6.2c1.2-2.2,4-3,6.2-1.7c2.2,1.2,3,4,1.7,6.2
		c-0.4,0.7-1,1.3-1.7,1.7l0,0c2.2-1.2,3-4,1.7-6.2c-1.2-2.2-4-3-6.2-1.7c-2.2,1.2-3,4-1.7,6.2C72.3-1065.4,72.9-1064.8,73.6-1064.4
		L73.6-1064.4z"/>
	<path id="Mirrored_f0035" class="st2" d="M77.7-1062.6L77.7-1062.6c-0.4-0.6-0.3-1.3,0.3-1.7c0,0,0.1-0.1,0.1-0.1l0,0
		c-0.6,0.3-0.8,1.1-0.5,1.7C77.6-1062.6,77.6-1062.6,77.7-1062.6L77.7-1062.6z"/>
	<path id="Mirrored_f0036" class="st2" d="M77.7-1062.6c0.7,1,0.5,2.4-0.5,3.2c-1,0.7-2.4,0.5-3.2-0.5c-0.6-0.8-0.6-1.9,0-2.7l0,0
		c-0.7,1-0.5,2.4,0.5,3.2c1,0.7,2.4,0.5,3.2-0.5C78.3-1060.7,78.3-1061.8,77.7-1062.6L77.7-1062.6z"/>
	<path id="Mirrored_f0037" class="st2" d="M83.8-1064.4L83.8-1064.4c0.6,0.3,0.8,1.1,0.5,1.7c0,0,0,0.1-0.1,0.1l0,0
		c0.4-0.6,0.3-1.3-0.3-1.7C83.9-1064.3,83.9-1064.4,83.8-1064.4L83.8-1064.4z"/>
	<path id="Mirrored_f0038" class="st2" d="M83.8-1064.4c-2.2-1.2-3-4-1.7-6.2c1.2-2.2,4-3,6.2-1.7c2.2,1.2,3,4,1.7,6.2
		c-0.4,0.7-1,1.3-1.7,1.7l0,0c2.2-1.2,3-4,1.7-6.2c-1.2-2.2-4-3-6.2-1.7c-2.2,1.2-3,4-1.7,6.2C82.5-1065.4,83.1-1064.8,83.8-1064.4
		L83.8-1064.4z"/>
	<path id="Mirrored_f0039" class="st2" d="M87.9-1062.6L87.9-1062.6c-0.4-0.6-0.3-1.3,0.3-1.7c0,0,0.1-0.1,0.1-0.1l0,0
		c-0.6,0.3-0.8,1.1-0.5,1.7C87.9-1062.7,87.9-1062.6,87.9-1062.6L87.9-1062.6z"/>
	<path id="Mirrored_f0040" class="st2" d="M87.9-1062.6c0.7,1,0.5,2.4-0.5,3.2c-1,0.7-2.4,0.5-3.2-0.5c-0.6-0.8-0.6-1.9,0-2.7l0,0
		c-0.7,1-0.5,2.4,0.5,3.2c1,0.7,2.4,0.5,3.2-0.5C88.5-1060.7,88.5-1061.8,87.9-1062.6L87.9-1062.6z"/>
	<path id="Mirrored_f0041" class="st2" d="M94.1-1064.4L94.1-1064.4c0.6,0.3,0.8,1.1,0.5,1.7c0,0,0,0.1-0.1,0.1h0
		c0.4-0.6,0.3-1.3-0.3-1.7C94.2-1064.3,94.1-1064.4,94.1-1064.4L94.1-1064.4z"/>
	<path id="Mirrored_f0042" class="st2" d="M94.1-1064.4c-2.2-1.2-3-4-1.7-6.2s4-3,6.2-1.7s3,4,1.7,6.2c-0.4,0.7-1,1.3-1.7,1.7h0
		c2.2-1.2,3-4,1.7-6.2s-4-3-6.2-1.7s-3,4-1.7,6.2C92.8-1065.4,93.4-1064.8,94.1-1064.4L94.1-1064.4z"/>
	<path id="Mirrored_f0043" class="st2" d="M98.1-1062.6L98.1-1062.6c-0.4-0.6-0.3-1.3,0.3-1.7c0,0,0.1-0.1,0.1-0.1h0
		c-0.6,0.3-0.8,1.1-0.5,1.7C98.1-1062.7,98.1-1062.6,98.1-1062.6L98.1-1062.6z"/>
	<path id="Mirrored_f0044" class="st2" d="M98.1-1062.6c0.7,1,0.5,2.4-0.5,3.2c-1,0.7-2.4,0.5-3.2-0.5c-0.6-0.8-0.6-1.9,0-2.7h0
		c-0.7,1-0.5,2.4,0.5,3.2c1,0.7,2.4,0.5,3.2-0.5C98.7-1060.7,98.7-1061.8,98.1-1062.6L98.1-1062.6z"/>
	<path id="Mirrored_f0045" class="st3" d="M109.1-1044.2v79.4l0,0V-1044.2L109.1-1044.2z"/>
	<path id="Mirrored_f0046" class="st3" d="M109.1-964.9c0,1.6,1.3,2.8,2.8,2.8l0,0C110.3-962,109.1-963.3,109.1-964.9L109.1-964.9z"
		/>
	<path id="Mirrored_f0047" class="st3" d="M109.1-1044.2c0-1.6,1.3-2.8,2.8-2.8l0,0C110.3-1047.1,109.1-1045.8,109.1-1044.2
		L109.1-1044.2z"/>
	<path id="Mirrored_f0048" class="st3" d="M111.9-962h79.4l0,0H111.9L111.9-962z"/>
	<path id="Mirrored_f0049" class="st3" d="M191.3-1047.1h-79.4l0,0H191.3L191.3-1047.1z"/>
	<path id="Mirrored_f0050" class="st3" d="M194.1-964.9c0,1.6-1.3,2.8-2.8,2.8l0,0C192.8-962,194.1-963.3,194.1-964.9L194.1-964.9z"
		/>
	<path id="Mirrored_f0051" class="st3" d="M191.3-1047.1c1.6,0,2.8,1.3,2.8,2.8l0,0C194.1-1045.8,192.8-1047.1,191.3-1047.1
		L191.3-1047.1z"/>
	<path id="Mirrored_f0052" class="st3" d="M194.1-964.9v-79.4l0,0V-964.9L194.1-964.9z"/>
	<path id="Mirrored_f0053" class="st2" d="M199.9-1062.6L199.9-1062.6c-0.7,1-0.5,2.4,0.5,3.2c1,0.7,2.4,0.5,3.2-0.5
		c0.6-0.8,0.6-1.9,0-2.7h0c0.7,1,0.5,2.4-0.5,3.2c-1,0.7-2.4,0.5-3.2-0.5C199.3-1060.7,199.3-1061.8,199.9-1062.6L199.9-1062.6z"/>
	<path id="Mirrored_f0054" class="st2" d="M204-1064.4c-0.6,0.3-0.8,1.1-0.5,1.7c0,0,0,0.1,0.1,0.1h0c-0.4-0.6-0.3-1.3,0.3-1.7
		C203.9-1064.3,203.9-1064.4,204-1064.4L204-1064.4z"/>
	<path id="Mirrored_f0055" class="st2" d="M199.9-1062.6c0.4-0.6,0.3-1.3-0.3-1.7c0,0-0.1-0.1-0.1-0.1h0c0.6,0.3,0.8,1.1,0.5,1.7
		C200-1062.7,199.9-1062.6,199.9-1062.6L199.9-1062.6z"/>
	<path id="Mirrored_f0056" class="st2" d="M204-1064.4L204-1064.4c2.2-1.2,3-4,1.7-6.2c-1.2-2.2-4-3-6.2-1.7c-2.2,1.2-3,4-1.7,6.2
		c0.4,0.7,1,1.3,1.7,1.7h0c-2.2-1.2-3-4-1.7-6.2c1.2-2.2,4-3,6.2-1.7c2.2,1.2,3,4,1.7,6.2C205.3-1065.4,204.7-1064.8,204-1064.4
		L204-1064.4z"/>
	<path id="Mirrored_f0057" class="st2" d="M210.1-1062.6L210.1-1062.6c-0.7,1-0.5,2.4,0.5,3.2c1,0.7,2.4,0.5,3.2-0.5
		c0.6-0.8,0.6-1.9,0-2.7l0,0c0.7,1,0.5,2.4-0.5,3.2c-1,0.7-2.4,0.5-3.2-0.5C209.6-1060.7,209.6-1061.8,210.1-1062.6L210.1-1062.6z"
		/>
	<path id="Mirrored_f0058" class="st2" d="M214.2-1064.4c-0.6,0.3-0.8,1.1-0.5,1.7c0,0,0,0.1,0.1,0.1l0,0c-0.4-0.6-0.3-1.3,0.3-1.7
		C214.1-1064.3,214.2-1064.4,214.2-1064.4L214.2-1064.4z"/>
	<path id="Mirrored_f0059" class="st2" d="M210.1-1062.6c0.4-0.6,0.3-1.3-0.3-1.7c0,0-0.1-0.1-0.1-0.1l0,0c0.6,0.3,0.8,1.1,0.5,1.7
		C210.2-1062.7,210.2-1062.6,210.1-1062.6L210.1-1062.6z"/>
	<path id="Mirrored_f0060" class="st2" d="M214.2-1064.4L214.2-1064.4c2.2-1.2,3-4,1.7-6.2s-4-3-6.2-1.7c-2.2,1.2-3,4-1.7,6.2
		c0.4,0.7,1,1.3,1.7,1.7l0,0c-2.2-1.2-3-4-1.7-6.2s4-3,6.2-1.7c2.2,1.2,3,4,1.7,6.2C215.5-1065.4,214.9-1064.8,214.2-1064.4
		L214.2-1064.4z"/>
	<path id="Mirrored_f0061" class="st2" d="M220.4-1062.6L220.4-1062.6c-0.7,1-0.5,2.4,0.5,3.2c1,0.7,2.4,0.5,3.2-0.5
		c0.6-0.8,0.6-1.9,0-2.7l0,0c0.7,1,0.5,2.4-0.5,3.2c-1,0.7-2.4,0.5-3.2-0.5C219.8-1060.7,219.8-1061.8,220.4-1062.6L220.4-1062.6z"
		/>
	<path id="Mirrored_f0062" class="st2" d="M224.4-1064.4c-0.6,0.3-0.8,1.1-0.5,1.7c0,0,0,0.1,0.1,0.1l0,0c-0.4-0.6-0.3-1.3,0.3-1.7
		C224.4-1064.3,224.4-1064.4,224.4-1064.4L224.4-1064.4z"/>
	<path id="Mirrored_f0063" class="st2" d="M220.4-1062.6c0.4-0.6,0.3-1.3-0.3-1.7c0,0-0.1-0.1-0.1-0.1l0,0c0.6,0.3,0.8,1.1,0.5,1.7
		C220.4-1062.6,220.4-1062.6,220.4-1062.6L220.4-1062.6z"/>
	<path id="Mirrored_f0064" class="st2" d="M224.4-1064.4L224.4-1064.4c2.2-1.2,3-4,1.7-6.2c-1.2-2.2-4-3-6.2-1.7
		c-2.2,1.2-3,4-1.7,6.2c0.4,0.7,1,1.3,1.7,1.7l0,0c-2.2-1.2-3-4-1.7-6.2c1.2-2.2,4-3,6.2-1.7c2.2,1.2,3,4,1.7,6.2
		C225.8-1065.4,225.2-1064.8,224.4-1064.4L224.4-1064.4z"/>
	<path id="Mirrored_f0065" class="st2" d="M230.6-1062.6L230.6-1062.6c-0.7,1-0.5,2.4,0.5,3.2c1,0.7,2.4,0.5,3.2-0.5
		c0.6-0.8,0.6-1.9,0-2.7l0,0c0.7,1,0.5,2.4-0.5,3.2c-1,0.7-2.4,0.5-3.2-0.5C230-1060.7,230-1061.8,230.6-1062.6L230.6-1062.6z"/>
	<path id="Mirrored_f0066" class="st2" d="M234.7-1064.4c-0.6,0.3-0.8,1.1-0.5,1.7c0,0,0,0.1,0.1,0.1l0,0c-0.4-0.6-0.3-1.3,0.3-1.7
		C234.6-1064.3,234.6-1064.4,234.7-1064.4L234.7-1064.4z"/>
	<path id="Mirrored_f0067" class="st2" d="M230.6-1062.6c0.4-0.6,0.3-1.3-0.3-1.7c0,0-0.1-0.1-0.1-0.1v0c0.6,0.3,0.8,1.1,0.5,1.7
		C230.7-1062.6,230.6-1062.6,230.6-1062.6L230.6-1062.6z"/>
	<path id="Mirrored_f0068" class="st2" d="M234.7-1064.4L234.7-1064.4c2.2-1.2,3-4,1.7-6.2c-1.2-2.2-4-3-6.2-1.7
		c-2.2,1.2-3,4-1.7,6.2c0.4,0.7,1,1.3,1.7,1.7v0c-2.2-1.2-3-4-1.7-6.2c1.2-2.2,4-3,6.2-1.7c2.2,1.2,3,4,1.7,6.2
		C236-1065.4,235.4-1064.8,234.7-1064.4L234.7-1064.4z"/>
	<path id="Mirrored_f0069" class="st2" d="M240.8-1062.6L240.8-1062.6c-0.7,1-0.5,2.4,0.5,3.2c1,0.7,2.4,0.5,3.2-0.5
		c0.6-0.8,0.6-1.9,0-2.7l0,0c0.7,1,0.5,2.4-0.5,3.2c-1,0.7-2.4,0.5-3.2-0.5C240.3-1060.7,240.3-1061.8,240.8-1062.6L240.8-1062.6z"
		/>
	<path id="Mirrored_f0070" class="st2" d="M244.9-1064.4c-0.6,0.3-0.8,1.1-0.5,1.7c0,0,0,0.1,0.1,0.1l0,0c-0.4-0.6-0.3-1.3,0.3-1.7
		C244.8-1064.3,244.9-1064.3,244.9-1064.4L244.9-1064.4z"/>
	<path id="Mirrored_f0071" class="st2" d="M240.8-1062.6c0.4-0.6,0.3-1.3-0.3-1.7c0,0-0.1-0.1-0.1-0.1l0,0c0.6,0.3,0.8,1.1,0.5,1.7
		C240.9-1062.6,240.9-1062.6,240.8-1062.6L240.8-1062.6z"/>
	<path id="Mirrored_f0072" class="st2" d="M244.9-1064.4L244.9-1064.4c2.2-1.2,3-4,1.7-6.2c-1.2-2.2-4-3-6.2-1.7s-3,4-1.7,6.2
		c0.4,0.7,1,1.3,1.7,1.7l0,0c-2.2-1.2-3-4-1.7-6.2c1.2-2.2,4-3,6.2-1.7s3,4,1.7,6.2C246.2-1065.4,245.6-1064.8,244.9-1064.4
		L244.9-1064.4z"/>
	<path id="Mirrored_f0073" class="st2" d="M251.1-1062.6L251.1-1062.6c-0.7,1-0.5,2.4,0.5,3.2c1,0.7,2.4,0.5,3.2-0.5
		c0.6-0.8,0.6-1.9,0-2.7h0c0.7,1,0.5,2.4-0.5,3.2c-1,0.7-2.4,0.5-3.2-0.5C250.5-1060.7,250.5-1061.8,251.1-1062.6L251.1-1062.6z"/>
	<path id="Mirrored_f0074" class="st2" d="M255.1-1064.4c-0.6,0.3-0.8,1.1-0.5,1.7c0,0,0,0.1,0.1,0.1h0c-0.4-0.6-0.3-1.3,0.3-1.7
		C255.1-1064.3,255.1-1064.3,255.1-1064.4L255.1-1064.4z"/>
	<path id="Mirrored_f0075" class="st2" d="M251.1-1062.6c0.4-0.6,0.3-1.3-0.3-1.7c0,0-0.1-0.1-0.1-0.1h0c0.6,0.3,0.8,1.1,0.5,1.7
		C251.1-1062.6,251.1-1062.6,251.1-1062.6L251.1-1062.6z"/>
	<path id="Mirrored_f0076" class="st2" d="M255.1-1064.4L255.1-1064.4c2.2-1.2,3-4,1.7-6.2c-1.2-2.2-4-3-6.2-1.7
		c-2.2,1.2-3,4-1.7,6.2c0.4,0.7,1,1.3,1.7,1.7h0c-2.2-1.2-3-4-1.7-6.2c1.2-2.2,4-3,6.2-1.7s3,4,1.7,6.2
		C256.5-1065.4,255.9-1064.8,255.1-1064.4L255.1-1064.4z"/>
	<path id="Mirrored_f0077" class="st2" d="M261.3-1062.6L261.3-1062.6c-0.7,1-0.5,2.4,0.5,3.2c1,0.7,2.4,0.5,3.2-0.5
		c0.6-0.8,0.6-1.9,0-2.7h0c0.7,1,0.5,2.4-0.5,3.2c-1,0.7-2.4,0.5-3.2-0.5C260.7-1060.7,260.7-1061.8,261.3-1062.6L261.3-1062.6z"/>
	<path id="Mirrored_f0078" class="st2" d="M265.4-1064.4c-0.6,0.3-0.8,1.1-0.5,1.7c0,0,0,0.1,0.1,0.1h0c-0.4-0.6-0.3-1.3,0.3-1.7
		C265.3-1064.3,265.3-1064.3,265.4-1064.4L265.4-1064.4z"/>
	<path id="Mirrored_f0079" class="st2" d="M261.3-1062.6c0.4-0.6,0.3-1.3-0.3-1.7c0,0-0.1-0.1-0.1-0.1h0c0.6,0.3,0.8,1.1,0.5,1.7
		C261.4-1062.6,261.3-1062.6,261.3-1062.6L261.3-1062.6z"/>
	<path id="Mirrored_f0080" class="st2" d="M265.4-1064.4L265.4-1064.4c2.2-1.2,3-4,1.7-6.2c-1.2-2.2-4-3-6.2-1.7
		c-2.2,1.2-3,4-1.7,6.2c0.4,0.7,1,1.3,1.7,1.7h0c-2.2-1.2-3-4-1.7-6.2s4-3,6.2-1.7c2.2,1.2,3,4,1.7,6.2
		C266.7-1065.4,266.1-1064.8,265.4-1064.4L265.4-1064.4z"/>
	<path id="Mirrored_f0081" class="st2" d="M271.5-1062.6L271.5-1062.6c-0.7,1-0.5,2.4,0.5,3.2c1,0.7,2.4,0.5,3.2-0.5
		c0.6-0.8,0.6-1.9,0-2.7h0c0.7,1,0.5,2.4-0.5,3.2s-2.4,0.5-3.2-0.5C271-1060.7,271-1061.8,271.5-1062.6z"/>
	<path id="Mirrored_f0082" class="st2" d="M275.6-1064.4c-0.6,0.3-0.8,1.1-0.5,1.7c0,0,0,0.1,0.1,0.1h0c-0.4-0.6-0.3-1.3,0.3-1.7
		C275.5-1064.3,275.6-1064.3,275.6-1064.4L275.6-1064.4z"/>
	<path id="Mirrored_f0083" class="st2" d="M271.5-1062.6c0.4-0.6,0.3-1.3-0.3-1.7c0,0-0.1-0.1-0.1-0.1h0c0.6,0.3,0.8,1.1,0.5,1.7
		C271.6-1062.6,271.6-1062.6,271.5-1062.6L271.5-1062.6z"/>
	<path id="Mirrored_f0084" class="st2" d="M275.6-1064.4L275.6-1064.4c2.2-1.2,3-4,1.7-6.2c-1.2-2.2-4-3-6.2-1.7s-3,4-1.7,6.2
		c0.4,0.7,1,1.3,1.7,1.7h0c-2.2-1.2-3-4-1.7-6.2c1.2-2.2,4-3,6.2-1.7c2.2,1.2,3,4,1.7,6.2C276.9-1065.4,276.3-1064.8,275.6-1064.4
		L275.6-1064.4z"/>
	<path id="Mirrored_f0085" class="st2" d="M281.8-1062.6L281.8-1062.6c-0.7,1-0.5,2.4,0.5,3.2s2.4,0.5,3.2-0.5
		c0.6-0.8,0.6-1.9,0-2.7l0,0c0.7,1,0.5,2.4-0.5,3.2c-1,0.7-2.4,0.5-3.2-0.5C281.2-1060.7,281.2-1061.8,281.8-1062.6L281.8-1062.6z"
		/>
	<path id="Mirrored_f0086" class="st2" d="M285.8-1064.4c-0.6,0.3-0.8,1.1-0.5,1.7c0,0,0,0.1,0.1,0.1l0,0c-0.4-0.6-0.3-1.3,0.3-1.7
		C285.8-1064.3,285.8-1064.3,285.8-1064.4L285.8-1064.4z"/>
	<path id="Mirrored_f0087" class="st2" d="M281.8-1062.6c0.4-0.6,0.3-1.3-0.3-1.7c0,0-0.1-0.1-0.1-0.1l0,0c0.6,0.3,0.8,1.1,0.5,1.7
		C281.8-1062.6,281.8-1062.6,281.8-1062.6L281.8-1062.6z"/>
	<path id="Mirrored_f0088" class="st2" d="M285.8-1064.4L285.8-1064.4c2.2-1.2,3-4,1.7-6.2c-1.2-2.2-4-3-6.2-1.7
		c-2.2,1.2-3,4-1.7,6.2c0.4,0.7,1,1.3,1.7,1.7l0,0c-2.2-1.2-3-4-1.7-6.2c1.2-2.2,4-3,6.2-1.7c2.2,1.2,3,4,1.7,6.2
		C287.2-1065.4,286.6-1064.8,285.8-1064.4L285.8-1064.4z"/>
	<path id="Mirrored_f0089" class="st2" d="M292-1062.6L292-1062.6c-0.7,1-0.5,2.4,0.5,3.2c1,0.7,2.4,0.5,3.2-0.5
		c0.6-0.8,0.6-1.9,0-2.7h0c0.7,1,0.5,2.4-0.5,3.2c-1,0.7-2.4,0.5-3.2-0.5C291.4-1060.7,291.4-1061.8,292-1062.6L292-1062.6z"/>
	<path id="Mirrored_f0090" class="st2" d="M296.1-1064.4c-0.6,0.3-0.8,1.1-0.5,1.7c0,0,0,0.1,0.1,0.1h0c-0.4-0.6-0.3-1.3,0.3-1.7
		C296-1064.3,296-1064.3,296.1-1064.4L296.1-1064.4z"/>
	<path id="Mirrored_f0091" class="st2" d="M292-1062.6c0.4-0.6,0.3-1.3-0.3-1.7c0,0-0.1-0.1-0.1-0.1l0,0c0.6,0.3,0.8,1.1,0.5,1.7
		C292.1-1062.6,292-1062.6,292-1062.6L292-1062.6z"/>
	<path id="Mirrored_f0092" class="st2" d="M296.1-1064.4L296.1-1064.4c2.2-1.2,3-4,1.7-6.2s-4-3-6.2-1.7c-2.2,1.2-3,4-1.7,6.2
		c0.4,0.7,1,1.3,1.7,1.7l0,0c-2.2-1.2-3-4-1.7-6.2c1.2-2.2,4-3,6.2-1.7c2.2,1.2,3,4,1.7,6.2C297.4-1065.4,296.8-1064.8,296.1-1064.4
		L296.1-1064.4z"/>
	<path id="Mirrored_f0095" class="st3" d="M109.1-964.9v-79.4c0-1.6,1.3-2.8,2.8-2.8h79.4c1.6,0,2.8,1.3,2.8,2.8v79.4
		c0,1.6-1.3,2.8-2.8,2.8h-79.4C110.3-962,109.1-963.3,109.1-964.9z M122.3-1037.1c-1.8,0-3.3,1.5-3.3,3.3v58.6
		c0,1.8,1.5,3.3,3.3,3.3h58.6c1.8,0,3.3-1.5,3.3-3.3v-58.6c0-1.8-1.5-3.3-3.3-3.3H122.3z"/>
	<path class="st3" d="M151.6,398.6c-23.5,0-42.5-19-42.5-42.5c0-23.5,19-42.5,42.5-42.5s42.5,19,42.5,42.5
		C194.1,379.6,175.1,398.6,151.6,398.6z M151.6,323.5c-18,0-32.5,14.6-32.5,32.5c0,18,14.6,32.5,32.5,32.5s32.5-14.6,32.5-32.5
		C184.1,338.1,169.6,323.5,151.6,323.5z"/>
	<title>b&apos;Mirrored&apos;</title>
</g>
<g id="Sketch004" transform="translate(82.620000,601.620000) scale(1,-1)">
	<path id="Sketch004_w0000" class="st1" d="M194.1-1047.1h102v283.5h-102V-1047.1"/>
	<title>b&apos;Sketch004&apos;</title>
</g>
<g id="Sketch005" transform="translate(82.620000,601.620000) scale(1,-1)">
	<path id="Sketch005_w0000" class="st1" d="M199.2-636v21.3"/>
	<path id="Sketch005_w0001" class="st1" d="M209.4-636v21.3"/>
	<path id="Sketch005_w0002" class="st1" d="M219.6-636v21.3"/>
	<path id="Sketch005_w0003" class="st1" d="M229.8-636v21.3"/>
	<path id="Sketch005_w0004" class="st1" d="M240-636v21.3"/>
	<path id="Sketch005_w0005" class="st1" d="M250.2-636v21.3"/>
	<path id="Sketch005_w0006" class="st1" d="M260.4-636v21.3"/>
	<path id="Sketch005_w0007" class="st1" d="M270.6-636v21.3"/>
	<path id="Sketch005_w0008" class="st1" d="M280.8-636v21.3"/>
	<path id="Sketch005_w0009" class="st1" d="M291-636v21.3"/>
	<path id="Sketch005_w0010" class="st1" d="M199.2-437.6v21.3"/>
	<path id="Sketch005_w0011" class="st1" d="M209.4-437.6v21.3"/>
	<path id="Sketch005_w0012" class="st1" d="M219.6-437.6v21.3"/>
	<path id="Sketch005_w0013" class="st1" d="M229.8-437.6v21.3"/>
	<path id="Sketch005_w0014" class="st1" d="M240-437.6v21.3"/>
	<path id="Sketch005_w0015" class="st1" d="M250.2-437.6v21.3"/>
	<path id="Sketch005_w0016" class="st1" d="M260.4-437.6v21.3"/>
	<path id="Sketch005_w0017" class="st1" d="M270.6-437.6v21.3"/>
	<path id="Sketch005_w0018" class="st1" d="M280.8-437.6v21.3"/>
	<path id="Sketch005_w0019" class="st1" d="M291-437.6v21.3"/>
	<path id="Sketch005_w0020" class="st1" d="M199.2-239.2v21.3"/>
	<path id="Sketch005_w0021" class="st1" d="M209.4-239.2v21.3"/>
	<path id="Sketch005_w0022" class="st1" d="M219.6-239.2v21.3"/>
	<path id="Sketch005_w0023" class="st1" d="M229.8-239.2v21.3"/>
	<path id="Sketch005_w0024" class="st1" d="M240-239.2v21.3"/>
	<path id="Sketch005_w0025" class="st1" d="M250.2-239.2v21.3"/>
	<path id="Sketch005_w0026" class="st1" d="M260.4-239.2v21.3"/>
	<path id="Sketch005_w0027" class="st1" d="M270.6-239.2v21.3"/>
	<path id="Sketch005_w0028" class="st1" d="M280.8-239.2v21.3"/>
	<path id="Sketch005_w0029" class="st1" d="M291-239.2v21.3"/>
	<path id="Sketch005_w0030" class="st1" d="M199.2-40.8v21.3"/>
	<path id="Sketch005_w0031" class="st1" d="M209.4-40.8v21.3"/>
	<path id="Sketch005_w0032" class="st1" d="M219.6-40.8v21.3"/>
	<path id="Sketch005_w0033" class="st1" d="M229.8-40.8v21.3"/>
	<path id="Sketch005_w0034" class="st1" d="M240-40.8v21.3"/>
	<path id="Sketch005_w0035" class="st1" d="M250.2-40.8v21.3"/>
	<path id="Sketch005_w0036" class="st1" d="M260.4-40.8v21.3"/>
	<path id="Sketch005_w0037" class="st1" d="M270.6-40.8v21.3"/>
	<path id="Sketch005_w0038" class="st1" d="M280.8-40.8v21.3"/>
	<path id="Sketch005_w0039" class="st1" d="M291-40.8v21.3"/>
	<path id="Sketch005_w0040" class="st1" d="M199.2,157.7v21.3"/>
	<path id="Sketch005_w0041" class="st1" d="M209.4,157.7v21.3"/>
	<path id="Sketch005_w0042" class="st1" d="M219.6,157.7v21.3"/>
	<path id="Sketch005_w0043" class="st1" d="M229.8,157.7v21.3"/>
	<path id="Sketch005_w0044" class="st1" d="M240,157.7v21.3"/>
	<path id="Sketch005_w0045" class="st1" d="M250.2,157.7v21.3"/>
	<path id="Sketch005_w0046" class="st1" d="M260.4,157.7v21.3"/>
	<path id="Sketch005_w0047" class="st1" d="M270.6,157.7v21.3"/>
	<path id="Sketch005_w0048" class="st1" d="M280.8,157.7v21.3"/>
	<path id="Sketch005_w0049" class="st1" d="M291,157.7v21.3"/>
	<title>b&apos;Sketch005&apos;</title>
</g>
<g id="Sketch003" transform="translate(82.620000,601.620000) scale(1,-1)">
	<path id="Sketch003_w0000" class="st1" d="M204.3-735.3v21.3"/>
	<path id="Sketch003_w0001" class="st1" d="M214.5-735.3v21.3"/>
	<path id="Sketch003_w0002" class="st1" d="M224.7-735.3v21.3"/>
	<path id="Sketch003_w0003" class="st1" d="M234.9-735.3v21.3"/>
	<path id="Sketch003_w0004" class="st1" d="M245.1-735.3v21.3"/>
	<path id="Sketch003_w0005" class="st1" d="M255.3-735.3v21.3"/>
	<path id="Sketch003_w0006" class="st1" d="M265.5-735.3v21.3"/>
	<path id="Sketch003_w0007" class="st1" d="M275.7-735.3v21.3"/>
	<path id="Sketch003_w0008" class="st1" d="M285.9-735.3v21.3"/>
	<path id="Sketch003_w0009" class="st1" d="M296.1-735.3v21.3"/>
	<path id="Sketch003_w0010" class="st1" d="M204.3-536.5v21.3"/>
	<path id="Sketch003_w0011" class="st1" d="M214.5-536.5v21.3"/>
	<path id="Sketch003_w0012" class="st1" d="M224.7-536.5v21.3"/>
	<path id="Sketch003_w0013" class="st1" d="M234.9-536.5v21.3"/>
	<path id="Sketch003_w0014" class="st1" d="M245.1-536.5v21.3"/>
	<path id="Sketch003_w0015" class="st1" d="M255.3-536.5v21.3"/>
	<path id="Sketch003_w0016" class="st1" d="M265.5-536.5v21.3"/>
	<path id="Sketch003_w0017" class="st1" d="M275.7-536.5v21.3"/>
	<path id="Sketch003_w0018" class="st1" d="M285.9-536.5v21.3"/>
	<path id="Sketch003_w0019" class="st1" d="M296.1-536.5v21.3"/>
	<path id="Sketch003_w0020" class="st1" d="M204.3-337.8v21.3"/>
	<path id="Sketch003_w0021" class="st1" d="M214.5-337.8v21.3"/>
	<path id="Sketch003_w0022" class="st1" d="M224.7-337.8v21.3"/>
	<path id="Sketch003_w0023" class="st1" d="M234.9-337.8v21.3"/>
	<path id="Sketch003_w0024" class="st1" d="M245.1-337.8v21.3"/>
	<path id="Sketch003_w0025" class="st1" d="M255.3-337.8v21.3"/>
	<path id="Sketch003_w0026" class="st1" d="M265.5-337.8v21.3"/>
	<path id="Sketch003_w0027" class="st1" d="M275.7-337.8v21.3"/>
	<path id="Sketch003_w0028" class="st1" d="M285.9-337.8v21.3"/>
	<path id="Sketch003_w0029" class="st1" d="M296.1-337.8v21.3"/>
	<path id="Sketch003_w0030" class="st1" d="M204.3-139v21.3"/>
	<path id="Sketch003_w0031" class="st1" d="M214.5-139v21.3"/>
	<path id="Sketch003_w0032" class="st1" d="M224.7-139v21.3"/>
	<path id="Sketch003_w0033" class="st1" d="M234.9-139v21.3"/>
	<path id="Sketch003_w0034" class="st1" d="M245.1-139v21.3"/>
	<path id="Sketch003_w0035" class="st1" d="M255.3-139v21.3"/>
	<path id="Sketch003_w0036" class="st1" d="M265.5-139v21.3"/>
	<path id="Sketch003_w0037" class="st1" d="M275.7-139v21.3"/>
	<path id="Sketch003_w0038" class="st1" d="M285.9-139v21.3"/>
	<path id="Sketch003_w0039" class="st1" d="M296.1-139v21.3"/>
	<path id="Sketch003_w0040" class="st1" d="M204.3,59.7V81"/>
	<path id="Sketch003_w0041" class="st1" d="M214.5,59.7V81"/>
	<path id="Sketch003_w0042" class="st1" d="M224.7,59.7V81"/>
	<path id="Sketch003_w0043" class="st1" d="M234.9,59.7V81"/>
	<path id="Sketch003_w0044" class="st1" d="M245.1,59.7V81"/>
	<path id="Sketch003_w0045" class="st1" d="M255.3,59.7V81"/>
	<path id="Sketch003_w0046" class="st1" d="M265.5,59.7V81"/>
	<path id="Sketch003_w0047" class="st1" d="M275.7,59.7V81"/>
	<path id="Sketch003_w0048" class="st1" d="M285.9,59.7V81"/>
	<path id="Sketch003_w0049" class="st1" d="M296.1,59.7V81"/>
	<path id="Sketch003_w0050" class="st1" d="M204.3,258.4v21.3"/>
	<path id="Sketch003_w0051" class="st1" d="M214.5,258.4v21.3"/>
	<path id="Sketch003_w0052" class="st1" d="M224.7,258.4v21.3"/>
	<path id="Sketch003_w0053" class="st1" d="M234.9,258.4v21.3"/>
	<path id="Sketch003_w0054" class="st1" d="M245.1,258.4v21.3"/>
	<path id="Sketch003_w0055" class="st1" d="M255.3,258.4v21.3"/>
	<path id="Sketch003_w0056" class="st1" d="M265.5,258.4v21.3"/>
	<path id="Sketch003_w0057" class="st1" d="M275.7,258.4v21.3"/>
	<path id="Sketch003_w0058" class="st1" d="M285.9,258.4v21.3"/>
	<path id="Sketch003_w0059" class="st1" d="M296.1,258.4v21.3"/>
	<title>b&apos;Sketch003&apos;</title>
</g>
<g id="Sketch002" transform="translate(82.620000,601.620000) scale(1,-1)">
	<path id="Sketch002_w0000" class="st1" d="M296.1,383.8c0,7.2-1.9,14.3-5.5,20.5"/>
	<path id="Sketch002_w0001" class="st1" d="M291,382.4c0,7.2-1.9,14.3-5.5,20.5"/>
	<path id="Sketch002_w0002" class="st1" d="M285.9,381.1c0,7.2-1.9,14.3-5.5,20.5"/>
	<path id="Sketch002_w0003" class="st1" d="M280.8,379.7c0,7.2-1.9,14.3-5.5,20.5"/>
	<path id="Sketch002_w0004" class="st1" d="M275.7,378.3c0,7.2-1.9,14.3-5.5,20.5"/>
	<path id="Sketch002_w0005" class="st1" d="M270.6,377c0,7.2-1.9,14.3-5.5,20.5"/>
	<path id="Sketch002_w0006" class="st1" d="M265.5,375.6c0,7.2-1.9,14.3-5.5,20.5"/>
	<path id="Sketch002_w0007" class="st1" d="M260.4,374.2c0,7.2-1.9,14.3-5.5,20.5"/>
	<path id="Sketch002_w0008" class="st1" d="M255.3,372.9c0,7.2-1.9,14.3-5.5,20.5"/>
	<path id="Sketch002_w0009" class="st1" d="M250.2,371.5c0,7.2-1.9,14.3-5.5,20.5"/>
	<path id="Sketch002_w0010" class="st1" d="M245.1,370.1c0,7.2-1.9,14.3-5.5,20.5"/>
	<path id="Sketch002_w0011" class="st1" d="M240,368.8c0,7.2-1.9,14.3-5.5,20.5"/>
	<path id="Sketch002_w0012" class="st1" d="M234.9,367.4c0,7.2-1.9,14.3-5.5,20.5"/>
	<path id="Sketch002_w0013" class="st1" d="M229.8,366c0,7.2-1.9,14.3-5.5,20.5"/>
	<path id="Sketch002_w0014" class="st1" d="M224.7,364.7c0,7.2-1.9,14.3-5.5,20.5"/>
	<path id="Sketch002_w0015" class="st1" d="M219.6,363.3c0,7.2-1.9,14.3-5.5,20.5"/>
	<path id="Sketch002_w0016" class="st1" d="M214.5,361.9c0,7.2-1.9,14.3-5.5,20.5"/>
	<path id="Sketch002_w0017" class="st1" d="M209.4,360.6c0,7.2-1.9,14.3-5.5,20.5"/>
	<path id="Sketch002_w0018" class="st1" d="M204.3,359.2c0,7.2-1.9,14.3-5.5,20.5"/>
	<path id="Sketch002_w0019" class="st1" d="M199.2,357.8c0,7.2-1.9,14.3-5.5,20.5"/>
	<path id="Sketch002_w0020" class="st1" d="M191.9,381.4c-3.6,6.2-8.8,11.4-15,15"/>
	<path id="Sketch002_w0021" class="st1" d="M195.7,385.2c-3.6,6.2-8.8,11.4-15,15"/>
	<path id="Sketch002_w0022" class="st1" d="M199.4,388.9c-3.6,6.2-8.8,11.4-15,15"/>
	<path id="Sketch002_w0023" class="st1" d="M203.1,392.6c-3.6,6.2-8.8,11.4-15,15"/>
	<path id="Sketch002_w0024" class="st1" d="M206.9,396.4c-3.6,6.2-8.8,11.4-15,15"/>
	<path id="Sketch002_w0025" class="st1" d="M210.6,400.1c-3.6,6.2-8.8,11.4-15,15"/>
	<path id="Sketch002_w0026" class="st1" d="M214.4,403.8c-3.6,6.2-8.8,11.4-15,15"/>
	<path id="Sketch002_w0027" class="st1" d="M218.1,407.6c-3.6,6.2-8.8,11.4-15,15"/>
	<path id="Sketch002_w0028" class="st1" d="M221.8,411.3c-3.6,6.2-8.8,11.4-15,15"/>
	<path id="Sketch002_w0029" class="st1" d="M225.6,415c-3.6,6.2-8.8,11.4-15,15"/>
	<path id="Sketch002_w0030" class="st1" d="M229.3,418.8c-3.6,6.2-8.8,11.4-15,15"/>
	<path id="Sketch002_w0031" class="st1" d="M233,422.5c-3.6,6.2-8.8,11.4-15,15"/>
	<path id="Sketch002_w0032" class="st1" d="M236.8,426.2c-3.6,6.2-8.8,11.4-15,15"/>
	<path id="Sketch002_w0033" class="st1" d="M240.5,430c-3.6,6.2-8.8,11.4-15,15"/>
	<path id="Sketch002_w0034" class="st1" d="M244.2,433.7c-3.6,6.2-8.8,11.4-15,15"/>
	<path id="Sketch002_w0035" class="st1" d="M248,437.4c-3.6,6.2-8.8,11.4-15,15"/>
	<path id="Sketch002_w0036" class="st1" d="M251.7,441.2c-3.6,6.2-8.8,11.4-15,15"/>
	<path id="Sketch002_w0037" class="st1" d="M255.4,444.9c-3.6,6.2-8.8,11.4-15,15"/>
	<path id="Sketch002_w0038" class="st1" d="M259.2,448.6c-3.6,6.2-8.8,11.4-15,15"/>
	<path id="Sketch002_w0039" class="st1" d="M262.9,452.4c-3.6,6.2-8.8,11.4-15,15"/>
	<path id="Sketch002_w0040" class="st1" d="M149.8,403.7c-7.2,0-14.3-1.9-20.5-5.5"/>
	<path id="Sketch002_w0041" class="st1" d="M148.5,408.8c-7.2,0-14.3-1.9-20.5-5.5"/>
	<path id="Sketch002_w0042" class="st1" d="M147.1,413.9c-7.2,0-14.3-1.9-20.5-5.5"/>
	<path id="Sketch002_w0043" class="st1" d="M145.7,419c-7.2,0-14.3-1.9-20.5-5.5"/>
	<path id="Sketch002_w0044" class="st1" d="M144.4,424.1c-7.2,0-14.3-1.9-20.5-5.5"/>
	<path id="Sketch002_w0045" class="st1" d="M143,429.2c-7.2,0-14.3-1.9-20.5-5.5"/>
	<path id="Sketch002_w0046" class="st1" d="M141.6,434.3c-7.2,0-14.3-1.9-20.5-5.5"/>
	<path id="Sketch002_w0047" class="st1" d="M140.3,439.4c-7.2,0-14.3-1.9-20.5-5.5"/>
	<path id="Sketch002_w0048" class="st1" d="M138.9,444.5c-7.2,0-14.3-1.9-20.5-5.5"/>
	<path id="Sketch002_w0049" class="st1" d="M137.5,449.6c-7.2,0-14.3-1.9-20.5-5.5"/>
	<path id="Sketch002_w0050" class="st1" d="M136.2,454.7c-7.2,0-14.3-1.9-20.5-5.5"/>
	<path id="Sketch002_w0051" class="st1" d="M134.8,459.8c-7.2,0-14.3-1.9-20.5-5.5"/>
	<path id="Sketch002_w0052" class="st1" d="M133.4,464.9c-7.2,0-14.3-1.9-20.5-5.5"/>
	<path id="Sketch002_w0053" class="st1" d="M132.1,470c-7.2,0-14.3-1.9-20.5-5.5"/>
	<path id="Sketch002_w0054" class="st1" d="M130.7,475.1c-7.2,0-14.3-1.9-20.5-5.5"/>
	<path id="Sketch002_w0055" class="st1" d="M129.3,480.2c-7.2,0-14.3-1.9-20.5-5.5"/>
	<path id="Sketch002_w0056" class="st1" d="M127.9,485.3c-7.2,0-14.3-1.9-20.5-5.5"/>
	<path id="Sketch002_w0057" class="st1" d="M123.8,500.6c-7.2,0-14.3-1.9-20.5-5.5"/>
	<path id="Sketch002_w0058" class="st1" d="M125.2,495.5c-7.2,0-14.3-1.9-20.5-5.5"/>
	<path id="Sketch002_w0059" class="st1" d="M126.6,490.4c-7.2,0-14.3-1.9-20.5-5.5"/>
	<path id="Sketch002_w0060" class="st1" d="M55.3,467.4c-6.2-3.6-11.4-8.8-15-15"/>
	<path id="Sketch002_w0061" class="st1" d="M59,463.7c-6.2-3.6-11.4-8.8-15-15"/>
	<path id="Sketch002_w0062" class="st1" d="M62.7,459.9c-6.2-3.6-11.4-8.8-15-15"/>
	<path id="Sketch002_w0063" class="st1" d="M66.5,456.2c-6.2-3.6-11.4-8.8-15-15"/>
	<path id="Sketch002_w0064" class="st1" d="M70.2,452.5c-6.2-3.6-11.4-8.8-15-15"/>
	<path id="Sketch002_w0065" class="st1" d="M74,448.7c-6.2-3.6-11.4-8.8-15-15"/>
	<path id="Sketch002_w0066" class="st1" d="M77.7,445c-6.2-3.6-11.4-8.8-15-15"/>
	<path id="Sketch002_w0067" class="st1" d="M81.4,441.3c-6.2-3.6-11.4-8.8-15-15"/>
	<path id="Sketch002_w0068" class="st1" d="M85.2,437.5c-6.2-3.6-11.4-8.8-15-15"/>
	<path id="Sketch002_w0069" class="st1" d="M88.9,433.8c-6.2-3.6-11.4-8.8-15-15"/>
	<path id="Sketch002_w0070" class="st1" d="M92.6,430.1c-6.2-3.6-11.4-8.8-15-15"/>
	<path id="Sketch002_w0071" class="st1" d="M96.4,426.3c-6.2-3.6-11.4-8.8-15-15"/>
	<path id="Sketch002_w0072" class="st1" d="M100.1,422.6c-6.2-3.6-11.4-8.8-15-15"/>
	<path id="Sketch002_w0073" class="st1" d="M103.8,418.9c-6.2-3.6-11.4-8.8-15-15"/>
	<path id="Sketch002_w0074" class="st1" d="M107.6,415.1c-6.2-3.6-11.4-8.8-15-15"/>
	<path id="Sketch002_w0075" class="st1" d="M111.3,411.4c-6.2-3.6-11.4-8.8-15-15"/>
	<path id="Sketch002_w0076" class="st1" d="M115,407.7c-6.2-3.6-11.4-8.8-15-15"/>
	<path id="Sketch002_w0077" class="st1" d="M118.8,403.9c-6.2-3.6-11.4-8.8-15-15"/>
	<path id="Sketch002_w0078" class="st1" d="M122.5,400.2c-6.2-3.6-11.4-8.8-15-15"/>
	<path id="Sketch002_w0079" class="st1" d="M126.2,396.4c-6.2-3.6-11.4-8.8-15-15"/>
	<path id="Sketch002_w0080" class="st1" d="M173.9,398.2c-6.2,3.6-13.3,5.5-20.5,5.5"/>
	<path id="Sketch002_w0081" class="st1" d="M175.2,403.3c-6.2,3.6-13.3,5.5-20.5,5.5"/>
	<path id="Sketch002_w0082" class="st1" d="M176.6,408.4c-6.2,3.6-13.3,5.5-20.5,5.5"/>
	<path id="Sketch002_w0083" class="st1" d="M178,413.5c-6.2,3.6-13.3,5.5-20.5,5.5"/>
	<path id="Sketch002_w0084" class="st1" d="M179.3,418.6c-6.2,3.6-13.3,5.5-20.5,5.5"/>
	<path id="Sketch002_w0085" class="st1" d="M180.7,423.7c-6.2,3.6-13.3,5.5-20.5,5.5"/>
	<path id="Sketch002_w0086" class="st1" d="M182.1,428.8c-6.2,3.6-13.3,5.5-20.5,5.5"/>
	<path id="Sketch002_w0087" class="st1" d="M183.4,433.9c-6.2,3.6-13.3,5.5-20.5,5.5"/>
	<path id="Sketch002_w0088" class="st1" d="M184.8,439c-6.2,3.6-13.3,5.5-20.5,5.5"/>
	<path id="Sketch002_w0089" class="st1" d="M186.2,444.1c-6.2,3.6-13.3,5.5-20.5,5.5"/>
	<path id="Sketch002_w0090" class="st1" d="M187.5,449.2c-6.2,3.6-13.3,5.5-20.5,5.5"/>
	<path id="Sketch002_w0091" class="st1" d="M188.9,454.3c-6.2,3.6-13.3,5.5-20.5,5.5"/>
	<path id="Sketch002_w0092" class="st1" d="M190.3,459.4c-6.2,3.6-13.3,5.5-20.5,5.5"/>
	<path id="Sketch002_w0093" class="st1" d="M191.6,464.5c-6.2,3.6-13.3,5.5-20.5,5.5"/>
	<path id="Sketch002_w0094" class="st1" d="M193,469.6c-6.2,3.6-13.3,5.5-20.5,5.5"/>
	<path id="Sketch002_w0095" class="st1" d="M194.4,474.7c-6.2,3.6-13.3,5.5-20.5,5.5"/>
	<path id="Sketch002_w0096" class="st1" d="M195.7,479.8c-6.2,3.6-13.3,5.5-20.5,5.5"/>
	<path id="Sketch002_w0097" class="st1" d="M197.1,484.9c-6.2,3.6-13.3,5.5-20.5,5.5"/>
	<path id="Sketch002_w0098" class="st1" d="M198.5,490c-6.2,3.6-13.3,5.5-20.5,5.5"/>
	<path id="Sketch002_w0099" class="st1" d="M199.8,495.1c-6.2,3.6-13.3,5.5-20.5,5.5"/>
	<path id="Sketch002_w0100" class="st1" d="M109.5,378.4c-3.6-6.2-5.5-13.3-5.5-20.5"/>
	<path id="Sketch002_w0101" class="st1" d="M104.4,379.7c-3.6-6.2-5.5-13.3-5.5-20.5"/>
	<path id="Sketch002_w0102" class="st1" d="M99.3,381.1c-3.6-6.2-5.5-13.3-5.5-20.5"/>
	<path id="Sketch002_w0103" class="st1" d="M94.2,382.5c-3.6-6.2-5.5-13.3-5.5-20.5"/>
	<path id="Sketch002_w0104" class="st1" d="M89,383.8c-3.6-6.2-5.5-13.3-5.5-20.5"/>
	<path id="Sketch002_w0105" class="st1" d="M83.9,385.2c-3.6-6.2-5.5-13.3-5.5-20.5"/>
	<path id="Sketch002_w0106" class="st1" d="M78.8,386.6c-3.6-6.2-5.5-13.3-5.5-20.5"/>
	<path id="Sketch002_w0107" class="st1" d="M73.7,387.9c-3.6-6.2-5.5-13.3-5.5-20.5"/>
	<path id="Sketch002_w0108" class="st1" d="M68.6,389.3c-3.6-6.2-5.5-13.3-5.5-20.5"/>
	<path id="Sketch002_w0109" class="st1" d="M63.5,390.7c-3.6-6.2-5.5-13.3-5.5-20.5"/>
	<path id="Sketch002_w0110" class="st1" d="M58.4,392c-3.6-6.2-5.5-13.3-5.5-20.5"/>
	<path id="Sketch002_w0111" class="st1" d="M53.3,393.4c-3.6-6.2-5.5-13.3-5.5-20.5"/>
	<path id="Sketch002_w0112" class="st1" d="M48.2,394.8c-3.6-6.2-5.5-13.3-5.5-20.5"/>
	<path id="Sketch002_w0113" class="st1" d="M43.1,396.1c-3.6-6.2-5.5-13.3-5.5-20.5"/>
	<path id="Sketch002_w0114" class="st1" d="M38,397.5c-3.6-6.2-5.5-13.3-5.5-20.5"/>
	<path id="Sketch002_w0115" class="st1" d="M32.9,398.9c-3.6-6.2-5.5-13.3-5.5-20.5"/>
	<path id="Sketch002_w0116" class="st1" d="M27.8,400.2c-3.6-6.2-5.5-13.3-5.5-20.5"/>
	<path id="Sketch002_w0117" class="st1" d="M22.7,401.6c-3.6-6.2-5.5-13.3-5.5-20.5"/>
	<path id="Sketch002_w0118" class="st1" d="M17.6,403c-3.6-6.2-5.5-13.3-5.5-20.5"/>
	<path id="Sketch002_w0119" class="st1" d="M12.5,404.4C8.9,398.1,7,391,7,383.8"/>
	<title>b&apos;Sketch002&apos;</title>
</g>
</svg>
