<?xml version="1.0"?>
<!DOCTYPE svg PUBLIC "-//W3C//DTD SVG 1.1//EN" "http://www.w3.org/Graphics/SVG/1.1/DTD/svg11.dtd">
<svg width="158.12075358842856mm" height="223.7804069331035mm" viewBox="0 0 158.12075358842856 223.7804069331035" xmlns="http://www.w3.org/2000/svg" version="1.1">
<g id="Sketch" transform="translate(16.764489,137.230203) scale(1,-1)">
<path id="Sketch_w0000"  d="M 14.285714285714286 2.955e-12 L 14.285714285714286 10.0 Q 14.285714285714286 62.589803821926054 25.43096388072165 111.42033282077985 L 26.084525937665468 114.28377528584961 " stroke="#000000" stroke-width="0.35 px" style="stroke-width:0.35;stroke-miterlimit:4;stroke-dasharray:none;stroke-linecap:square;fill:none;fill-opacity:1;fill-rule: evenodd"/>
<path id="Sketch_w0001"  d="M 28.571428571428573 2.9558577807620168e-12 L 28.923397363939348 9.993803978921065 Q 30.82579230827494 64.01041729442788 49.58671304200664 102.96787061741932 L 50.861064825321634 105.61408936223302 " stroke="#000000" stroke-width="0.35 px" style="stroke-width:0.35;stroke-miterlimit:4;stroke-dasharray:none;stroke-linecap:square;fill:none;fill-opacity:1;fill-rule: evenodd"/>
<path id="Sketch_w0002"  d="M 42.85714285714286 2.9558577807620168e-12 L 44.16539562540288 9.914054402429915 Q 51.35494073660749 64.39705882672448 71.25597735528383 89.3521694249177 L 73.08721754532495 91.64847199196316 " stroke="#000000" stroke-width="0.35 px" style="stroke-width:0.35;stroke-miterlimit:4;stroke-dasharray:none;stroke-linecap:square;fill:none;fill-opacity:1;fill-rule: evenodd"/>
<path id="Sketch_w0003"  d="M 57.142857142857146 2.9558577807620168e-12 L 59.4009486100985 9.741715604839413 Q 70.10113662188935 55.9037909863665 89.35216942491769 71.25597735528383 L 91.64847199196316 73.08721754532495 " stroke="#000000" stroke-width="0.35 px" style="stroke-width:0.35;stroke-miterlimit:4;stroke-dasharray:none;stroke-linecap:square;fill:none;fill-opacity:1;fill-rule: evenodd"/>
<path id="Sketch_w0004"  d="M 71.42857142857143 2.9558577807620168e-12 L 74.64731457166579 9.467824067798425 Q 85.41219075938633 41.13234320646739 102.96787061741934 49.58671304200664 L 105.61408936223302 50.861064825321634 " stroke="#000000" stroke-width="0.35 px" style="stroke-width:0.35;stroke-miterlimit:4;stroke-dasharray:none;stroke-linecap:square;fill:none;fill-opacity:1;fill-rule: evenodd"/>
<path id="Sketch_w0005"  d="M 85.71428571428572 2.9558577807620168e-12 L 89.96713594449403 9.050594727387647 Q 96.00767597117736 21.90561589125223 111.42222323794293 25.42268000250818 L 114.28571428571429 26.076029168249363 " stroke="#000000" stroke-width="0.35 px" style="stroke-width:0.35;stroke-miterlimit:4;stroke-dasharray:none;stroke-linecap:square;fill:none;fill-opacity:1;fill-rule: evenodd"/>
<path id="Sketch_w0006"  d="M 100.0 2.955e-12 L 103.53553390593272 3.535533905932738 A 4.45442 4.45442 0 0 0 110.722 2.26966A 3.93303 3.93303 0 0 1 114.286 2.95497e-12" stroke="#000000" stroke-width="0.35 px" style="stroke-width:0.35;stroke-miterlimit:4;stroke-dasharray:none;stroke-linecap:square;fill:none;fill-opacity:1;fill-rule: evenodd"/>
<title>b'Sketch'</title>
</g>
<g id="Sketch002" transform="translate(16.764489,137.230203) scale(1,-1)">
<path id="Sketch002_w0000"  d="M 32.771561675092535 115.43840238575552 A 120 120 0 0 0 56.6292 105.798L 55.318617566084036 103.3490896793806 Q 30.583760176529346 57.13815551230796 28.923397363939348 9.993803978921065 L 39.171316188101734 2.643612892791402 Q 48.54871 97.508675 58.71119852653743 104.65655816802648 A 120 120 0 0 0 78.7516 90.5439L 76.92900028747773 88.44836178103338 Q 50.52234410973291 58.08756844810976 44.16539562540288 9.914054402429915 L 53.65451682825322 2.664896798706511 Q 66.260246 81.969307 81.7785561394919 87.81951807963861 A 120 120 0 0 0 96.6223 71.1627L 94.3861293158452 69.51577072687796 Q 68.90648722271828 50.7499099930236 59.4009486100985 9.741715604839413 L 68.11589530574817 2.683086189728831 Q 87.814873 65.594482 98.15178338326425 69.03786945354537 A 120 120 0 0 0 109.83 48.347L 107.28788407487836 47.22810305014143 Q 83.99934022400888 36.976491152296774 74.64731457166579 9.467824067798425 L 82.561929102062 2.696849699786341 Q 99.009888 40.1968 110.88631974066604 45.871822444402376 A 120 120 0 0 0 117.432 24.6939L 114.71396095499092 24.122415902975636 Q 95.11249399253865 20.00055719946324 89.96713594449403 9.050594727387647 L 99.80117588903704 5.053414767829544 Q 111.516052 17.217257 118.58751319951368 18.357606411380857 A 120 120 0 0 0 119.999 -0.457591L 114.2919822392042 -0.4575906353618557 A 4.71741 4.71741 0 0 0 110.639 2.20898A 4.31105 4.31105 0 0 1 103.795 3.52077L 100.5 0.225770460231078 L 100.5 -22.269730000000003 L 13.785714285714285 -22.269730000000003 L 13.785714285714285 -0.5 L 0.0 -0.5 L 0.0 120.0 A 120 120 0 0 0 31.6672 115.746L 30.934328369496402 113.06746267298779 Q 14.285714285714286 52.21543676214827 14.285714285714286 10.0 L 24.66524804867739 2.734326365927975 Q 28.832088 109.037888 32.77156167655803 115.43840238533949 " stroke="#000000" stroke-width="0.35 px" style="stroke-width:0.35;stroke-miterlimit:4;stroke-dasharray:none;stroke-linecap:square;fill:none;fill-opacity:1;fill-rule: evenodd"/>
<title>b'Sketch002'</title>
</g>
<g id="Sketch004" transform="translate(16.764489,137.230203) scale(1,-1)">
<path id="Sketch004_w0000"  d="M -15.214285714285722 135.68 L 139.80606094103638 135.68 L 139.80606094103638 -84.99999999999704 L -15.214285714285722 -84.99999999999704 L -15.214285714285722 135.68 " stroke="#000000" stroke-width="0.35 px" style="stroke-width:0.35;stroke-miterlimit:4;stroke-dasharray:none;stroke-linecap:square;fill:none;fill-opacity:1;fill-rule: evenodd"/>
<title>b'Sketch004'</title>
</g>
</svg>