<?xml version="1.0"?>
<!DOCTYPE svg PUBLIC "-//W3C//DTD SVG 1.1//EN" "http://www.w3.org/Graphics/SVG/1.1/DTD/svg11.dtd">
<svg width="157.39950467161754mm" height="223.7662647974414mm" viewBox="0 0 157.39950467161754 223.7662647974414" xmlns="http://www.w3.org/2000/svg" version="1.1">
<g id="Sketch003" transform="translate(16.050311,137.223132) scale(1,-1)">
<path id="Sketch003_w0000"  d="M 10.285714285714286 0.0 L 14.285714285714288 2.9558577807620168e-12 L 14.285714285714286 115.18 L 10.285714285714286 115.18 L 10.285714285714286 0.0 " stroke="#000000" stroke-width="0.35 px" style="stroke-width:0.35;stroke-miterlimit:4;stroke-dasharray:none;stroke-linecap:square;fill:none;fill-opacity:1;fill-rule: evenodd"/>
<path id="Sketch003_w0001"  d="M 24.66524804867739 2.734326365927972 L 28.662769640245813 2.593538848923623 L 32.40296084670188 108.79255011453468 L 28.405439255133455 108.93333763153903 L 24.66524804867739 2.734326365927972 " stroke="#000000" stroke-width="0.35 px" style="stroke-width:0.35;stroke-miterlimit:4;stroke-dasharray:none;stroke-linecap:square;fill:none;fill-opacity:1;fill-rule: evenodd"/>
<path id="Sketch003_w0002"  d="M 39.171316188101734 2.643612892791406 L 43.13693794907367 2.1203117854872424 L 55.655779689033984 96.98919421897142 L 51.690157928062035 97.51249532627558 L 39.171316188101734 2.643612892791406 " stroke="#000000" stroke-width="0.35 px" style="stroke-width:0.35;stroke-miterlimit:4;stroke-dasharray:none;stroke-linecap:square;fill:none;fill-opacity:1;fill-rule: evenodd"/>
<path id="Sketch003_w0003"  d="M 53.65451682825322 2.6648967987065095 L 57.55120307018893 1.7616602118097076 L 75.7743698390703 80.37889545552893 L 71.87768359713459 81.28213204242573 L 53.65451682825322 2.6648967987065095 " stroke="#000000" stroke-width="0.35 px" style="stroke-width:0.35;stroke-miterlimit:4;stroke-dasharray:none;stroke-linecap:square;fill:none;fill-opacity:1;fill-rule: evenodd"/>
<path id="Sketch003_w0004"  d="M 68.11589530574817 2.683086189728832 L 71.90302493286741 1.3955889324907296 L 91.80321552436351 59.93132634916238 L 88.01608589724427 61.218823606400484 L 68.11589530574817 2.683086189728832 " stroke="#000000" stroke-width="0.35 px" style="stroke-width:0.35;stroke-miterlimit:4;stroke-dasharray:none;stroke-linecap:square;fill:none;fill-opacity:1;fill-rule: evenodd"/>
<path id="Sketch003_w0005"  d="M 82.561929102062 2.696849699786341 L 86.18216699301685 0.9957096077025582 L 103.12970740699227 37.06218540865077 L 99.50946951603743 38.763325500734545 L 82.561929102062 2.696849699786341 " stroke="#000000" stroke-width="0.35 px" style="stroke-width:0.35;stroke-miterlimit:4;stroke-dasharray:none;stroke-linecap:square;fill:none;fill-opacity:1;fill-rule: evenodd"/>
<path id="Sketch003_w0006"  d="M 100.0 2.9558577807620168e-12 L 102.82842712474502 -2.828427124744412 L 115.56342025391855 9.90656600441853 L 112.73499312917353 12.734993129165893 L 100.0 2.9558577807620168e-12 " stroke="#000000" stroke-width="0.35 px" style="stroke-width:0.35;stroke-miterlimit:4;stroke-dasharray:none;stroke-linecap:square;fill:none;fill-opacity:1;fill-rule: evenodd"/>
<title>b'Sketch003'</title>
</g>
<g id="Sketch005" transform="translate(16.050311,137.223132) scale(1,-1)">
<path id="Sketch005_w0000"  d="M 139.80606094103638 -84.99999999999707 L 5.492821066824778 -84.99999999999707 L 5.492821066824782 115.68000000000004 L 139.80606094103638 115.68000000000004 L 139.80606094103638 -84.99999999999707 " stroke="#000000" stroke-width="0.35 px" style="stroke-width:0.35;stroke-miterlimit:4;stroke-dasharray:none;stroke-linecap:square;fill:none;fill-opacity:1;fill-rule: evenodd"/>
<path id="Sketch005_w0001"  d="M 5.492821066824782 1.3667601257884376 L -14.507178933098459 1.3667601257884376 L -14.507178933098459 135.67999999996167 L 119.80606094107478 135.67999999996167 L 119.80606094107478 115.68000000000005 " stroke="#000000" stroke-width="0.35 px" style="stroke-width:0.35;stroke-miterlimit:4;stroke-dasharray:none;stroke-linecap:square;fill:none;fill-opacity:1;fill-rule: evenodd"/>
<title>b'Sketch005'</title>
</g>
</svg>