<?xml version="1.0" encoding="utf-8"?>
<!-- Generator: Adobe Illustrator 22.0.1, SVG Export Plug-In . SVG Version: 6.00 Build 0)  -->
<svg version="1.1" id="Calque_1" xmlns="http://www.w3.org/2000/svg" xmlns:xlink="http://www.w3.org/1999/xlink" x="0px" y="0px"
	 viewBox="0 0 468.4 1710" style="enable-background:new 0 0 468.4 1710;" xml:space="preserve">
<style type="text/css">
	.st0{fill:none;stroke:#191919;stroke-width:0.35;stroke-linecap:square;}
	.st1{fill:#CCCCCC;stroke:#191919;stroke-width:0.35;stroke-linecap:square;}
	.st2{fill:#CCCCCC;}
	.st3{fill:none;stroke:#000000;stroke-width:0.35;stroke-linecap:square;}
</style>
<g id="Part__Mirroring001" transform="translate(82.620000,601.620000) scale(1,-1)">
	<path id="Part__Mirroring001_w0000" class="st0" d="M104-636v21.3"/>
	<path id="Part__Mirroring001_w0001" class="st0" d="M93.8-636v21.3"/>
	<path id="Part__Mirroring001_w0002" class="st0" d="M83.5-636v21.3"/>
	<path id="Part__Mirroring001_w0003" class="st0" d="M73.3-636v21.3"/>
	<path id="Part__Mirroring001_w0004" class="st0" d="M63.1-636v21.3"/>
	<path id="Part__Mirroring001_w0005" class="st0" d="M52.9-636v21.3"/>
	<path id="Part__Mirroring001_w0006" class="st0" d="M42.7-636v21.3"/>
	<path id="Part__Mirroring001_w0007" class="st0" d="M32.5-636v21.3"/>
	<path id="Part__Mirroring001_w0008" class="st0" d="M22.3-636v21.3"/>
	<path id="Part__Mirroring001_w0009" class="st0" d="M12.1-636v21.3"/>
	<path id="Part__Mirroring001_w0010" class="st0" d="M104-437.6v21.3"/>
	<path id="Part__Mirroring001_w0011" class="st0" d="M93.8-437.6v21.3"/>
	<path id="Part__Mirroring001_w0012" class="st0" d="M83.5-437.6v21.3"/>
	<path id="Part__Mirroring001_w0013" class="st0" d="M73.3-437.6v21.3"/>
	<path id="Part__Mirroring001_w0014" class="st0" d="M63.1-437.6v21.3"/>
	<path id="Part__Mirroring001_w0015" class="st0" d="M52.9-437.6v21.3"/>
	<path id="Part__Mirroring001_w0016" class="st0" d="M42.7-437.6v21.3"/>
	<path id="Part__Mirroring001_w0017" class="st0" d="M32.5-437.6v21.3"/>
	<path id="Part__Mirroring001_w0018" class="st0" d="M22.3-437.6v21.3"/>
	<path id="Part__Mirroring001_w0019" class="st0" d="M12.1-437.6v21.3"/>
	<path id="Part__Mirroring001_w0020" class="st0" d="M104-239.2v21.3"/>
	<path id="Part__Mirroring001_w0021" class="st0" d="M93.8-239.2v21.3"/>
	<path id="Part__Mirroring001_w0022" class="st0" d="M83.5-239.2v21.3"/>
	<path id="Part__Mirroring001_w0023" class="st0" d="M73.3-239.2v21.3"/>
	<path id="Part__Mirroring001_w0024" class="st0" d="M63.1-239.2v21.3"/>
	<path id="Part__Mirroring001_w0025" class="st0" d="M52.9-239.2v21.3"/>
	<path id="Part__Mirroring001_w0026" class="st0" d="M42.7-239.2v21.3"/>
	<path id="Part__Mirroring001_w0027" class="st0" d="M32.5-239.2v21.3"/>
	<path id="Part__Mirroring001_w0028" class="st0" d="M22.3-239.2v21.3"/>
	<path id="Part__Mirroring001_w0029" class="st0" d="M12.1-239.2v21.3"/>
	<path id="Part__Mirroring001_w0030" class="st0" d="M104-40.8v21.3"/>
	<path id="Part__Mirroring001_w0031" class="st0" d="M93.8-40.8v21.3"/>
	<path id="Part__Mirroring001_w0032" class="st0" d="M83.5-40.8v21.3"/>
	<path id="Part__Mirroring001_w0033" class="st0" d="M73.3-40.8v21.3"/>
	<path id="Part__Mirroring001_w0034" class="st0" d="M63.1-40.8v21.3"/>
	<path id="Part__Mirroring001_w0035" class="st0" d="M52.9-40.8v21.3"/>
	<path id="Part__Mirroring001_w0036" class="st0" d="M42.7-40.8v21.3"/>
	<path id="Part__Mirroring001_w0037" class="st0" d="M32.5-40.8v21.3"/>
	<path id="Part__Mirroring001_w0038" class="st0" d="M22.3-40.8v21.3"/>
	<path id="Part__Mirroring001_w0039" class="st0" d="M12.1-40.8v21.3"/>
	<path id="Part__Mirroring001_w0040" class="st0" d="M104,157.7v21.3"/>
	<path id="Part__Mirroring001_w0041" class="st0" d="M93.8,157.7v21.3"/>
	<path id="Part__Mirroring001_w0042" class="st0" d="M83.5,157.7v21.3"/>
	<path id="Part__Mirroring001_w0043" class="st0" d="M73.3,157.7v21.3"/>
	<path id="Part__Mirroring001_w0044" class="st0" d="M63.1,157.7v21.3"/>
	<path id="Part__Mirroring001_w0045" class="st0" d="M52.9,157.7v21.3"/>
	<path id="Part__Mirroring001_w0046" class="st0" d="M42.7,157.7v21.3"/>
	<path id="Part__Mirroring001_w0047" class="st0" d="M32.5,157.7v21.3"/>
	<path id="Part__Mirroring001_w0048" class="st0" d="M22.3,157.7v21.3"/>
	<path id="Part__Mirroring001_w0049" class="st0" d="M12.1,157.7v21.3"/>
	<title>b&apos;Sketch005 (Mirror #2)&apos;</title>
</g>
<g id="Part__Mirroring" transform="translate(82.620000,601.620000) scale(1,-1)">
	<path id="Part__Mirroring_w0000" class="st0" d="M109.1-735.2v21.3"/>
	<path id="Part__Mirroring_w0001" class="st0" d="M98.9-735.2v21.3"/>
	<path id="Part__Mirroring_w0002" class="st0" d="M88.6-735.2v21.3"/>
	<path id="Part__Mirroring_w0003" class="st0" d="M78.4-735.2v21.3"/>
	<path id="Part__Mirroring_w0004" class="st0" d="M68.2-735.2v21.3"/>
	<path id="Part__Mirroring_w0005" class="st0" d="M58-735.2v21.3"/>
	<path id="Part__Mirroring_w0006" class="st0" d="M47.8-735.2v21.3"/>
	<path id="Part__Mirroring_w0007" class="st0" d="M37.6-735.2v21.3"/>
	<path id="Part__Mirroring_w0008" class="st0" d="M27.4-735.2v21.3"/>
	<path id="Part__Mirroring_w0009" class="st0" d="M17.2-735.2v21.3"/>
	<path id="Part__Mirroring_w0010" class="st0" d="M7-735.2v21.3"/>
	<path id="Part__Mirroring_w0011" class="st0" d="M109.1-536.8v21.3"/>
	<path id="Part__Mirroring_w0012" class="st0" d="M98.9-536.8v21.3"/>
	<path id="Part__Mirroring_w0013" class="st0" d="M88.6-536.8v21.3"/>
	<path id="Part__Mirroring_w0014" class="st0" d="M78.4-536.8v21.3"/>
	<path id="Part__Mirroring_w0015" class="st0" d="M68.2-536.8v21.3"/>
	<path id="Part__Mirroring_w0016" class="st0" d="M58-536.8v21.3"/>
	<path id="Part__Mirroring_w0017" class="st0" d="M47.8-536.8v21.3"/>
	<path id="Part__Mirroring_w0018" class="st0" d="M37.6-536.8v21.3"/>
	<path id="Part__Mirroring_w0019" class="st0" d="M27.4-536.8v21.3"/>
	<path id="Part__Mirroring_w0020" class="st0" d="M17.2-536.8v21.3"/>
	<path id="Part__Mirroring_w0021" class="st0" d="M7-536.8v21.3"/>
	<path id="Part__Mirroring_w0022" class="st0" d="M109.1-338.3v21.3"/>
	<path id="Part__Mirroring_w0023" class="st0" d="M98.9-338.3v21.3"/>
	<path id="Part__Mirroring_w0024" class="st0" d="M88.6-338.3v21.3"/>
	<path id="Part__Mirroring_w0025" class="st0" d="M78.4-338.3v21.3"/>
	<path id="Part__Mirroring_w0026" class="st0" d="M68.2-338.3v21.3"/>
	<path id="Part__Mirroring_w0027" class="st0" d="M58-338.3v21.3"/>
	<path id="Part__Mirroring_w0028" class="st0" d="M47.8-338.3v21.3"/>
	<path id="Part__Mirroring_w0029" class="st0" d="M37.6-338.3v21.3"/>
	<path id="Part__Mirroring_w0030" class="st0" d="M27.4-338.3v21.3"/>
	<path id="Part__Mirroring_w0031" class="st0" d="M17.2-338.3v21.3"/>
	<path id="Part__Mirroring_w0032" class="st0" d="M7-338.3v21.3"/>
	<path id="Part__Mirroring_w0033" class="st0" d="M109.1-139.9v21.3"/>
	<path id="Part__Mirroring_w0034" class="st0" d="M98.9-139.9v21.3"/>
	<path id="Part__Mirroring_w0035" class="st0" d="M88.6-139.9v21.3"/>
	<path id="Part__Mirroring_w0036" class="st0" d="M78.4-139.9v21.3"/>
	<path id="Part__Mirroring_w0037" class="st0" d="M68.2-139.9v21.3"/>
	<path id="Part__Mirroring_w0038" class="st0" d="M58-139.9v21.3"/>
	<path id="Part__Mirroring_w0039" class="st0" d="M47.8-139.9v21.3"/>
	<path id="Part__Mirroring_w0040" class="st0" d="M37.6-139.9v21.3"/>
	<path id="Part__Mirroring_w0041" class="st0" d="M27.4-139.9v21.3"/>
	<path id="Part__Mirroring_w0042" class="st0" d="M17.2-139.9v21.3"/>
	<path id="Part__Mirroring_w0043" class="st0" d="M7-139.9v21.3"/>
	<path id="Part__Mirroring_w0044" class="st0" d="M109.1,58.5v21.3"/>
	<path id="Part__Mirroring_w0045" class="st0" d="M98.9,58.5v21.3"/>
	<path id="Part__Mirroring_w0046" class="st0" d="M88.6,58.5v21.3"/>
	<path id="Part__Mirroring_w0047" class="st0" d="M78.4,58.5v21.3"/>
	<path id="Part__Mirroring_w0048" class="st0" d="M68.2,58.5v21.3"/>
	<path id="Part__Mirroring_w0049" class="st0" d="M58,58.5v21.3"/>
	<path id="Part__Mirroring_w0050" class="st0" d="M47.8,58.5v21.3"/>
	<path id="Part__Mirroring_w0051" class="st0" d="M37.6,58.5v21.3"/>
	<path id="Part__Mirroring_w0052" class="st0" d="M27.4,58.5v21.3"/>
	<path id="Part__Mirroring_w0053" class="st0" d="M17.2,58.5v21.3"/>
	<path id="Part__Mirroring_w0054" class="st0" d="M7,58.5v21.3"/>
	<path id="Part__Mirroring_w0055" class="st0" d="M109.1,256.9v21.3"/>
	<path id="Part__Mirroring_w0056" class="st0" d="M98.9,256.9v21.3"/>
	<path id="Part__Mirroring_w0057" class="st0" d="M88.6,256.9v21.3"/>
	<path id="Part__Mirroring_w0058" class="st0" d="M78.4,256.9v21.3"/>
	<path id="Part__Mirroring_w0059" class="st0" d="M68.2,256.9v21.3"/>
	<path id="Part__Mirroring_w0060" class="st0" d="M58,256.9v21.3"/>
	<path id="Part__Mirroring_w0061" class="st0" d="M47.8,256.9v21.3"/>
	<path id="Part__Mirroring_w0062" class="st0" d="M37.6,256.9v21.3"/>
	<path id="Part__Mirroring_w0063" class="st0" d="M27.4,256.9v21.3"/>
	<path id="Part__Mirroring_w0064" class="st0" d="M17.2,256.9v21.3"/>
	<path id="Part__Mirroring_w0065" class="st0" d="M7,256.9v21.3"/>
	<title>b&apos;Sketch003 (Mirror #1)&apos;</title>
</g>
<g id="Mirrored" transform="translate(82.620000,601.620000) scale(1,-1)">
	<path id="Mirrored_f0001" class="st1" d="M-78,597L-78,597h459.2l0,0H-78z"/>
	<path id="Mirrored_f0002" class="st1" d="M-78-1103.8L-78-1103.8V597l0,0V-1103.8z"/>
	<path id="Mirrored_f0003" class="st1" d="M381.2,597L381.2,597v-1700.8l0,0V597z"/>
	<path id="Mirrored_f0004" class="st1" d="M381.2-1103.8L381.2-1103.8H-78l0,0H381.2z"/>
	<path id="Mirrored_f0005" class="st1" d="M7.1-1064.4L7.1-1064.4c0.6,0.3,0.8,1.1,0.5,1.7c0,0,0,0.1-0.1,0.1h0
		c0.4-0.6,0.3-1.3-0.3-1.7C7.2-1064.3,7.1-1064.3,7.1-1064.4L7.1-1064.4z"/>
	<path id="Mirrored_f0006" class="st1" d="M7.1-1064.4c-2.2-1.2-3-4-1.7-6.2s4-3,6.2-1.7c2.2,1.2,3,4,1.7,6.2
		c-0.4,0.7-1,1.3-1.7,1.7l0,0c2.2-1.2,3-4,1.7-6.2c-1.2-2.2-4-3-6.2-1.7c-2.2,1.2-3,4-1.7,6.2C5.8-1065.4,6.4-1064.8,7.1-1064.4
		L7.1-1064.4z"/>
	<path id="Mirrored_f0007" class="st1" d="M11.1-1062.6L11.1-1062.6c-0.4-0.6-0.3-1.3,0.3-1.7c0,0,0.1-0.1,0.1-0.1l0,0
		c-0.6,0.3-0.8,1.1-0.5,1.7C11.1-1062.6,11.1-1062.6,11.1-1062.6L11.1-1062.6z"/>
	<path id="Mirrored_f0008" class="st1" d="M11.1-1062.6c0.7,1,0.5,2.4-0.5,3.2c-1,0.7-2.4,0.5-3.2-0.5c-0.6-0.8-0.6-1.9,0-2.7h0
		c-0.7,1-0.5,2.4,0.5,3.2s2.4,0.5,3.2-0.5C11.7-1060.7,11.7-1061.8,11.1-1062.6L11.1-1062.6z"/>
	<path id="Mirrored_f0009" class="st1" d="M17.3-1064.4L17.3-1064.4c0.6,0.3,0.8,1.1,0.5,1.7c0,0,0,0.1-0.1,0.1l0,0
		c0.4-0.6,0.3-1.3-0.3-1.7C17.4-1064.3,17.4-1064.3,17.3-1064.4L17.3-1064.4z"/>
	<path id="Mirrored_f0010" class="st1" d="M17.3-1064.4c-2.2-1.2-3-4-1.7-6.2c1.2-2.2,4-3,6.2-1.7c2.2,1.2,3,4,1.7,6.2
		c-0.4,0.7-1,1.3-1.7,1.7l0,0c2.2-1.2,3-4,1.7-6.2c-1.2-2.2-4-3-6.2-1.7c-2.2,1.2-3,4-1.7,6.2C16-1065.4,16.6-1064.8,17.3-1064.4
		L17.3-1064.4z"/>
	<path id="Mirrored_f0011" class="st1" d="M21.4-1062.6L21.4-1062.6c-0.4-0.6-0.3-1.3,0.3-1.7c0,0,0.1-0.1,0.1-0.1l0,0
		c-0.6,0.3-0.8,1.1-0.5,1.7C21.3-1062.6,21.4-1062.6,21.4-1062.6L21.4-1062.6z"/>
	<path id="Mirrored_f0012" class="st1" d="M21.4-1062.6c0.7,1,0.5,2.4-0.5,3.2s-2.4,0.5-3.2-0.5c-0.6-0.8-0.6-1.9,0-2.7l0,0
		c-0.7,1-0.5,2.4,0.5,3.2c1,0.7,2.4,0.5,3.2-0.5C22-1060.7,22-1061.8,21.4-1062.6L21.4-1062.6z"/>
	<path id="Mirrored_f0013" class="st1" d="M27.6-1064.4L27.6-1064.4c0.6,0.3,0.8,1.1,0.5,1.7c0,0,0,0.1-0.1,0.1h0
		c0.4-0.6,0.3-1.3-0.3-1.7C27.6-1064.3,27.6-1064.3,27.6-1064.4L27.6-1064.4z"/>
	<path id="Mirrored_f0014" class="st1" d="M27.6-1064.4c-2.2-1.2-3-4-1.7-6.2s4-3,6.2-1.7c2.2,1.2,3,4,1.7,6.2
		c-0.4,0.7-1,1.3-1.7,1.7h0c2.2-1.2,3-4,1.7-6.2c-1.2-2.2-4-3-6.2-1.7s-3,4-1.7,6.2C26.2-1065.4,26.8-1064.8,27.6-1064.4
		L27.6-1064.4z"/>
	<path id="Mirrored_f0015" class="st1" d="M31.6-1062.6L31.6-1062.6c-0.4-0.6-0.3-1.3,0.3-1.7c0,0,0.1-0.1,0.1-0.1h0
		c-0.6,0.3-0.8,1.1-0.5,1.7C31.6-1062.6,31.6-1062.6,31.6-1062.6L31.6-1062.6z"/>
	<path id="Mirrored_f0016" class="st1" d="M31.6-1062.6c0.7,1,0.5,2.4-0.5,3.2s-2.4,0.5-3.2-0.5c-0.6-0.8-0.6-1.9,0-2.7h0
		c-0.7,1-0.5,2.4,0.5,3.2c1,0.7,2.4,0.5,3.2-0.5C32.2-1060.7,32.2-1061.8,31.6-1062.6L31.6-1062.6z"/>
	<path id="Mirrored_f0017" class="st1" d="M37.8-1064.4L37.8-1064.4c0.6,0.3,0.8,1.1,0.5,1.7c0,0,0,0.1-0.1,0.1h0
		c0.4-0.6,0.3-1.3-0.3-1.7C37.9-1064.3,37.8-1064.3,37.8-1064.4z"/>
	<path id="Mirrored_f0018" class="st1" d="M37.8-1064.4c-2.2-1.2-3-4-1.7-6.2c1.2-2.2,4-3,6.2-1.7c2.2,1.2,3,4,1.7,6.2
		c-0.4,0.7-1,1.3-1.7,1.7h0c2.2-1.2,3-4,1.7-6.2s-4-3-6.2-1.7c-2.2,1.2-3,4-1.7,6.2C36.5-1065.4,37.1-1064.8,37.8-1064.4
		L37.8-1064.4z"/>
	<path id="Mirrored_f0019" class="st1" d="M41.8-1062.6L41.8-1062.6c-0.4-0.6-0.3-1.3,0.3-1.7c0,0,0.1-0.1,0.1-0.1h0
		c-0.6,0.3-0.8,1.1-0.5,1.7C41.8-1062.6,41.8-1062.6,41.8-1062.6L41.8-1062.6z"/>
	<path id="Mirrored_f0020" class="st1" d="M41.8-1062.6c0.7,1,0.5,2.4-0.5,3.2c-1,0.7-2.4,0.5-3.2-0.5c-0.6-0.8-0.6-1.9,0-2.7h0
		c-0.7,1-0.5,2.4,0.5,3.2c1,0.7,2.4,0.5,3.2-0.5C42.4-1060.7,42.4-1061.8,41.8-1062.6L41.8-1062.6z"/>
	<path id="Mirrored_f0021" class="st1" d="M48-1064.4L48-1064.4c0.6,0.3,0.8,1.1,0.5,1.7c0,0,0,0.1-0.1,0.1h0
		c0.4-0.6,0.3-1.3-0.3-1.7C48.1-1064.3,48.1-1064.3,48-1064.4L48-1064.4z"/>
	<path id="Mirrored_f0022" class="st1" d="M48-1064.4c-2.2-1.2-3-4-1.7-6.2c1.2-2.2,4-3,6.2-1.7c2.2,1.2,3,4,1.7,6.2
		c-0.4,0.7-1,1.3-1.7,1.7h0c2.2-1.2,3-4,1.7-6.2c-1.2-2.2-4-3-6.2-1.7c-2.2,1.2-3,4-1.7,6.2C46.7-1065.4,47.3-1064.8,48-1064.4
		L48-1064.4z"/>
	<path id="Mirrored_f0023" class="st1" d="M52.1-1062.6L52.1-1062.6c-0.4-0.6-0.3-1.3,0.3-1.7c0,0,0.1-0.1,0.1-0.1h0
		c-0.6,0.3-0.8,1.1-0.5,1.7C52-1062.6,52-1062.6,52.1-1062.6L52.1-1062.6z"/>
	<path id="Mirrored_f0024" class="st1" d="M52.1-1062.6c0.7,1,0.5,2.4-0.5,3.2c-1,0.7-2.4,0.5-3.2-0.5c-0.6-0.8-0.6-1.9,0-2.7h0
		c-0.7,1-0.5,2.4,0.5,3.2c1,0.7,2.4,0.5,3.2-0.5C52.7-1060.7,52.7-1061.8,52.1-1062.6L52.1-1062.6z"/>
	<path id="Mirrored_f0025" class="st1" d="M58.2-1064.4L58.2-1064.4c0.6,0.3,0.8,1.1,0.5,1.7c0,0,0,0.1-0.1,0.1l0,0
		c0.4-0.6,0.3-1.3-0.3-1.7C58.3-1064.3,58.3-1064.3,58.2-1064.4L58.2-1064.4z"/>
	<path id="Mirrored_f0026" class="st1" d="M58.2-1064.4c-2.2-1.2-3-4-1.7-6.2s4-3,6.2-1.7c2.2,1.2,3,4,1.7,6.2
		c-0.4,0.7-1,1.3-1.7,1.7l0,0c2.2-1.2,3-4,1.7-6.2c-1.2-2.2-4-3-6.2-1.7c-2.2,1.2-3,4-1.7,6.2C56.9-1065.4,57.5-1064.8,58.2-1064.4
		L58.2-1064.4z"/>
	<path id="Mirrored_f0027" class="st1" d="M62.3-1062.6L62.3-1062.6c-0.4-0.6-0.3-1.3,0.3-1.7c0,0,0.1-0.1,0.1-0.1l0,0
		c-0.6,0.3-0.8,1.1-0.5,1.7C62.3-1062.6,62.3-1062.6,62.3-1062.6L62.3-1062.6z"/>
	<path id="Mirrored_f0028" class="st1" d="M62.3-1062.6c0.7,1,0.5,2.4-0.5,3.2c-1,0.7-2.4,0.5-3.2-0.5c-0.6-0.8-0.6-1.9,0-2.7l0,0
		c-0.7,1-0.5,2.4,0.5,3.2c1,0.7,2.4,0.5,3.2-0.5C62.9-1060.7,62.9-1061.8,62.3-1062.6L62.3-1062.6z"/>
	<path id="Mirrored_f0029" class="st1" d="M68.5-1064.4L68.5-1064.4c0.6,0.3,0.8,1.1,0.5,1.7c0,0,0,0.1-0.1,0.1v0
		c0.4-0.6,0.3-1.3-0.3-1.7C68.6-1064.3,68.5-1064.4,68.5-1064.4L68.5-1064.4z"/>
	<path id="Mirrored_f0030" class="st1" d="M68.5-1064.4c-2.2-1.2-3-4-1.7-6.2c1.2-2.2,4-3,6.2-1.7c2.2,1.2,3,4,1.7,6.2
		c-0.4,0.7-1,1.3-1.7,1.7v0c2.2-1.2,3-4,1.7-6.2s-4-3-6.2-1.7c-2.2,1.2-3,4-1.7,6.2C67.2-1065.4,67.8-1064.8,68.5-1064.4
		L68.5-1064.4z"/>
	<path id="Mirrored_f0031" class="st1" d="M72.5-1062.6L72.5-1062.6c-0.4-0.6-0.3-1.3,0.3-1.7c0,0,0.1-0.1,0.1-0.1v0
		c-0.6,0.3-0.8,1.1-0.5,1.7C72.5-1062.6,72.5-1062.6,72.5-1062.6L72.5-1062.6z"/>
	<path id="Mirrored_f0032" class="st1" d="M72.5-1062.6c0.7,1,0.5,2.4-0.5,3.2c-1,0.7-2.4,0.5-3.2-0.5c-0.6-0.8-0.6-1.9,0-2.7v0
		c-0.7,1-0.5,2.4,0.5,3.2c1,0.7,2.4,0.5,3.2-0.5C73.1-1060.7,73.1-1061.8,72.5-1062.6L72.5-1062.6z"/>
	<path id="Mirrored_f0033" class="st1" d="M78.7-1064.4L78.7-1064.4c0.6,0.3,0.8,1.1,0.5,1.7c0,0,0,0.1-0.1,0.1l0,0
		c0.4-0.6,0.3-1.3-0.3-1.7C78.8-1064.3,78.8-1064.4,78.7-1064.4L78.7-1064.4z"/>
	<path id="Mirrored_f0034" class="st1" d="M78.7-1064.4c-2.2-1.2-3-4-1.7-6.2c1.2-2.2,4-3,6.2-1.7c2.2,1.2,3,4,1.7,6.2
		c-0.4,0.7-1,1.3-1.7,1.7l0,0c2.2-1.2,3-4,1.7-6.2c-1.2-2.2-4-3-6.2-1.7c-2.2,1.2-3,4-1.7,6.2C77.4-1065.4,78-1064.8,78.7-1064.4
		L78.7-1064.4z"/>
	<path id="Mirrored_f0035" class="st1" d="M82.8-1062.6L82.8-1062.6c-0.4-0.6-0.3-1.3,0.3-1.7c0,0,0.1-0.1,0.1-0.1l0,0
		c-0.6,0.3-0.8,1.1-0.5,1.7C82.7-1062.6,82.7-1062.6,82.8-1062.6L82.8-1062.6z"/>
	<path id="Mirrored_f0036" class="st1" d="M82.8-1062.6c0.7,1,0.5,2.4-0.5,3.2c-1,0.7-2.4,0.5-3.2-0.5c-0.6-0.8-0.6-1.9,0-2.7l0,0
		c-0.7,1-0.5,2.4,0.5,3.2c1,0.7,2.4,0.5,3.2-0.5C83.4-1060.7,83.4-1061.8,82.8-1062.6L82.8-1062.6z"/>
	<path id="Mirrored_f0037" class="st1" d="M88.9-1064.4L88.9-1064.4c0.6,0.3,0.8,1.1,0.5,1.7c0,0,0,0.1-0.1,0.1h0
		c0.4-0.6,0.3-1.3-0.3-1.7C89-1064.3,89-1064.4,88.9-1064.4L88.9-1064.4z"/>
	<path id="Mirrored_f0038" class="st1" d="M88.9-1064.4c-2.2-1.2-3-4-1.7-6.2c1.2-2.2,4-3,6.2-1.7c2.2,1.2,3,4,1.7,6.2
		c-0.4,0.7-1,1.3-1.7,1.7l0,0c2.2-1.2,3-4,1.7-6.2c-1.2-2.2-4-3-6.2-1.7c-2.2,1.2-3,4-1.7,6.2C87.6-1065.4,88.2-1064.8,88.9-1064.4
		L88.9-1064.4z"/>
	<path id="Mirrored_f0039" class="st1" d="M93-1062.6L93-1062.6c-0.4-0.6-0.3-1.3,0.3-1.7c0,0,0.1-0.1,0.1-0.1l0,0
		c-0.6,0.3-0.8,1.1-0.5,1.7C93-1062.7,93-1062.6,93-1062.6L93-1062.6z"/>
	<path id="Mirrored_f0040" class="st1" d="M93-1062.6c0.7,1,0.5,2.4-0.5,3.2c-1,0.7-2.4,0.5-3.2-0.5c-0.6-0.8-0.6-1.9,0-2.7h0
		c-0.7,1-0.5,2.4,0.5,3.2c1,0.7,2.4,0.5,3.2-0.5C93.6-1060.7,93.6-1061.8,93-1062.6L93-1062.6z"/>
	<path id="Mirrored_f0041" class="st1" d="M99.2-1064.4L99.2-1064.4c0.6,0.3,0.8,1.1,0.5,1.7c0,0,0,0.1-0.1,0.1h0
		c0.4-0.6,0.3-1.3-0.3-1.7C99.3-1064.3,99.2-1064.4,99.2-1064.4L99.2-1064.4z"/>
	<path id="Mirrored_f0042" class="st1" d="M99.2-1064.4c-2.2-1.2-3-4-1.7-6.2c1.2-2.2,4-3,6.2-1.7c2.2,1.2,3,4,1.7,6.2
		c-0.4,0.7-1,1.3-1.7,1.7h0c2.2-1.2,3-4,1.7-6.2s-4-3-6.2-1.7s-3,4-1.7,6.2C97.9-1065.4,98.5-1064.8,99.2-1064.4L99.2-1064.4z"/>
	<path id="Mirrored_f0043" class="st1" d="M103.2-1062.6L103.2-1062.6c-0.4-0.6-0.3-1.3,0.3-1.7c0,0,0.1-0.1,0.1-0.1h0
		c-0.6,0.3-0.8,1.1-0.5,1.7C103.2-1062.7,103.2-1062.6,103.2-1062.6L103.2-1062.6z"/>
	<path id="Mirrored_f0044" class="st1" d="M103.2-1062.6c0.7,1,0.5,2.4-0.5,3.2c-1,0.7-2.4,0.5-3.2-0.5c-0.6-0.8-0.6-1.9,0-2.7h0
		c-0.7,1-0.5,2.4,0.5,3.2c1,0.7,2.4,0.5,3.2-0.5C103.8-1060.7,103.8-1061.8,103.2-1062.6L103.2-1062.6z"/>
	<path id="Mirrored_f0053" class="st1" d="M194.8-1062.6L194.8-1062.6c-0.7,1-0.5,2.4,0.5,3.2c1,0.7,2.4,0.5,3.2-0.5
		c0.6-0.8,0.6-1.9,0-2.7h0c0.7,1,0.5,2.4-0.5,3.2c-1,0.7-2.4,0.5-3.2-0.5C194.2-1060.7,194.2-1061.8,194.8-1062.6L194.8-1062.6z"/>
	<path id="Mirrored_f0054" class="st1" d="M198.9-1064.4c-0.6,0.3-0.8,1.1-0.5,1.7c0,0,0,0.1,0.1,0.1h0c-0.4-0.6-0.3-1.3,0.3-1.7
		C198.8-1064.3,198.8-1064.4,198.9-1064.4L198.9-1064.4z"/>
	<path id="Mirrored_f0055" class="st1" d="M194.8-1062.6c0.4-0.6,0.3-1.3-0.3-1.7c0,0-0.1-0.1-0.1-0.1h0c0.6,0.3,0.8,1.1,0.5,1.7
		C194.9-1062.7,194.8-1062.6,194.8-1062.6L194.8-1062.6z"/>
	<path id="Mirrored_f0056" class="st1" d="M198.9-1064.4L198.9-1064.4c2.2-1.2,3-4,1.7-6.2s-4-3-6.2-1.7s-3,4-1.7,6.2
		c0.4,0.7,1,1.3,1.7,1.7h0c-2.2-1.2-3-4-1.7-6.2c1.2-2.2,4-3,6.2-1.7c2.2,1.2,3,4,1.7,6.2C200.2-1065.4,199.6-1064.8,198.9-1064.4
		L198.9-1064.4z"/>
	<path id="Mirrored_f0057" class="st1" d="M205-1062.6L205-1062.6c-0.7,1-0.5,2.4,0.5,3.2c1,0.7,2.4,0.5,3.2-0.5
		c0.6-0.8,0.6-1.9,0-2.7h0c0.7,1,0.5,2.4-0.5,3.2c-1,0.7-2.4,0.5-3.2-0.5C204.5-1060.7,204.5-1061.8,205-1062.6L205-1062.6z"/>
	<path id="Mirrored_f0058" class="st1" d="M209.1-1064.4c-0.6,0.3-0.8,1.1-0.5,1.7c0,0,0,0.1,0.1,0.1h0c-0.4-0.6-0.3-1.3,0.3-1.7
		C209-1064.3,209.1-1064.4,209.1-1064.4L209.1-1064.4z"/>
	<path id="Mirrored_f0059" class="st1" d="M205-1062.6c0.4-0.6,0.3-1.3-0.3-1.7c0,0-0.1-0.1-0.1-0.1l0,0c0.6,0.3,0.8,1.1,0.5,1.7
		C205.1-1062.7,205.1-1062.6,205-1062.6L205-1062.6z"/>
	<path id="Mirrored_f0060" class="st1" d="M209.1-1064.4L209.1-1064.4c2.2-1.2,3-4,1.7-6.2c-1.2-2.2-4-3-6.2-1.7
		c-2.2,1.2-3,4-1.7,6.2c0.4,0.7,1,1.3,1.7,1.7l0,0c-2.2-1.2-3-4-1.7-6.2c1.2-2.2,4-3,6.2-1.7c2.2,1.2,3,4,1.7,6.2
		C210.4-1065.4,209.8-1064.8,209.1-1064.4L209.1-1064.4z"/>
	<path id="Mirrored_f0061" class="st1" d="M215.3-1062.6L215.3-1062.6c-0.7,1-0.5,2.4,0.5,3.2c1,0.7,2.4,0.5,3.2-0.5
		c0.6-0.8,0.6-1.9,0-2.7l0,0c0.7,1,0.5,2.4-0.5,3.2c-1,0.7-2.4,0.5-3.2-0.5C214.7-1060.7,214.7-1061.8,215.3-1062.6L215.3-1062.6z"
		/>
	<path id="Mirrored_f0062" class="st1" d="M219.3-1064.4c-0.6,0.3-0.8,1.1-0.5,1.7c0,0,0,0.1,0.1,0.1l0,0c-0.4-0.6-0.3-1.3,0.3-1.7
		C219.3-1064.3,219.3-1064.4,219.3-1064.4L219.3-1064.4z"/>
	<path id="Mirrored_f0063" class="st1" d="M215.3-1062.6c0.4-0.6,0.3-1.3-0.3-1.7c0,0-0.1-0.1-0.1-0.1l0,0c0.6,0.3,0.8,1.1,0.5,1.7
		C215.3-1062.6,215.3-1062.6,215.3-1062.6L215.3-1062.6z"/>
	<path id="Mirrored_f0064" class="st1" d="M219.3-1064.4L219.3-1064.4c2.2-1.2,3-4,1.7-6.2c-1.2-2.2-4-3-6.2-1.7
		c-2.2,1.2-3,4-1.7,6.2c0.4,0.7,1,1.3,1.7,1.7l0,0c-2.2-1.2-3-4-1.7-6.2c1.2-2.2,4-3,6.2-1.7c2.2,1.2,3,4,1.7,6.2
		C220.7-1065.4,220.1-1064.8,219.3-1064.4L219.3-1064.4z"/>
	<path id="Mirrored_f0065" class="st1" d="M225.5-1062.6L225.5-1062.6c-0.7,1-0.5,2.4,0.5,3.2c1,0.7,2.4,0.5,3.2-0.5
		c0.6-0.8,0.6-1.9,0-2.7v0c0.7,1,0.5,2.4-0.5,3.2c-1,0.7-2.4,0.5-3.2-0.5C224.9-1060.7,224.9-1061.8,225.5-1062.6L225.5-1062.6z"/>
	<path id="Mirrored_f0066" class="st1" d="M229.6-1064.4c-0.6,0.3-0.8,1.1-0.5,1.7c0,0,0,0.1,0.1,0.1v0c-0.4-0.6-0.3-1.3,0.3-1.7
		C229.5-1064.3,229.5-1064.4,229.6-1064.4L229.6-1064.4z"/>
	<path id="Mirrored_f0067" class="st1" d="M225.5-1062.6c0.4-0.6,0.3-1.3-0.3-1.7c0,0-0.1-0.1-0.1-0.1v0c0.6,0.3,0.8,1.1,0.5,1.7
		C225.6-1062.6,225.5-1062.6,225.5-1062.6L225.5-1062.6z"/>
	<path id="Mirrored_f0068" class="st1" d="M229.6-1064.4L229.6-1064.4c2.2-1.2,3-4,1.7-6.2c-1.2-2.2-4-3-6.2-1.7
		c-2.2,1.2-3,4-1.7,6.2c0.4,0.7,1,1.3,1.7,1.7v0c-2.2-1.2-3-4-1.7-6.2c1.2-2.2,4-3,6.2-1.7c2.2,1.2,3,4,1.7,6.2
		C230.9-1065.4,230.3-1064.8,229.6-1064.4L229.6-1064.4z"/>
	<path id="Mirrored_f0069" class="st1" d="M235.7-1062.6L235.7-1062.6c-0.7,1-0.5,2.4,0.5,3.2c1,0.7,2.4,0.5,3.2-0.5
		c0.6-0.8,0.6-1.9,0-2.7l0,0c0.7,1,0.5,2.4-0.5,3.2c-1,0.7-2.4,0.5-3.2-0.5C235.2-1060.7,235.2-1061.8,235.7-1062.6L235.7-1062.6z"
		/>
	<path id="Mirrored_f0070" class="st1" d="M239.8-1064.4c-0.6,0.3-0.8,1.1-0.5,1.7c0,0,0,0.1,0.1,0.1l0,0c-0.4-0.6-0.3-1.3,0.3-1.7
		C239.7-1064.3,239.8-1064.3,239.8-1064.4L239.8-1064.4z"/>
	<path id="Mirrored_f0071" class="st1" d="M235.7-1062.6c0.4-0.6,0.3-1.3-0.3-1.7c0,0-0.1-0.1-0.1-0.1l0,0c0.6,0.3,0.8,1.1,0.5,1.7
		C235.8-1062.6,235.8-1062.6,235.7-1062.6L235.7-1062.6z"/>
	<path id="Mirrored_f0072" class="st1" d="M239.8-1064.4L239.8-1064.4c2.2-1.2,3-4,1.7-6.2c-1.2-2.2-4-3-6.2-1.7s-3,4-1.7,6.2
		c0.4,0.7,1,1.3,1.7,1.7l0,0c-2.2-1.2-3-4-1.7-6.2c1.2-2.2,4-3,6.2-1.7c2.2,1.2,3,4,1.7,6.2C241.1-1065.4,240.5-1064.8,239.8-1064.4
		L239.8-1064.4z"/>
	<path id="Mirrored_f0073" class="st1" d="M246-1062.6L246-1062.6c-0.7,1-0.5,2.4,0.5,3.2c1,0.7,2.4,0.5,3.2-0.5
		c0.6-0.8,0.6-1.9,0-2.7h0c0.7,1,0.5,2.4-0.5,3.2c-1,0.7-2.4,0.5-3.2-0.5C245.4-1060.7,245.4-1061.8,246-1062.6L246-1062.6z"/>
	<path id="Mirrored_f0074" class="st1" d="M250-1064.4c-0.6,0.3-0.8,1.1-0.5,1.7c0,0,0,0.1,0.1,0.1h0c-0.4-0.6-0.3-1.3,0.3-1.7
		C250-1064.3,250-1064.3,250-1064.4L250-1064.4z"/>
	<path id="Mirrored_f0075" class="st1" d="M246-1062.6c0.4-0.6,0.3-1.3-0.3-1.7c0,0-0.1-0.1-0.1-0.1h0c0.6,0.3,0.8,1.1,0.5,1.7
		C246-1062.6,246-1062.6,246-1062.6L246-1062.6z"/>
	<path id="Mirrored_f0076" class="st1" d="M250-1064.4L250-1064.4c2.2-1.2,3-4,1.7-6.2c-1.2-2.2-4-3-6.2-1.7c-2.2,1.2-3,4-1.7,6.2
		c0.4,0.7,1,1.3,1.7,1.7h0c-2.2-1.2-3-4-1.7-6.2c1.2-2.2,4-3,6.2-1.7c2.2,1.2,3,4,1.7,6.2C251.4-1065.4,250.8-1064.8,250-1064.4
		L250-1064.4z"/>
	<path id="Mirrored_f0077" class="st1" d="M256.2-1062.6L256.2-1062.6c-0.7,1-0.5,2.4,0.5,3.2c1,0.7,2.4,0.5,3.2-0.5
		c0.6-0.8,0.6-1.9,0-2.7h0c0.7,1,0.5,2.4-0.5,3.2c-1,0.7-2.4,0.5-3.2-0.5C255.6-1060.7,255.6-1061.8,256.2-1062.6L256.2-1062.6z"/>
	<path id="Mirrored_f0078" class="st1" d="M260.3-1064.4c-0.6,0.3-0.8,1.1-0.5,1.7c0,0,0,0.1,0.1,0.1h0c-0.4-0.6-0.3-1.3,0.3-1.7
		C260.2-1064.3,260.2-1064.3,260.3-1064.4L260.3-1064.4z"/>
	<path id="Mirrored_f0079" class="st1" d="M256.2-1062.6c0.4-0.6,0.3-1.3-0.3-1.7c0,0-0.1-0.1-0.1-0.1h0c0.6,0.3,0.8,1.1,0.5,1.7
		C256.3-1062.6,256.2-1062.6,256.2-1062.6L256.2-1062.6z"/>
	<path id="Mirrored_f0080" class="st1" d="M260.3-1064.4L260.3-1064.4c2.2-1.2,3-4,1.7-6.2s-4-3-6.2-1.7c-2.2,1.2-3,4-1.7,6.2
		c0.4,0.7,1,1.3,1.7,1.7h0c-2.2-1.2-3-4-1.7-6.2c1.2-2.2,4-3,6.2-1.7c2.2,1.2,3,4,1.7,6.2C261.6-1065.4,261-1064.8,260.3-1064.4
		L260.3-1064.4z"/>
	<path id="Mirrored_f0081" class="st1" d="M266.4-1062.6L266.4-1062.6c-0.7,1-0.5,2.4,0.5,3.2s2.4,0.5,3.2-0.5
		c0.6-0.8,0.6-1.9,0-2.7h0c0.7,1,0.5,2.4-0.5,3.2c-1,0.7-2.4,0.5-3.2-0.5C265.9-1060.7,265.9-1061.8,266.4-1062.6L266.4-1062.6z"/>
	<path id="Mirrored_f0082" class="st1" d="M270.5-1064.4c-0.6,0.3-0.8,1.1-0.5,1.7c0,0,0,0.1,0.1,0.1h0c-0.4-0.6-0.3-1.3,0.3-1.7
		C270.4-1064.3,270.5-1064.3,270.5-1064.4L270.5-1064.4z"/>
	<path id="Mirrored_f0083" class="st1" d="M266.4-1062.6c0.4-0.6,0.3-1.3-0.3-1.7c0,0-0.1-0.1-0.1-0.1h0c0.6,0.3,0.8,1.1,0.5,1.7
		C266.5-1062.6,266.5-1062.6,266.4-1062.6L266.4-1062.6z"/>
	<path id="Mirrored_f0084" class="st1" d="M270.5-1064.4L270.5-1064.4c2.2-1.2,3-4,1.7-6.2c-1.2-2.2-4-3-6.2-1.7
		c-2.2,1.2-3,4-1.7,6.2c0.4,0.7,1,1.3,1.7,1.7h0c-2.2-1.2-3-4-1.7-6.2s4-3,6.2-1.7s3,4,1.7,6.2
		C271.8-1065.4,271.2-1064.8,270.5-1064.4L270.5-1064.4z"/>
	<path id="Mirrored_f0085" class="st1" d="M276.7-1062.6L276.7-1062.6c-0.7,1-0.5,2.4,0.5,3.2c1,0.7,2.4,0.5,3.2-0.5
		c0.6-0.8,0.6-1.9,0-2.7l0,0c0.7,1,0.5,2.4-0.5,3.2c-1,0.7-2.4,0.5-3.2-0.5C276.1-1060.7,276.1-1061.8,276.7-1062.6L276.7-1062.6z"
		/>
	<path id="Mirrored_f0086" class="st1" d="M280.7-1064.4c-0.6,0.3-0.8,1.1-0.5,1.7c0,0,0,0.1,0.1,0.1l0,0c-0.4-0.6-0.3-1.3,0.3-1.7
		C280.7-1064.3,280.7-1064.3,280.7-1064.4L280.7-1064.4z"/>
	<path id="Mirrored_f0087" class="st1" d="M276.7-1062.6c0.4-0.6,0.3-1.3-0.3-1.7c0,0-0.1-0.1-0.1-0.1l0,0c0.6,0.3,0.8,1.1,0.5,1.7
		C276.7-1062.6,276.7-1062.6,276.7-1062.6L276.7-1062.6z"/>
	<path id="Mirrored_f0088" class="st1" d="M280.7-1064.4L280.7-1064.4c2.2-1.2,3-4,1.7-6.2c-1.2-2.2-4-3-6.2-1.7
		c-2.2,1.2-3,4-1.7,6.2c0.4,0.7,1,1.3,1.7,1.7l0,0c-2.2-1.2-3-4-1.7-6.2c1.2-2.2,4-3,6.2-1.7c2.2,1.2,3,4,1.7,6.2
		C282.1-1065.4,281.5-1064.8,280.7-1064.4L280.7-1064.4z"/>
	<path id="Mirrored_f0089" class="st1" d="M286.9-1062.6L286.9-1062.6c-0.7,1-0.5,2.4,0.5,3.2c1,0.7,2.4,0.5,3.2-0.5
		c0.6-0.8,0.6-1.9,0-2.7h0c0.7,1,0.5,2.4-0.5,3.2c-1,0.7-2.4,0.5-3.2-0.5C286.3-1060.7,286.3-1061.8,286.9-1062.6L286.9-1062.6z"/>
	<path id="Mirrored_f0090" class="st1" d="M291-1064.4c-0.6,0.3-0.8,1.1-0.5,1.7c0,0,0,0.1,0.1,0.1h0c-0.4-0.6-0.3-1.3,0.3-1.7
		C290.9-1064.3,290.9-1064.3,291-1064.4L291-1064.4z"/>
	<path id="Mirrored_f0091" class="st1" d="M286.9-1062.6c0.4-0.6,0.3-1.3-0.3-1.7c0,0-0.1-0.1-0.1-0.1l0,0c0.6,0.3,0.8,1.1,0.5,1.7
		C287-1062.6,286.9-1062.6,286.9-1062.6L286.9-1062.6z"/>
	<path id="Mirrored_f0092" class="st1" d="M291-1064.4L291-1064.4c2.2-1.2,3-4,1.7-6.2c-1.2-2.2-4-3-6.2-1.7c-2.2,1.2-3,4-1.7,6.2
		c0.4,0.7,1,1.3,1.7,1.7l0,0c-2.2-1.2-3-4-1.7-6.2c1.2-2.2,4-3,6.2-1.7c2.2,1.2,3,4,1.7,6.2C292.3-1065.4,291.7-1064.8,291-1064.4
		L291-1064.4z"/>
	<path id="Mirrored_f0095" class="st2" d="M109.1-964.9v-79.4c0-1.6,1.3-2.8,2.8-2.8h79.4c1.6,0,2.8,1.3,2.8,2.8v79.4
		c0,1.6-1.3,2.8-2.8,2.8h-79.4C110.3-962,109.1-963.3,109.1-964.9z M117.6-1041.4c-1.6,0-2.8,1.3-2.8,2.8v68c0,1.6,1.3,2.8,2.8,2.8
		h68c1.6,0,2.8-1.3,2.8-2.8v-68c0-1.6-1.3-2.8-2.8-2.8H117.6z"/>
	<path class="st2" d="M151.6,398.6c-23.5,0-42.5-19-42.5-42.5c0-23.5,19-42.5,42.5-42.5s42.5,19,42.5,42.5
		C194.1,379.6,175.1,398.6,151.6,398.6z M151.6,319.2c-20.4,0-36.9,16.5-36.9,36.9c0,20.4,16.5,36.9,36.9,36.9s36.9-16.5,36.9-36.9
		C188.4,335.7,171.9,319.2,151.6,319.2z"/>
	<title>b&apos;Mirrored&apos;</title>
</g>
<g id="Sketch004" transform="translate(82.620000,601.620000) scale(1,-1)">
	<path id="Sketch004_w0000" class="st3" d="M194.1-1047.1h102v283.5h-102V-1047.1"/>
	<title>b&apos;Sketch004&apos;</title>
</g>
<g id="Sketch005" transform="translate(82.620000,601.620000) scale(1,-1)">
	<path id="Sketch005_w0000" class="st3" d="M199.2-636v21.3"/>
	<path id="Sketch005_w0001" class="st3" d="M209.4-636v21.3"/>
	<path id="Sketch005_w0002" class="st3" d="M219.6-636v21.3"/>
	<path id="Sketch005_w0003" class="st3" d="M229.8-636v21.3"/>
	<path id="Sketch005_w0004" class="st3" d="M240-636v21.3"/>
	<path id="Sketch005_w0005" class="st3" d="M250.2-636v21.3"/>
	<path id="Sketch005_w0006" class="st3" d="M260.4-636v21.3"/>
	<path id="Sketch005_w0007" class="st3" d="M270.6-636v21.3"/>
	<path id="Sketch005_w0008" class="st3" d="M280.8-636v21.3"/>
	<path id="Sketch005_w0009" class="st3" d="M291-636v21.3"/>
	<path id="Sketch005_w0010" class="st3" d="M199.2-437.6v21.3"/>
	<path id="Sketch005_w0011" class="st3" d="M209.4-437.6v21.3"/>
	<path id="Sketch005_w0012" class="st3" d="M219.6-437.6v21.3"/>
	<path id="Sketch005_w0013" class="st3" d="M229.8-437.6v21.3"/>
	<path id="Sketch005_w0014" class="st3" d="M240-437.6v21.3"/>
	<path id="Sketch005_w0015" class="st3" d="M250.2-437.6v21.3"/>
	<path id="Sketch005_w0016" class="st3" d="M260.4-437.6v21.3"/>
	<path id="Sketch005_w0017" class="st3" d="M270.6-437.6v21.3"/>
	<path id="Sketch005_w0018" class="st3" d="M280.8-437.6v21.3"/>
	<path id="Sketch005_w0019" class="st3" d="M291-437.6v21.3"/>
	<path id="Sketch005_w0020" class="st3" d="M199.2-239.2v21.3"/>
	<path id="Sketch005_w0021" class="st3" d="M209.4-239.2v21.3"/>
	<path id="Sketch005_w0022" class="st3" d="M219.6-239.2v21.3"/>
	<path id="Sketch005_w0023" class="st3" d="M229.8-239.2v21.3"/>
	<path id="Sketch005_w0024" class="st3" d="M240-239.2v21.3"/>
	<path id="Sketch005_w0025" class="st3" d="M250.2-239.2v21.3"/>
	<path id="Sketch005_w0026" class="st3" d="M260.4-239.2v21.3"/>
	<path id="Sketch005_w0027" class="st3" d="M270.6-239.2v21.3"/>
	<path id="Sketch005_w0028" class="st3" d="M280.8-239.2v21.3"/>
	<path id="Sketch005_w0029" class="st3" d="M291-239.2v21.3"/>
	<path id="Sketch005_w0030" class="st3" d="M199.2-40.8v21.3"/>
	<path id="Sketch005_w0031" class="st3" d="M209.4-40.8v21.3"/>
	<path id="Sketch005_w0032" class="st3" d="M219.6-40.8v21.3"/>
	<path id="Sketch005_w0033" class="st3" d="M229.8-40.8v21.3"/>
	<path id="Sketch005_w0034" class="st3" d="M240-40.8v21.3"/>
	<path id="Sketch005_w0035" class="st3" d="M250.2-40.8v21.3"/>
	<path id="Sketch005_w0036" class="st3" d="M260.4-40.8v21.3"/>
	<path id="Sketch005_w0037" class="st3" d="M270.6-40.8v21.3"/>
	<path id="Sketch005_w0038" class="st3" d="M280.8-40.8v21.3"/>
	<path id="Sketch005_w0039" class="st3" d="M291-40.8v21.3"/>
	<path id="Sketch005_w0040" class="st3" d="M199.2,157.7v21.3"/>
	<path id="Sketch005_w0041" class="st3" d="M209.4,157.7v21.3"/>
	<path id="Sketch005_w0042" class="st3" d="M219.6,157.7v21.3"/>
	<path id="Sketch005_w0043" class="st3" d="M229.8,157.7v21.3"/>
	<path id="Sketch005_w0044" class="st3" d="M240,157.7v21.3"/>
	<path id="Sketch005_w0045" class="st3" d="M250.2,157.7v21.3"/>
	<path id="Sketch005_w0046" class="st3" d="M260.4,157.7v21.3"/>
	<path id="Sketch005_w0047" class="st3" d="M270.6,157.7v21.3"/>
	<path id="Sketch005_w0048" class="st3" d="M280.8,157.7v21.3"/>
	<path id="Sketch005_w0049" class="st3" d="M291,157.7v21.3"/>
	<title>b&apos;Sketch005&apos;</title>
</g>
<g id="Sketch003" transform="translate(82.620000,601.620000) scale(1,-1)">
	<path id="Sketch003_w0000" class="st3" d="M194.1-735.2v21.3"/>
	<path id="Sketch003_w0001" class="st3" d="M204.3-735.2v21.3"/>
	<path id="Sketch003_w0002" class="st3" d="M214.5-735.2v21.3"/>
	<path id="Sketch003_w0003" class="st3" d="M224.7-735.2v21.3"/>
	<path id="Sketch003_w0004" class="st3" d="M234.9-735.2v21.3"/>
	<path id="Sketch003_w0005" class="st3" d="M245.1-735.2v21.3"/>
	<path id="Sketch003_w0006" class="st3" d="M255.3-735.2v21.3"/>
	<path id="Sketch003_w0007" class="st3" d="M265.5-735.2v21.3"/>
	<path id="Sketch003_w0008" class="st3" d="M275.7-735.2v21.3"/>
	<path id="Sketch003_w0009" class="st3" d="M285.9-735.2v21.3"/>
	<path id="Sketch003_w0010" class="st3" d="M296.1-735.2v21.3"/>
	<path id="Sketch003_w0011" class="st3" d="M194.1-536.8v21.3"/>
	<path id="Sketch003_w0012" class="st3" d="M204.3-536.8v21.3"/>
	<path id="Sketch003_w0013" class="st3" d="M214.5-536.8v21.3"/>
	<path id="Sketch003_w0014" class="st3" d="M224.7-536.8v21.3"/>
	<path id="Sketch003_w0015" class="st3" d="M234.9-536.8v21.3"/>
	<path id="Sketch003_w0016" class="st3" d="M245.1-536.8v21.3"/>
	<path id="Sketch003_w0017" class="st3" d="M255.3-536.8v21.3"/>
	<path id="Sketch003_w0018" class="st3" d="M265.5-536.8v21.3"/>
	<path id="Sketch003_w0019" class="st3" d="M275.7-536.8v21.3"/>
	<path id="Sketch003_w0020" class="st3" d="M285.9-536.8v21.3"/>
	<path id="Sketch003_w0021" class="st3" d="M296.1-536.8v21.3"/>
	<path id="Sketch003_w0022" class="st3" d="M194.1-338.3v21.3"/>
	<path id="Sketch003_w0023" class="st3" d="M204.3-338.3v21.3"/>
	<path id="Sketch003_w0024" class="st3" d="M214.5-338.3v21.3"/>
	<path id="Sketch003_w0025" class="st3" d="M224.7-338.3v21.3"/>
	<path id="Sketch003_w0026" class="st3" d="M234.9-338.3v21.3"/>
	<path id="Sketch003_w0027" class="st3" d="M245.1-338.3v21.3"/>
	<path id="Sketch003_w0028" class="st3" d="M255.3-338.3v21.3"/>
	<path id="Sketch003_w0029" class="st3" d="M265.5-338.3v21.3"/>
	<path id="Sketch003_w0030" class="st3" d="M275.7-338.3v21.3"/>
	<path id="Sketch003_w0031" class="st3" d="M285.9-338.3v21.3"/>
	<path id="Sketch003_w0032" class="st3" d="M296.1-338.3v21.3"/>
	<path id="Sketch003_w0033" class="st3" d="M194.1-139.9v21.3"/>
	<path id="Sketch003_w0034" class="st3" d="M204.3-139.9v21.3"/>
	<path id="Sketch003_w0035" class="st3" d="M214.5-139.9v21.3"/>
	<path id="Sketch003_w0036" class="st3" d="M224.7-139.9v21.3"/>
	<path id="Sketch003_w0037" class="st3" d="M234.9-139.9v21.3"/>
	<path id="Sketch003_w0038" class="st3" d="M245.1-139.9v21.3"/>
	<path id="Sketch003_w0039" class="st3" d="M255.3-139.9v21.3"/>
	<path id="Sketch003_w0040" class="st3" d="M265.5-139.9v21.3"/>
	<path id="Sketch003_w0041" class="st3" d="M275.7-139.9v21.3"/>
	<path id="Sketch003_w0042" class="st3" d="M285.9-139.9v21.3"/>
	<path id="Sketch003_w0043" class="st3" d="M296.1-139.9v21.3"/>
	<path id="Sketch003_w0044" class="st3" d="M194.1,58.5v21.3"/>
	<path id="Sketch003_w0045" class="st3" d="M204.3,58.5v21.3"/>
	<path id="Sketch003_w0046" class="st3" d="M214.5,58.5v21.3"/>
	<path id="Sketch003_w0047" class="st3" d="M224.7,58.5v21.3"/>
	<path id="Sketch003_w0048" class="st3" d="M234.9,58.5v21.3"/>
	<path id="Sketch003_w0049" class="st3" d="M245.1,58.5v21.3"/>
	<path id="Sketch003_w0050" class="st3" d="M255.3,58.5v21.3"/>
	<path id="Sketch003_w0051" class="st3" d="M265.5,58.5v21.3"/>
	<path id="Sketch003_w0052" class="st3" d="M275.7,58.5v21.3"/>
	<path id="Sketch003_w0053" class="st3" d="M285.9,58.5v21.3"/>
	<path id="Sketch003_w0054" class="st3" d="M296.1,58.5v21.3"/>
	<path id="Sketch003_w0055" class="st3" d="M194.1,256.9v21.3"/>
	<path id="Sketch003_w0056" class="st3" d="M204.3,256.9v21.3"/>
	<path id="Sketch003_w0057" class="st3" d="M214.5,256.9v21.3"/>
	<path id="Sketch003_w0058" class="st3" d="M224.7,256.9v21.3"/>
	<path id="Sketch003_w0059" class="st3" d="M234.9,256.9v21.3"/>
	<path id="Sketch003_w0060" class="st3" d="M245.1,256.9v21.3"/>
	<path id="Sketch003_w0061" class="st3" d="M255.3,256.9v21.3"/>
	<path id="Sketch003_w0062" class="st3" d="M265.5,256.9v21.3"/>
	<path id="Sketch003_w0063" class="st3" d="M275.7,256.9v21.3"/>
	<path id="Sketch003_w0064" class="st3" d="M285.9,256.9v21.3"/>
	<path id="Sketch003_w0065" class="st3" d="M296.1,256.9v21.3"/>
	<title>b&apos;Sketch003&apos;</title>
</g>
<g id="Sketch002" transform="translate(82.620000,601.620000) scale(1,-1)">
	<path id="Sketch002_w0000" class="st3" d="M296.1,383.8c0,7.2-1.9,14.3-5.5,20.5"/>
	<path id="Sketch002_w0001" class="st3" d="M291,382.4c0,7.2-1.9,14.3-5.5,20.5"/>
	<path id="Sketch002_w0002" class="st3" d="M285.9,381.1c0,7.2-1.9,14.3-5.5,20.5"/>
	<path id="Sketch002_w0003" class="st3" d="M280.8,379.7c0,7.2-1.9,14.3-5.5,20.5"/>
	<path id="Sketch002_w0004" class="st3" d="M275.7,378.3c0,7.2-1.9,14.3-5.5,20.5"/>
	<path id="Sketch002_w0005" class="st3" d="M270.6,377c0,7.2-1.9,14.3-5.5,20.5"/>
	<path id="Sketch002_w0006" class="st3" d="M265.5,375.6c0,7.2-1.9,14.3-5.5,20.5"/>
	<path id="Sketch002_w0007" class="st3" d="M260.4,374.2c0,7.2-1.9,14.3-5.5,20.5"/>
	<path id="Sketch002_w0008" class="st3" d="M255.3,372.9c0,7.2-1.9,14.3-5.5,20.5"/>
	<path id="Sketch002_w0009" class="st3" d="M250.2,371.5c0,7.2-1.9,14.3-5.5,20.5"/>
	<path id="Sketch002_w0010" class="st3" d="M245.1,370.1c0,7.2-1.9,14.3-5.5,20.5"/>
	<path id="Sketch002_w0011" class="st3" d="M240,368.8c0,7.2-1.9,14.3-5.5,20.5"/>
	<path id="Sketch002_w0012" class="st3" d="M234.9,367.4c0,7.2-1.9,14.3-5.5,20.5"/>
	<path id="Sketch002_w0013" class="st3" d="M229.8,366c0,7.2-1.9,14.3-5.5,20.5"/>
	<path id="Sketch002_w0014" class="st3" d="M224.7,364.7c0,7.2-1.9,14.3-5.5,20.5"/>
	<path id="Sketch002_w0015" class="st3" d="M219.6,363.3c0,7.2-1.9,14.3-5.5,20.5"/>
	<path id="Sketch002_w0016" class="st3" d="M214.5,361.9c0,7.2-1.9,14.3-5.5,20.5"/>
	<path id="Sketch002_w0017" class="st3" d="M209.4,360.6c0,7.2-1.9,14.3-5.5,20.5"/>
	<path id="Sketch002_w0018" class="st3" d="M204.3,359.2c0,7.2-1.9,14.3-5.5,20.5"/>
	<path id="Sketch002_w0019" class="st3" d="M199.2,357.8c0,7.2-1.9,14.3-5.5,20.5"/>
	<path id="Sketch002_w0020" class="st3" d="M191.9,381.4c-3.6,6.2-8.8,11.4-15,15"/>
	<path id="Sketch002_w0021" class="st3" d="M195.7,385.2c-3.6,6.2-8.8,11.4-15,15"/>
	<path id="Sketch002_w0022" class="st3" d="M199.4,388.9c-3.6,6.2-8.8,11.4-15,15"/>
	<path id="Sketch002_w0023" class="st3" d="M203.1,392.6c-3.6,6.2-8.8,11.4-15,15"/>
	<path id="Sketch002_w0024" class="st3" d="M206.9,396.4c-3.6,6.2-8.8,11.4-15,15"/>
	<path id="Sketch002_w0025" class="st3" d="M210.6,400.1c-3.6,6.2-8.8,11.4-15,15"/>
	<path id="Sketch002_w0026" class="st3" d="M214.4,403.8c-3.6,6.2-8.8,11.4-15,15"/>
	<path id="Sketch002_w0027" class="st3" d="M218.1,407.6c-3.6,6.2-8.8,11.4-15,15"/>
	<path id="Sketch002_w0028" class="st3" d="M221.8,411.3c-3.6,6.2-8.8,11.4-15,15"/>
	<path id="Sketch002_w0029" class="st3" d="M225.6,415c-3.6,6.2-8.8,11.4-15,15"/>
	<path id="Sketch002_w0030" class="st3" d="M229.3,418.8c-3.6,6.2-8.8,11.4-15,15"/>
	<path id="Sketch002_w0031" class="st3" d="M233,422.5c-3.6,6.2-8.8,11.4-15,15"/>
	<path id="Sketch002_w0032" class="st3" d="M236.8,426.2c-3.6,6.2-8.8,11.4-15,15"/>
	<path id="Sketch002_w0033" class="st3" d="M240.5,430c-3.6,6.2-8.8,11.4-15,15"/>
	<path id="Sketch002_w0034" class="st3" d="M244.2,433.7c-3.6,6.2-8.8,11.4-15,15"/>
	<path id="Sketch002_w0035" class="st3" d="M248,437.4c-3.6,6.2-8.8,11.4-15,15"/>
	<path id="Sketch002_w0036" class="st3" d="M251.7,441.2c-3.6,6.2-8.8,11.4-15,15"/>
	<path id="Sketch002_w0037" class="st3" d="M255.4,444.9c-3.6,6.2-8.8,11.4-15,15"/>
	<path id="Sketch002_w0038" class="st3" d="M259.2,448.6c-3.6,6.2-8.8,11.4-15,15"/>
	<path id="Sketch002_w0039" class="st3" d="M262.9,452.4c-3.6,6.2-8.8,11.4-15,15"/>
	<path id="Sketch002_w0040" class="st3" d="M149.8,403.7c-7.2,0-14.3-1.9-20.5-5.5"/>
	<path id="Sketch002_w0041" class="st3" d="M148.5,408.8c-7.2,0-14.3-1.9-20.5-5.5"/>
	<path id="Sketch002_w0042" class="st3" d="M147.1,413.9c-7.2,0-14.3-1.9-20.5-5.5"/>
	<path id="Sketch002_w0043" class="st3" d="M145.7,419c-7.2,0-14.3-1.9-20.5-5.5"/>
	<path id="Sketch002_w0044" class="st3" d="M144.4,424.1c-7.2,0-14.3-1.9-20.5-5.5"/>
	<path id="Sketch002_w0045" class="st3" d="M143,429.2c-7.2,0-14.3-1.9-20.5-5.5"/>
	<path id="Sketch002_w0046" class="st3" d="M141.6,434.3c-7.2,0-14.3-1.9-20.5-5.5"/>
	<path id="Sketch002_w0047" class="st3" d="M140.3,439.4c-7.2,0-14.3-1.9-20.5-5.5"/>
	<path id="Sketch002_w0048" class="st3" d="M138.9,444.5c-7.2,0-14.3-1.9-20.5-5.5"/>
	<path id="Sketch002_w0049" class="st3" d="M137.5,449.6c-7.2,0-14.3-1.9-20.5-5.5"/>
	<path id="Sketch002_w0050" class="st3" d="M136.2,454.7c-7.2,0-14.3-1.9-20.5-5.5"/>
	<path id="Sketch002_w0051" class="st3" d="M134.8,459.8c-7.2,0-14.3-1.9-20.5-5.5"/>
	<path id="Sketch002_w0052" class="st3" d="M133.4,464.9c-7.2,0-14.3-1.9-20.5-5.5"/>
	<path id="Sketch002_w0053" class="st3" d="M132.1,470c-7.2,0-14.3-1.9-20.5-5.5"/>
	<path id="Sketch002_w0054" class="st3" d="M130.7,475.1c-7.2,0-14.3-1.9-20.5-5.5"/>
	<path id="Sketch002_w0055" class="st3" d="M129.3,480.2c-7.2,0-14.3-1.9-20.5-5.5"/>
	<path id="Sketch002_w0056" class="st3" d="M127.9,485.3c-7.2,0-14.3-1.9-20.5-5.5"/>
	<path id="Sketch002_w0057" class="st3" d="M123.8,500.6c-7.2,0-14.3-1.9-20.5-5.5"/>
	<path id="Sketch002_w0058" class="st3" d="M125.2,495.5c-7.2,0-14.3-1.9-20.5-5.5"/>
	<path id="Sketch002_w0059" class="st3" d="M126.6,490.4c-7.2,0-14.3-1.9-20.5-5.5"/>
	<path id="Sketch002_w0060" class="st3" d="M55.3,467.4c-6.2-3.6-11.4-8.8-15-15"/>
	<path id="Sketch002_w0061" class="st3" d="M59,463.7c-6.2-3.6-11.4-8.8-15-15"/>
	<path id="Sketch002_w0062" class="st3" d="M62.7,459.9c-6.2-3.6-11.4-8.8-15-15"/>
	<path id="Sketch002_w0063" class="st3" d="M66.5,456.2c-6.2-3.6-11.4-8.8-15-15"/>
	<path id="Sketch002_w0064" class="st3" d="M70.2,452.5c-6.2-3.6-11.4-8.8-15-15"/>
	<path id="Sketch002_w0065" class="st3" d="M74,448.7c-6.2-3.6-11.4-8.8-15-15"/>
	<path id="Sketch002_w0066" class="st3" d="M77.7,445c-6.2-3.6-11.4-8.8-15-15"/>
	<path id="Sketch002_w0067" class="st3" d="M81.4,441.3c-6.2-3.6-11.4-8.8-15-15"/>
	<path id="Sketch002_w0068" class="st3" d="M85.2,437.5c-6.2-3.6-11.4-8.8-15-15"/>
	<path id="Sketch002_w0069" class="st3" d="M88.9,433.8c-6.2-3.6-11.4-8.8-15-15"/>
	<path id="Sketch002_w0070" class="st3" d="M92.6,430.1c-6.2-3.6-11.4-8.8-15-15"/>
	<path id="Sketch002_w0071" class="st3" d="M96.4,426.3c-6.2-3.6-11.4-8.8-15-15"/>
	<path id="Sketch002_w0072" class="st3" d="M100.1,422.6c-6.2-3.6-11.4-8.8-15-15"/>
	<path id="Sketch002_w0073" class="st3" d="M103.8,418.9c-6.2-3.6-11.4-8.8-15-15"/>
	<path id="Sketch002_w0074" class="st3" d="M107.6,415.1c-6.2-3.6-11.4-8.8-15-15"/>
	<path id="Sketch002_w0075" class="st3" d="M111.3,411.4c-6.2-3.6-11.4-8.8-15-15"/>
	<path id="Sketch002_w0076" class="st3" d="M115,407.7c-6.2-3.6-11.4-8.8-15-15"/>
	<path id="Sketch002_w0077" class="st3" d="M118.8,403.9c-6.2-3.6-11.4-8.8-15-15"/>
	<path id="Sketch002_w0078" class="st3" d="M122.5,400.2c-6.2-3.6-11.4-8.8-15-15"/>
	<path id="Sketch002_w0079" class="st3" d="M126.2,396.4c-6.2-3.6-11.4-8.8-15-15"/>
	<path id="Sketch002_w0080" class="st3" d="M173.9,398.2c-6.2,3.6-13.3,5.5-20.5,5.5"/>
	<path id="Sketch002_w0081" class="st3" d="M175.2,403.3c-6.2,3.6-13.3,5.5-20.5,5.5"/>
	<path id="Sketch002_w0082" class="st3" d="M176.6,408.4c-6.2,3.6-13.3,5.5-20.5,5.5"/>
	<path id="Sketch002_w0083" class="st3" d="M178,413.5c-6.2,3.6-13.3,5.5-20.5,5.5"/>
	<path id="Sketch002_w0084" class="st3" d="M179.3,418.6c-6.2,3.6-13.3,5.5-20.5,5.5"/>
	<path id="Sketch002_w0085" class="st3" d="M180.7,423.7c-6.2,3.6-13.3,5.5-20.5,5.5"/>
	<path id="Sketch002_w0086" class="st3" d="M182.1,428.8c-6.2,3.6-13.3,5.5-20.5,5.5"/>
	<path id="Sketch002_w0087" class="st3" d="M183.4,433.9c-6.2,3.6-13.3,5.5-20.5,5.5"/>
	<path id="Sketch002_w0088" class="st3" d="M184.8,439c-6.2,3.6-13.3,5.5-20.5,5.5"/>
	<path id="Sketch002_w0089" class="st3" d="M186.2,444.1c-6.2,3.6-13.3,5.5-20.5,5.5"/>
	<path id="Sketch002_w0090" class="st3" d="M187.5,449.2c-6.2,3.6-13.3,5.5-20.5,5.5"/>
	<path id="Sketch002_w0091" class="st3" d="M188.9,454.3c-6.2,3.6-13.3,5.5-20.5,5.5"/>
	<path id="Sketch002_w0092" class="st3" d="M190.3,459.4c-6.2,3.6-13.3,5.5-20.5,5.5"/>
	<path id="Sketch002_w0093" class="st3" d="M191.6,464.5c-6.2,3.6-13.3,5.5-20.5,5.5"/>
	<path id="Sketch002_w0094" class="st3" d="M193,469.6c-6.2,3.6-13.3,5.5-20.5,5.5"/>
	<path id="Sketch002_w0095" class="st3" d="M194.4,474.7c-6.2,3.6-13.3,5.5-20.5,5.5"/>
	<path id="Sketch002_w0096" class="st3" d="M195.7,479.8c-6.2,3.6-13.3,5.5-20.5,5.5"/>
	<path id="Sketch002_w0097" class="st3" d="M197.1,484.9c-6.2,3.6-13.3,5.5-20.5,5.5"/>
	<path id="Sketch002_w0098" class="st3" d="M198.5,490c-6.2,3.6-13.3,5.5-20.5,5.5"/>
	<path id="Sketch002_w0099" class="st3" d="M199.8,495.1c-6.2,3.6-13.3,5.5-20.5,5.5"/>
	<path id="Sketch002_w0100" class="st3" d="M109.5,378.4c-3.6-6.2-5.5-13.3-5.5-20.5"/>
	<path id="Sketch002_w0101" class="st3" d="M104.4,379.7c-3.6-6.2-5.5-13.3-5.5-20.5"/>
	<path id="Sketch002_w0102" class="st3" d="M99.3,381.1c-3.6-6.2-5.5-13.3-5.5-20.5"/>
	<path id="Sketch002_w0103" class="st3" d="M94.2,382.5c-3.6-6.2-5.5-13.3-5.5-20.5"/>
	<path id="Sketch002_w0104" class="st3" d="M89,383.8c-3.6-6.2-5.5-13.3-5.5-20.5"/>
	<path id="Sketch002_w0105" class="st3" d="M83.9,385.2c-3.6-6.2-5.5-13.3-5.5-20.5"/>
	<path id="Sketch002_w0106" class="st3" d="M78.8,386.6c-3.6-6.2-5.5-13.3-5.5-20.5"/>
	<path id="Sketch002_w0107" class="st3" d="M73.7,387.9c-3.6-6.2-5.5-13.3-5.5-20.5"/>
	<path id="Sketch002_w0108" class="st3" d="M68.6,389.3c-3.6-6.2-5.5-13.3-5.5-20.5"/>
	<path id="Sketch002_w0109" class="st3" d="M63.5,390.7c-3.6-6.2-5.5-13.3-5.5-20.5"/>
	<path id="Sketch002_w0110" class="st3" d="M58.4,392c-3.6-6.2-5.5-13.3-5.5-20.5"/>
	<path id="Sketch002_w0111" class="st3" d="M53.3,393.4c-3.6-6.2-5.5-13.3-5.5-20.5"/>
	<path id="Sketch002_w0112" class="st3" d="M48.2,394.8c-3.6-6.2-5.5-13.3-5.5-20.5"/>
	<path id="Sketch002_w0113" class="st3" d="M43.1,396.1c-3.6-6.2-5.5-13.3-5.5-20.5"/>
	<path id="Sketch002_w0114" class="st3" d="M38,397.5c-3.6-6.2-5.5-13.3-5.5-20.5"/>
	<path id="Sketch002_w0115" class="st3" d="M32.9,398.9c-3.6-6.2-5.5-13.3-5.5-20.5"/>
	<path id="Sketch002_w0116" class="st3" d="M27.8,400.2c-3.6-6.2-5.5-13.3-5.5-20.5"/>
	<path id="Sketch002_w0117" class="st3" d="M22.7,401.6c-3.6-6.2-5.5-13.3-5.5-20.5"/>
	<path id="Sketch002_w0118" class="st3" d="M17.6,403c-3.6-6.2-5.5-13.3-5.5-20.5"/>
	<path id="Sketch002_w0119" class="st3" d="M12.5,404.4C8.9,398.1,7,391,7,383.8"/>
	<title>b&apos;Sketch002&apos;</title>
</g>
</svg>
