<?xml version="1.0" encoding="utf-8"?>
<!-- Generator: Adobe Illustrator 22.0.1, SVG Export Plug-In . SVG Version: 6.00 Build 0)  -->
<svg version="1.2" baseProfile="tiny" id="Calque_1"
	 xmlns="http://www.w3.org/2000/svg" xmlns:xlink="http://www.w3.org/1999/xlink" x="0px" y="0px" viewBox="0 0 1842.5 1275.6"
	 xml:space="preserve">
<g id="Sketch005" transform="translate(16.050311,137.223132) scale(1,-1)">
	<path id="Sketch005_w0000" fill="none" stroke="#336699" stroke-width="0.2835" stroke-linecap="square" d="M431.8-500.7H51.1V68.2
		h380.7V-500.7"/>
	<path id="Sketch005_w0001" fill="none" stroke="#336699" stroke-width="0.2835" stroke-linecap="square" d="M51.1-255.9H-5.6v380.7
		h380.7V68.2"/>
	<title>b&apos;Sketch005&apos;</title>
</g>
<g id="Sketch001" transform="translate(16.050311,137.223132) scale(1,-1)">
	<path id="Sketch001_w0000" fill="none" stroke="#0000FF" stroke-width="0.2835" stroke-linecap="square" d="M556-233.1v-26.6h-11.3
		v28.3V66.7H556v-298.1V-233.1l40.4-28.3l0.1,1.7l1,28.3l9.9,280.1L596,49L586.2-231l-0.7-21l11.3-0.4 M597.5-231.4l29-20.8
		l11.2-1.5 M597.4-233.1l39.3-28.2l0.2,1.6l3.7,28.1l26.9-20.5l11-2.6 M640.5-233.3l36.6-28l0.4,1.5l6.4,27.6l24.7-20l10.7-3.6
		 M683.5-233.7l34-27.5l0.5,1.4l9.1,26.8l22.4-19.2l10.3-4.8 M749.5-252.1l10.7,22.8l37.3,79.4l10.3-4.8l-37.3-79.4l-12.1-25.7
		l-0.6-1.3l-31.2,26.7 M556-259.8v-42.5h-1.4v41.1h-23.5v1.4h13.6 M556-231.4l29.4-20.6 M640.7-231.7l32.6,246.8L662,16.7
		l-32.6-246.8l-2.9-22.1 M683.9-232.1l46.4,200.2l-11,2.6l-46.4-200.2l-5.2-22.6 M727.1-232.9l48.6,143L765-86.2l-48.6-143
		l-7.8-22.9 M770.5-234.1l38.5-15.6l-10-10l8-8l11-11l-1-1l-16.6,16.6v-39.1H799v42.5 M807-267.8l36.1,36.1l-8,8l-11,11l1,1
		l30.1-30.1l-1-1l-11,11 M809-249.7l26.1,26.1 M797.6-149.9l-14.1,6.6l0.6,1.3l38.5-18.1l-0.6-1.3l-14.1,6.6 M765-86.2l-14.8,5
		l0.5,1.3l40.3-13.7l-0.5-1.3l-14.8,5 M719.2-29.3l-15.2,3.5l0.3,1.4l41.4-9.6l-0.3-1.4l-15.2,3.5 M662,16.7l-15.5,2l0.2,1.4
		l42.2-5.6l-0.2-1.4l-15.5,2 M596,49l-15.6,0.5l0,1.4l42.5-1.5l0-1.4l-15.6,0.5 M544.7,66.7h-15.6v1.4h42.5v-1.4H556"/>
	<path id="Sketch001_w0001" fill="none" stroke="#0000FF" stroke-width="0.2835" stroke-linecap="square" d="M769.9-235.4l38-15.4"
		/>
	<title>b&apos;Sketch001&apos;</title>
</g>
<g id="Sketch004" transform="translate(16.050311,137.223132) scale(1,-1)">
	<path id="Sketch004_w0000" fill="none" stroke="#336699" stroke-width="0.2835" stroke-linecap="square" d="M474.4,124.8h437.4
		v-625.5H474.4V124.8"/>
	<title>b&apos;Sketch004&apos;</title>
</g>
<g id="Sketch" transform="translate(16.764489,137.230203) scale(1,-1)">
	<path id="Sketch_w0000" fill="none" stroke="#FF0000" stroke-width="0.2835" stroke-linecap="square" d="M556.3-891.8v28.3
		c0,99.4,10.5,195.2,31.6,287.5l1.9,8.1"/>
	<path id="Sketch_w0001" fill="none" stroke="#FF0000" stroke-width="0.2835" stroke-linecap="square" d="M596.8-891.8l1,28.3
		c3.6,102.1,23.1,189.9,58.6,263.5l3.6,7.5"/>
	<path id="Sketch_w0002" fill="none" stroke="#FF0000" stroke-width="0.2835" stroke-linecap="square" d="M637.3-891.8l3.7,28.1
		c13.6,103,39.2,178,76.8,225.2l5.2,6.5"/>
	<path id="Sketch_w0003" fill="none" stroke="#FF0000" stroke-width="0.2835" stroke-linecap="square" d="M677.8-891.8l6.4,27.6
		c20.2,87.2,48.5,145.4,84.9,174.4l6.5,5.2"/>
	<path id="Sketch_w0004" fill="none" stroke="#FF0000" stroke-width="0.2835" stroke-linecap="square" d="M718.3-891.8l9.1,26.8
		c20.3,59.8,47.1,97.7,80.3,113.7l7.5,3.6"/>
	<path id="Sketch_w0005" fill="none" stroke="#FF0000" stroke-width="0.2835" stroke-linecap="square" d="M758.8-891.8l12.1,25.7
		c11.4,24.3,31.7,39.8,60.8,46.4l8.1,1.9"/>
	<path id="Sketch_w0006" fill="none" stroke="#FF0000" stroke-width="0.2835" stroke-linecap="square" d="M799.3-891.8l10,10
		c4.9,4.9,12.9,4.9,17.9,0c1-1,1.9-2.3,2.5-3.6c1.8-3.9,5.8-6.4,10.1-6.4"/>
	<title>b&apos;Sketch&apos;</title>
</g>
<g id="Sketch002" transform="translate(16.764489,137.230203) scale(1,-1)">
	<path id="Sketch002_w0000" fill="none" stroke="#FF0000" stroke-width="0.2835" stroke-linecap="square" d="M608.7-564.5
		c23.5-6.7,46.1-15.8,67.6-27.3l-3.7-6.9c-46.7-87.3-71.7-175.5-74.8-264.6l29-20.8C644.6-705,663-608.6,682.2-595.1
		c20.3-11.4,39.3-24.8,56.8-40l-5.2-5.9C684-698.4,653-772.6,641-863.7l26.9-20.5c23.8,149.9,50.4,230.3,79.7,241.4
		c15.5-14.4,29.5-30.2,42.1-47.2l-6.3-4.7c-48.2-35.5-81.2-91.9-99.2-169.4l24.7-20c37.2,118.9,65.6,181.6,85.1,188.1
		c12.9-18.4,24-38.1,33.1-58.7l-7.2-3.2c-44-19.4-74.9-55.1-92.5-107l22.4-19.2c31.1,70.9,57.8,111.7,80.3,122.4
		c8-19.4,14.2-39.5,18.6-60l-7.7-1.6c-37-7.8-60.4-22-70.1-42.7l27.9-11.3c22.1,23,39.9,35.6,53.3,37.7c2.7-17.6,4.1-35.5,4-53.3
		h-16.2c-4.5,0.6-8.4,3.4-10.4,7.6c-2.9,6.1-10.2,8.7-16.3,5.8c-1.2-0.5-2.2-1.3-3.1-2.1l-9.3-9.3v-63.8H554.9v61.7h-39.1v341.6
		c30.3,0,60.5-4.1,89.8-12.1l-2.1-7.6c-31.5-115-47.2-212.4-47.2-292.2l29.4-20.6C593.6-683.1,601.3-576.6,608.7-564.5"/>
	<title>b&apos;Sketch002&apos;</title>
</g>
<g id="Sketch004_1_" transform="translate(16.764489,137.230203) scale(1,-1)">
	<path id="Sketch004_w0000_1_" fill="none" stroke="#336699" stroke-width="0.2835" stroke-linecap="square" d="M473.7-507.2h439.4
		v-625.5H473.7V-507.2"/>
	<title>b&apos;Sketch004&apos;</title>
</g>
<g id="Sketch003" transform="translate(16.050311,137.223132) scale(1,-1)">
	<path id="Sketch003_w0000" fill="none" stroke="#FF0000" stroke-width="0.2835" stroke-linecap="square" d="M995.7-259.8h11.3V66.7
		h-11.3V-259.8"/>
	<path id="Sketch003_w0001" fill="none" stroke="#FF0000" stroke-width="0.2835" stroke-linecap="square" d="M1036.4-252l11.3-0.4
		l10.6,301L1047,49L1036.4-252"/>
	<path id="Sketch003_w0002" fill="none" stroke="#FF0000" stroke-width="0.2835" stroke-linecap="square" d="M1077.5-252.3l11.2-1.5
		l35.5,268.9l-11.2,1.5L1077.5-252.3"/>
	<path id="Sketch003_w0003" fill="none" stroke="#FF0000" stroke-width="0.2835" stroke-linecap="square" d="M1118.6-252.2l11-2.6
		l51.7,222.9l-11,2.6L1118.6-252.2"/>
	<path id="Sketch003_w0004" fill="none" stroke="#FF0000" stroke-width="0.2835" stroke-linecap="square" d="M1159.6-252.2l10.7-3.6
		l56.4,165.9l-10.7,3.6L1159.6-252.2"/>
	<path id="Sketch003_w0005" fill="none" stroke="#FF0000" stroke-width="0.2835" stroke-linecap="square" d="M1200.5-252.1l10.3-4.8
		l48,102.2l-10.3,4.8L1200.5-252.1"/>
	<path id="Sketch003_w0006" fill="none" stroke="#FF0000" stroke-width="0.2835" stroke-linecap="square" d="M1250-259.8l8-8
		l36.1,36.1l-8,8L1250-259.8"/>
	<title>b&apos;Sketch003&apos;</title>
</g>
<g id="Sketch005_1_" transform="translate(16.050311,137.223132) scale(1,-1)">
	<path id="Sketch005_w0000_1_" fill="none" stroke="#336699" stroke-width="0.2835" stroke-linecap="square" d="M1362.8-500.7H982.1
		V68.2h380.7V-500.7"/>
	<path id="Sketch005_w0001_1_" fill="none" stroke="#336699" stroke-width="0.2835" stroke-linecap="square" d="M982.1-255.9h-56.7
		v380.7h380.7V68.2"/>
	<title>b&apos;Sketch005&apos;</title>
</g>
<g id="Sketch003_1_" transform="translate(16.050311,137.223132) scale(1,-1)">
	<path id="Sketch003_w0000_1_" fill="none" stroke="#FF0000" stroke-width="0.2835" stroke-linecap="square" d="M389.5-889.8v326.5
		h-11.3v-326.5H389.5"/>
	<path id="Sketch003_w0001_1_" fill="none" stroke="#FF0000" stroke-width="0.2835" stroke-linecap="square" d="M348.8-882
		l-10.6,301l-11.3-0.4l10.6-301L348.8-882"/>
	<path id="Sketch003_w0002_1_" fill="none" stroke="#FF0000" stroke-width="0.2835" stroke-linecap="square" d="M307.6-882.3
		l-35.5,268.9l-11.2-1.5l35.5-268.9L307.6-882.3"/>
	<path id="Sketch003_w0003_1_" fill="none" stroke="#FF0000" stroke-width="0.2835" stroke-linecap="square" d="M266.6-882.2
		l-51.7,222.9l-11-2.6l51.7-222.9L266.6-882.2"/>
	<path id="Sketch003_w0004_1_" fill="none" stroke="#FF0000" stroke-width="0.2835" stroke-linecap="square" d="M225.6-882.2
		l-56.4,165.9l-10.7-3.6l56.4-165.9L225.6-882.2"/>
	<path id="Sketch003_w0005_1_" fill="none" stroke="#FF0000" stroke-width="0.2835" stroke-linecap="square" d="M184.6-882.1
		l-48,102.2l-10.3-4.8l48-102.2L184.6-882.1"/>
	<path id="Sketch003_w0006_1_" fill="none" stroke="#FF0000" stroke-width="0.2835" stroke-linecap="square" d="M135.2-889.8
		l-36.1,36.1l-8-8l36.1-36.1L135.2-889.8"/>
	<title>b&apos;Sketch003&apos;</title>
</g>
<g id="Sketch005_2_" transform="translate(16.050311,137.223132) scale(1,-1)">
	<path id="Sketch005_w0000_2_" fill="none" stroke="#336699" stroke-width="0.2835" stroke-linecap="square" d="M22.4-1130.7v568.9
		h380.7v-568.9H22.4"/>
	<path id="Sketch005_w0001_2_" fill="none" stroke="#336699" stroke-width="0.2835" stroke-linecap="square" d="M79.1-561.8v56.7
		h380.7v-380.7h-56.7"/>
	<title>b&apos;Sketch005&apos;</title>
</g>
<g id="Sketch002_1_" transform="translate(16.764489,137.230203) scale(1,-1)">
	<path id="Sketch002_w0000_1_" fill="none" stroke="#0000FF" stroke-width="0.2835" stroke-linecap="square" d="M1063.7-564.5
		c23.5-6.7,46.1-15.8,67.6-27.3l-3.7-6.9c-46.7-87.3-71.7-175.5-74.8-264.6l29-20.8c17.7,179.3,36.2,275.7,55.4,289.2
		c20.3-11.4,39.3-24.8,56.8-40l-5.2-5.9c-49.9-57.4-80.9-131.6-92.9-222.6l26.9-20.5c23.8,149.9,50.4,230.3,79.7,241.4
		c15.5-14.4,29.5-30.2,42.1-47.2l-6.3-4.7c-48.2-35.5-81.2-91.9-99.2-169.4l24.7-20c37.2,118.9,65.6,181.6,85.1,188.1
		c12.9-18.4,24-38.1,33.1-58.7l-7.2-3.2c-44-19.4-74.9-55.1-92.5-107l22.4-19.2c31.1,70.9,57.8,111.7,80.3,122.4
		c8-19.4,14.2-39.5,18.6-60l-7.7-1.6c-37-7.8-60.4-22-70.1-42.7l27.9-11.3c22.1,23,39.9,35.6,53.3,37.7c2.7-17.6,4.1-35.5,4-53.3
		h-16.2c-4.5,0.6-8.4,3.4-10.4,7.6c-2.9,6.1-10.2,8.7-16.3,5.8c-1.2-0.5-2.2-1.3-3.1-2.1l-9.3-9.3v-63.8h-245.8v61.7h-39.1v341.6
		c30.3,0,60.5-4.1,89.8-12.1l-2.1-7.6c-31.5-115-47.2-212.4-47.2-292.2l29.4-20.6C1048.6-683.1,1056.3-576.6,1063.7-564.5"/>
	<title>b&apos;Sketch002&apos;</title>
</g>
<g id="Sketch004_2_" transform="translate(16.764489,137.230203) scale(1,-1)">
	<path id="Sketch004_w0000_2_" fill="none" stroke="#336699" stroke-width="0.2835" stroke-linecap="square" d="M927.7-507.2h439.4
		v-625.5H927.7V-507.2"/>
	<title>b&apos;Sketch004&apos;</title>
</g>
<g id="Sketch004_3_" transform="translate(16.764489,137.230203) scale(1,-1)">
	<path id="Sketch004_w0000_3_" fill="none" stroke="#336699" stroke-width="0.2835" stroke-linecap="square" d="M1375.7,124.8h439.4
		v-625.5h-439.4V124.8"/>
	<title>b&apos;Sketch004&apos;</title>
</g>
<g id="Sketch004_4_" transform="translate(16.764489,137.230203) scale(1,-1)">
	<path id="Sketch004_w0000_4_" fill="none" stroke="#336699" stroke-width="0.2835" stroke-linecap="square" d="M1375.7-505.2h439.4
		v-625.5h-439.4V-505.2"/>
	<title>b&apos;Sketch004&apos;</title>
</g>
<g id="Sketch003_2_" transform="translate(-9.232937,116.232777) scale(1,-1)">
	<path id="Sketch003_w0000_2_" fill="none" stroke="#0000FF" stroke-width="0.2835" stroke-linecap="square" d="M1772.2-1118.8
		l0.1,11.3l-326.5,3.2l-0.1-11.3L1772.2-1118.8"/>
	<path id="Sketch003_w0001_2_" fill="none" stroke="#0000FF" stroke-width="0.2835" stroke-linecap="square" d="M1765.3-1099.9
		l0,11.3l-301.2-0.6l0-11.3L1765.3-1099.9"/>
	<path id="Sketch003_w0002_2_" fill="none" stroke="#0000FF" stroke-width="0.2835" stroke-linecap="square" d="M1753.7-1084.6
		l0,11.3l-271.3-0.4l0-11.3L1753.7-1084.6"/>
	<path id="Sketch003_w0003_2_" fill="none" stroke="#0000FF" stroke-width="0.2835" stroke-linecap="square" d="M1726.4-1068.6
		l0,11.3l-228.8-0.9l0-11.3L1726.4-1068.6"/>
	<path id="Sketch003_w0004_2_" fill="none" stroke="#0000FF" stroke-width="0.2835" stroke-linecap="square" d="M1708-1054l0,11.3
		l-175.3-0.1l0-11.3L1708-1054"/>
	<path id="Sketch003_w0005_2_" fill="none" stroke="#0000FF" stroke-width="0.2835" stroke-linecap="square" d="M1676.7-1037.4
		l-0.1,11.3l-113-0.9l0.1-11.3L1676.7-1037.4"/>
	<path id="Sketch003_w0006_2_" fill="none" stroke="#0000FF" stroke-width="0.2835" stroke-linecap="square" d="M1649.5-1023.7
		l-0.1,11.3l-51-0.6l0.1-11.3L1649.5-1023.7"/>
	<title>b&apos;Sketch003&apos;</title>
</g>
</svg>
