<?xml version="1.0"?>
<!DOCTYPE svg PUBLIC "-//W3C//DTD SVG 1.1//EN" "http://www.w3.org/Graphics/SVG/1.1/DTD/svg11.dtd">
<svg width="157.39950467161748mm" height="223.76626479747972mm" viewBox="0 0 157.39950467161748 223.76626479747972" xmlns="http://www.w3.org/2000/svg" version="1.1">
<g id="Sketch001" transform="translate(16.050311,137.223132) scale(1,-1)">
<path id="Sketch001_w0000"  d="M 14.285714285714288 9.389672219213379 L 14.285714285714286 2.9540814239226165e-12 L 10.285714285714286 0.0 L 10.285714285714286 10.000000000000004 L 10.285714285714286 115.18 L 14.285714285714286 115.18 L 14.285714285714286 10.0 L 14.285714285714288 9.389672219213379 L 28.550450787124053 -0.5956433317705041 L 28.571428571428573 2.9558577807620168e-12 L 28.923397363939348 9.993803978921065 L 32.40296084670188 108.79255011453468 L 28.405439255133455 108.93333763153903 L 24.925875772370922 10.134591495925415 L 24.66524804867739 2.734326365927975 L 28.662769640245813 2.593538848923623 M 28.923397363939348 9.993803978921065 L 39.171316188101734 2.643612892791402 L 43.13693794907367 2.120311785487243 M 28.902260829246316 9.393653087676167 L 42.78296724811537 -0.5621092812254292 L 42.85714285714286 2.9558577807620168e-12 L 44.16539562540288 9.914054402429915 L 53.65451682825322 2.6648967987065113 L 57.55120307018893 1.7616602118097076 M 44.08996940516309 9.342467879573736 L 57.018950504094995 -0.5345501959847765 L 57.142857142857146 2.9558577807620168e-12 L 59.4009486100985 9.741715604839413 L 68.11589530574817 2.683086189728831 L 71.90302493286741 1.3955889324907296 M 59.275378703828856 9.19998984520961 L 71.25705451453967 -0.5045112003355328 L 71.42857142857143 2.9558577807620168e-12 L 74.64731457166579 9.467824067798425 L 82.561929102062 2.696849699786341 L 86.18216699301685 0.9957096077025593 M 82.561929102062 2.696849699786341 L 86.34689805353919 10.751734819471427 L 99.50946951603743 38.763325500734545 L 103.12970740699227 37.06218540865077 L 89.96713594449403 9.050594727387647 L 85.71428571428572 2.9558577807620168e-12 L 85.49374693850433 -0.4693339697411781 L 74.47401699881905 8.958075119793989 M 14.285714285714286 2.9540814239226165e-12 L 14.285714285714286 -14.999999999997044 L 13.785714285714285 -14.999999999997044 L 13.785714285714285 -0.5 L 5.492821066901541 -0.5 L 5.4928210669015405 0.0 L 10.285714285714286 0.0 M 14.285714285714286 10.0 L 24.66524804867739 2.734326365927975 M 44.16539562540288 9.914054402429915 L 55.655779689033984 96.98919421897142 L 51.690157928062035 97.51249532627558 L 40.19977386443093 10.437355509734077 L 39.171316188101734 2.643612892791402 M 59.4009486100985 9.741715604839413 L 75.7743698390703 80.37889545552893 L 71.87768359713459 81.28213204242573 L 55.5042623681628 10.64495219173623 L 53.65451682825322 2.6648967987065113 M 74.64731457166579 9.467824067798425 L 91.80321552436351 59.93132634916238 L 88.01608589724427 61.218823606400484 L 70.86018494454655 10.755321325036535 L 68.11589530574817 2.683086189728831 M 89.96713594449403 9.050594727387647 L 103.53553390593272 3.5355339059327378 L 100.0 2.9549696023423166e-12 L 102.82842712474502 -2.828427124744412 L 106.71751442126941 -6.717514421272041 L 106.36396103067598 -7.071067811865168 L 100.5 -1.2071067811843026 L 100.5 -14.999999999997046 L 100.0 -14.999999999997044 L 100.0 2.9549696023423166e-12 M 102.82842712474502 -2.828427124744412 L 115.56342025391855 9.906566004418528 L 112.73499312917353 12.734993129165895 L 108.84590583264914 16.624080425693524 L 109.19945922324256 16.977633816286648 L 119.80606094103636 6.371032098484026 L 119.45250755044295 6.017478707890899 L 115.56342025391855 9.906566004418528 M 103.53553390593272 3.5355339059327378 L 112.73499312917353 12.734993129165895 M 99.50946951603743 38.763325500734545 L 94.53164241597452 41.10239312734974 L 94.74428492748498 41.5549228637191 L 108.32017701856566 35.17564751840493 L 108.10753450705519 34.72311778203557 L 103.12970740699227 37.06218540865077 M 88.01608589724427 61.218823606400484 L 82.8087826599553 62.98913233510288 L 82.96971981711006 63.46252353849278 L 97.17145591880724 58.634408823849895 L 97.01051876165246 58.161017620459994 L 91.80321552436351 59.93132634916238 M 71.87768359713459 81.28213204242573 L 66.519740014473 82.52408234940884 L 66.6326445878351 83.0111681296508 L 81.245217995094 79.62403092878779 L 81.1323134217319 79.13694514854583 L 75.7743698390703 80.37889545552893 M 51.690157928062035 97.51249532627558 L 46.23742800672561 98.2320343488188 L 46.30284064513863 98.7277370689403 L 61.17392224878343 96.76535791654969 L 61.108509610370405 96.2696551964282 L 55.655779689033984 96.98919421897142 M 28.405439255133455 108.93333763153903 L 22.908847066726878 109.12692046742 L 22.92644550635241 109.62661066636606 L 37.91715147473402 109.09865747760006 L 37.89955303510847 108.59896727865369 L 32.40296084670188 108.79255011453468 M 10.285714285714286 115.18 L 4.7857142857142865 115.18 L 4.7857142857142865 115.68 L 19.78571428571429 115.68 L 19.78571428571429 115.18 L 14.285714285714286 115.18 " stroke="#000000" stroke-width="0.35 px" style="stroke-width:0.35;stroke-miterlimit:4;stroke-dasharray:none;stroke-linecap:square;fill:none;fill-opacity:1;fill-rule: evenodd"/>
<path id="Sketch001_w0001"  d="M 89.75419204139027 8.597423592187514 L 103.15178770103739 3.1517877010377244 " stroke="#000000" stroke-width="0.35 px" style="stroke-width:0.35;stroke-miterlimit:4;stroke-dasharray:none;stroke-linecap:square;fill:none;fill-opacity:1;fill-rule: evenodd"/>
<title>b'Sketch001'</title>
</g>
<g id="Sketch004" transform="translate(16.050311,137.223132) scale(1,-1)">
<path id="Sketch004_w0000"  d="M -14.507178933098459 135.68 L 139.80606094103635 135.68 L 139.80606094103635 -84.99999999999704 L -14.507178933098459 -84.99999999999704 L -14.507178933098459 135.68 " stroke="#000000" stroke-width="0.35 px" style="stroke-width:0.35;stroke-miterlimit:4;stroke-dasharray:none;stroke-linecap:square;fill:none;fill-opacity:1;fill-rule: evenodd"/>
<title>b'Sketch004'</title>
</g>
</svg>