999
FreeCAD v0.20 29603 (Git)
  0
SECTION
  2
HEADER
  9
$ACADVER
  1
AC1014
  9
$ACADMAINTVER
 70
     9
  9
$DWGCODEPAGE
  3
ANSI_1252
  9
$TEXTSTYLE
  7
STANDARD
  9
$DIMSTYLE
  2
STANDARD
  9
$DIMTXSTY
  7
STANDARD
  9
$CMLSTYLE
  2
STANDARD
  9
$LUNITS
 70
2
  9
$INSUNITS
 70
4
  9
$PEXTMAX
 10
50
 20
50
 30
50
  9
$PEXTMIN
 10
0
 20
0
 30
0
  9
$HANDSEED
  5
FFFF
  0
ENDSEC
  0
SECTION
  2
CLASSES
  0
CLASS
  1
ACDBDICTIONARYWDFLT
  2
AcDbDictionaryWithDefault
  3
ObjectDBX Classes
 90
        0
280
     0
281
     0
  0
CLASS
  1
XRECORD
  2
AcDbXrecord
  3
ObjectDBX Classes
 90
        0
280
     0
281
     0
  0
CLASS
  1
LWPOLYLINE
  2
AcDbPolyline
  3
ObjectDBX Classes
 90
        0
280
     0
281
     1
  0
ENDSEC
  0
SECTION
  2
TABLES
  0
TABLE
  2
VPORT
  5
20
330
0
100
AcDbSymbolTable
 70
     1
  0
VPORT
  5
21
330
20
100
AcDbSymbolTableRecord
100
AcDbViewportTableRecord
  2
*ACTIVE
 70
     0
  0
ENDTAB
  0
TABLE
  2
LTYPE
  5
22
330
0
100
AcDbSymbolTable
 70
     1
  0
LTYPE
  5
23
330
21
100
AcDbSymbolTableRecord
100
AcDbLinetypeTableRecord
  2
BYBLOCK
 70
     0
  3

 72
    65
 73
     0
 40
0.0
  0
LTYPE
  5
24
330
21
100
AcDbSymbolTableRecord
100
AcDbLinetypeTableRecord
  2
BYLAYER
 70
     0
  3

 72
    65
 73
     0
 40
0.0
  0
LTYPE
  5
25
330
21
100
AcDbSymbolTableRecord
100
AcDbLinetypeTableRecord
  2
CONTINUOUS
 70
     0
  3
Solid line
 72
    65
 73
     0
 40
0.0
  0
ENDTAB
  0
TABLE
  2
LAYER
  5
BC0
330
0
100
AcDbSymbolTable
 70
11
  0
LAYER
  5
BC1
330
BC0
100
AcDbSymbolTableRecord
100
AcDbLayerTableRecord
  2
0
 70
   0
 62
   7
  6
CONTINUOUS
  0
LAYER
  5
BC2
330
BC0
100
AcDbSymbolTableRecord
100
AcDbLayerTableRecord
  2
none
 70
    0
 62
    7
  6
CONTINUOUS
  0
LAYER
  5
BC3
330
BC0
100
AcDbSymbolTableRecord
100
AcDbLayerTableRecord
  2
Part__Mirroring002
 70
    0
 62
    7
  6
CONTINUOUS
  0
LAYER
  5
BC4
330
BC0
100
AcDbSymbolTableRecord
100
AcDbLayerTableRecord
  2
Part__Mirroring001
 70
    0
 62
    7
  6
CONTINUOUS
  0
LAYER
  5
BC5
330
BC0
100
AcDbSymbolTableRecord
100
AcDbLayerTableRecord
  2
Part__Mirroring
 70
    0
 62
    7
  6
CONTINUOUS
  0
LAYER
  5
BC6
330
BC0
100
AcDbSymbolTableRecord
100
AcDbLayerTableRecord
  2
Sketch007
 70
    0
 62
    7
  6
CONTINUOUS
  0
LAYER
  5
BC7
330
BC0
100
AcDbSymbolTableRecord
100
AcDbLayerTableRecord
  2
Sketch004
 70
    0
 62
    7
  6
CONTINUOUS
  0
LAYER
  5
BC8
330
BC0
100
AcDbSymbolTableRecord
100
AcDbLayerTableRecord
  2
Sketch006
 70
    0
 62
    7
  6
CONTINUOUS
  0
LAYER
  5
BC9
330
BC0
100
AcDbSymbolTableRecord
100
AcDbLayerTableRecord
  2
Sketch005
 70
    0
 62
    7
  6
CONTINUOUS
  0
LAYER
  5
BCA
330
BC0
100
AcDbSymbolTableRecord
100
AcDbLayerTableRecord
  2
Sketch003
 70
    0
 62
    7
  6
CONTINUOUS
  0
LAYER
  5
BCB
330
BC0
100
AcDbSymbolTableRecord
100
AcDbLayerTableRecord
  2
Sketch002
 70
    0
 62
    7
  6
CONTINUOUS
  0
ENDTAB
  0
TABLE
  2
STYLE
  5
70
330
0
100
AcDbSymbolTable
 70
     2
  0
STYLE
  5
71
330
70
100
AcDbSymbolTableRecord
100
AcDbTextStyleTableRecord
  2
STANDARD
 70
     0
 40
0.0
 41
1.0
 50
0.0
 71
     0
 42
2.5
  3
arial.ttf
  4

  0
STYLE
  5
72
330
70
100
AcDbSymbolTableRecord
100
AcDbTextStyleTableRecord
  2
ANNOTATIVE
 70
     0
 40
0.0
 41
1.0
 50
0.0
 71
     0
 42
2.5
  3
arial.ttf
  4

  0
ENDTAB
  0
TABLE
  2
VIEW
  5
73
330
0
100
AcDbSymbolTable
 70
     0
  0
ENDTAB
  0
TABLE
  2
UCS
  5
74
330
0
100
AcDbSymbolTable
 70
     0
  0
ENDTAB
  0
TABLE
  2
APPID
  5
75
330
0
100
AcDbSymbolTable
 70
     2
  0
APPID
  5
76
330
75
100
AcDbSymbolTableRecord
100
AcDbRegAppTableRecord
  2
ACAD
 70
     0
  0
APPID
  5
77
330
75
100
AcDbSymbolTableRecord
100
AcDbRegAppTableRecord
  2
ACADANNOTATIVE
 70
     0
  0
ENDTAB
  0
TABLE
  2
DIMSTYLE
  5
78
330
0
100
AcDbSymbolTable
 70
     2
  0
DIMSTYLE
105
79
330
78
100
AcDbSymbolTableRecord
100
AcDbDimStyleTableRecord
  2
STANDARD
 70
     0
  3

  4

  5

  6

  7

 40
0.0
 41
2.5
 42
0.625
 43
3.75
 44
1.25
 45
0.0
 46
0.0
 47
0.0
 48
0.0
140
2.5
141
2.5
142
0.0
143
0.03937007874016
144
1.0
145
0.0
146
1.0
147
0.625
 71
     0
 72
     0
 73
     0
 74
     0
 75
     0
 76
     0
 77
     1
 78
     8
170
     0
171
     3
172
     1
173
     0
174
     0
175
     0
176
     0
177
     0
178
     0
270
     2
271
     2
272
     2
273
     2
274
     3
340
71
275
     0
280
     0
281
     0
282
     0
283
     0
284
     8
285
     0
286
     0
287
     3
288
     0
  0
ENDTAB
  0
TABLE
  2
BLOCK_RECORD
  5
A01
330
0
100
AcDbSymbolTable
  70
5
  0
BLOCK_RECORD
  5
A02
330
A01
100
AcDbSymbolTableRecord
100
AcDbBlockTableRecord
  2
*MODEL_SPACE
  0
BLOCK_RECORD
  5
A03
330
A01
100
AcDbSymbolTableRecord
100
AcDbBlockTableRecord
  2
*PAPER_SPACE
  0
ENDTAB
  0
ENDSEC
  0
SECTION
  2
BLOCKS
  0
BLOCK
  5
A04
330
A02
100
AcDbEntity
  8
0
100
AcDbBlockBegin
  2
*MODEL_SPACE
 70
   0
 10
0
 20
0
 30
0
  3
*MODEL_SPACE
  1
 
  0
ENDBLK
  5
A05
330
A02
100
AcDbEntity
  8
0
100
AcDbBlockEnd
  0
BLOCK
  5
A06
330
A03
100
AcDbEntity
 67
1
  8
0
100
AcDbBlockBegin
  2
*PAPER_SPACE
 70
   0
 10
0
 20
0
 30
0
  3
*PAPER_SPACE
  1
 
  0
ENDBLK
  5
A07
330
A03
100
AcDbEntity
 67
    1
  8
0
100
AcDbBlockEnd
  0
ENDSEC
  0
SECTION
  2
ENTITIES
  0
ARC
  5
A08
330
A02
100
AcDbEntity
  8
Part__Mirroring002
100
AcDbCircle
 10
-17.7
 20
15
 30
10
 40
0.8
100
AcDbArc
 50
-35.9973
 51
-144.003
  0
ARC
  5
A09
330
A02
100
AcDbEntity
  8
Part__Mirroring002
100
AcDbCircle
 10
-16.7
 20
14.2735
 30
10
 40
0.436026
100
AcDbArc
 50
144.003
 51
-119.416
  0
ARC
  5
A0A
330
A02
100
AcDbEntity
  8
Part__Mirroring002
100
AcDbCircle
 10
-17.7
 20
12.5
 30
10
 40
1.6
100
AcDbArc
 50
119.416
 51
60.5836
  0
ARC
  5
A0B
330
A02
100
AcDbEntity
  8
Part__Mirroring002
100
AcDbCircle
 10
-18.7
 20
14.2735
 30
10
 40
0.436026
100
AcDbArc
 50
-60.5836
 51
35.9973
  0
ARC
  5
A0C
330
A02
100
AcDbEntity
  8
Part__Mirroring002
100
AcDbCircle
 10
-21.3099
 20
14.9994
 30
10
 40
0.8
100
AcDbArc
 50
-35.9772
 51
-144.023
  0
ARC
  5
A0D
330
A02
100
AcDbEntity
  8
Part__Mirroring002
100
AcDbCircle
 10
-20.3099
 20
14.2734
 30
10
 40
0.435711
100
AcDbArc
 50
144.023
 51
-119.421
  0
ARC
  5
A0E
330
A02
100
AcDbEntity
  8
Part__Mirroring002
100
AcDbCircle
 10
-21.3099
 20
12.5003
 30
10
 40
1.6
100
AcDbArc
 50
119.421
 51
60.5786
  0
ARC
  5
A0F
330
A02
100
AcDbEntity
  8
Part__Mirroring002
100
AcDbCircle
 10
-22.3099
 20
14.2734
 30
10
 40
0.435711
100
AcDbArc
 50
-60.5786
 51
35.9772
  0
ARC
  5
A10
330
A02
100
AcDbEntity
  8
Part__Mirroring002
100
AcDbCircle
 10
-24.9195
 20
15.0004
 30
10
 40
0.8
100
AcDbArc
 50
-35.9973
 51
-144.003
  0
ARC
  5
A11
330
A02
100
AcDbEntity
  8
Part__Mirroring002
100
AcDbCircle
 10
-23.9195
 20
14.274
 30
10
 40
0.436026
100
AcDbArc
 50
144.003
 51
-119.416
  0
ARC
  5
A12
330
A02
100
AcDbEntity
  8
Part__Mirroring002
100
AcDbCircle
 10
-24.9195
 20
12.5004
 30
10
 40
1.6
100
AcDbArc
 50
119.416
 51
60.5836
  0
ARC
  5
A13
330
A02
100
AcDbEntity
  8
Part__Mirroring002
100
AcDbCircle
 10
-25.9195
 20
14.274
 30
10
 40
0.436026
100
AcDbArc
 50
-60.5836
 51
35.9973
  0
ARC
  5
A14
330
A02
100
AcDbEntity
  8
Part__Mirroring002
100
AcDbCircle
 10
-28.529
 20
15.002
 30
10
 40
0.8
100
AcDbArc
 50
-36.0309
 51
-143.969
  0
ARC
  5
A15
330
A02
100
AcDbEntity
  8
Part__Mirroring002
100
AcDbCircle
 10
-27.529
 20
14.2747
 30
10
 40
0.436553
100
AcDbArc
 50
143.969
 51
-119.408
  0
ARC
  5
A16
330
A02
100
AcDbEntity
  8
Part__Mirroring002
100
AcDbCircle
 10
-28.529
 20
12.5005
 30
10
 40
1.6
100
AcDbArc
 50
119.408
 51
60.592
  0
ARC
  5
A17
330
A02
100
AcDbEntity
  8
Part__Mirroring002
100
AcDbCircle
 10
-29.529
 20
14.2747
 30
10
 40
0.436553
100
AcDbArc
 50
-60.592
 51
36.0309
  0
ARC
  5
A18
330
A02
100
AcDbEntity
  8
Part__Mirroring002
100
AcDbCircle
 10
-32.139
 20
15.0009
 30
10
 40
0.8
100
AcDbArc
 50
-35.9973
 51
-144.003
  0
ARC
  5
A19
330
A02
100
AcDbEntity
  8
Part__Mirroring002
100
AcDbCircle
 10
-31.139
 20
14.2744
 30
10
 40
0.436026
100
AcDbArc
 50
144.003
 51
-119.416
  0
ARC
  5
A1A
330
A02
100
AcDbEntity
  8
Part__Mirroring002
100
AcDbCircle
 10
-32.139
 20
12.5009
 30
10
 40
1.6
100
AcDbArc
 50
119.416
 51
60.5836
  0
ARC
  5
A1B
330
A02
100
AcDbEntity
  8
Part__Mirroring002
100
AcDbCircle
 10
-33.139
 20
14.2744
 30
10
 40
0.436026
100
AcDbArc
 50
-60.5836
 51
35.9973
  0
ARC
  5
A1C
330
A02
100
AcDbEntity
  8
Part__Mirroring002
100
AcDbCircle
 10
-35.7485
 20
15.0025
 30
10
 40
0.8
100
AcDbArc
 50
-36.0328
 51
-143.967
  0
ARC
  5
A1D
330
A02
100
AcDbEntity
  8
Part__Mirroring002
100
AcDbCircle
 10
-34.7485
 20
14.2751
 30
10
 40
0.436583
100
AcDbArc
 50
143.967
 51
-119.408
  0
ARC
  5
A1E
330
A02
100
AcDbEntity
  8
Part__Mirroring002
100
AcDbCircle
 10
-35.7485
 20
12.5009
 30
10
 40
1.6
100
AcDbArc
 50
119.408
 51
60.5924
  0
ARC
  5
A1F
330
A02
100
AcDbEntity
  8
Part__Mirroring002
100
AcDbCircle
 10
-36.7485
 20
14.2751
 30
10
 40
0.436583
100
AcDbArc
 50
-60.5924
 51
36.0328
  0
ARC
  5
A20
330
A02
100
AcDbEntity
  8
Part__Mirroring002
100
AcDbCircle
 10
-39.3583
 20
15.0024
 30
10
 40
0.8
100
AcDbArc
 50
-36.0248
 51
-143.975
  0
ARC
  5
A21
330
A02
100
AcDbEntity
  8
Part__Mirroring002
100
AcDbCircle
 10
-38.3583
 20
14.2752
 30
10
 40
0.436458
100
AcDbArc
 50
143.975
 51
-119.41
  0
ARC
  5
A22
330
A02
100
AcDbEntity
  8
Part__Mirroring002
100
AcDbCircle
 10
-39.3583
 20
12.5012
 30
10
 40
1.6
100
AcDbArc
 50
119.41
 51
60.5905
  0
ARC
  5
A23
330
A02
100
AcDbEntity
  8
Part__Mirroring002
100
AcDbCircle
 10
-40.3583
 20
14.2752
 30
10
 40
0.436458
100
AcDbArc
 50
-60.5905
 51
36.0248
  0
ARC
  5
A24
330
A02
100
AcDbEntity
  8
Part__Mirroring002
100
AcDbCircle
 10
-42.9681
 20
15.0022
 30
10
 40
0.8
100
AcDbArc
 50
-36.0138
 51
-143.986
  0
ARC
  5
A25
330
A02
100
AcDbEntity
  8
Part__Mirroring002
100
AcDbCircle
 10
-41.9681
 20
14.2753
 30
10
 40
0.436285
100
AcDbArc
 50
143.986
 51
-119.412
  0
ARC
  5
A26
330
A02
100
AcDbEntity
  8
Part__Mirroring002
100
AcDbCircle
 10
-42.9681
 20
12.5014
 30
10
 40
1.6
100
AcDbArc
 50
119.412
 51
60.5877
  0
ARC
  5
A27
330
A02
100
AcDbEntity
  8
Part__Mirroring002
100
AcDbCircle
 10
-43.9681
 20
14.2753
 30
10
 40
0.436285
100
AcDbArc
 50
-60.5877
 51
36.0138
  0
ARC
  5
A28
330
A02
100
AcDbEntity
  8
Part__Mirroring002
100
AcDbCircle
 10
-46.578
 20
15.0017
 30
10
 40
0.8
100
AcDbArc
 50
-35.9973
 51
-144.003
  0
ARC
  5
A29
330
A02
100
AcDbEntity
  8
Part__Mirroring002
100
AcDbCircle
 10
-45.578
 20
14.2752
 30
10
 40
0.436026
100
AcDbArc
 50
144.003
 51
-119.416
  0
ARC
  5
A2A
330
A02
100
AcDbEntity
  8
Part__Mirroring002
100
AcDbCircle
 10
-46.578
 20
12.5017
 30
10
 40
1.6
100
AcDbArc
 50
119.416
 51
60.5836
  0
ARC
  5
A2B
330
A02
100
AcDbEntity
  8
Part__Mirroring002
100
AcDbCircle
 10
-47.578
 20
14.2752
 30
10
 40
0.436026
100
AcDbArc
 50
-60.5836
 51
35.9973
  0
ARC
  5
A2C
330
A02
100
AcDbEntity
  8
Part__Mirroring002
100
AcDbCircle
 10
-50.1876
 20
15.0026
 30
10
 40
0.8
100
AcDbArc
 50
-36.0144
 51
-143.986
  0
ARC
  5
A2D
330
A02
100
AcDbEntity
  8
Part__Mirroring002
100
AcDbCircle
 10
-49.1876
 20
14.2757
 30
10
 40
0.436294
100
AcDbArc
 50
143.986
 51
-119.412
  0
ARC
  5
A2E
330
A02
100
AcDbEntity
  8
Part__Mirroring002
100
AcDbCircle
 10
-50.1876
 20
12.5019
 30
10
 40
1.6
100
AcDbArc
 50
119.412
 51
60.5879
  0
ARC
  5
A2F
330
A02
100
AcDbEntity
  8
Part__Mirroring002
100
AcDbCircle
 10
-51.1876
 20
14.2757
 30
10
 40
0.436294
100
AcDbArc
 50
-60.5879
 51
36.0144
  0
LINE
  5
A30
330
A02
100
AcDbEntity
  8
Part__Mirroring001
100
AcDbLine
 10
-16.8
 20
165
 30
10
 11
-16.8
 21
172.5
 31
10
  0
LINE
  5
A31
330
A02
100
AcDbEntity
  8
Part__Mirroring001
100
AcDbLine
 10
-20.4
 20
165
 30
10
 11
-20.4
 21
172.5
 31
10
  0
LINE
  5
A32
330
A02
100
AcDbEntity
  8
Part__Mirroring001
100
AcDbLine
 10
-24
 20
165
 30
10
 11
-24
 21
172.5
 31
10
  0
LINE
  5
A33
330
A02
100
AcDbEntity
  8
Part__Mirroring001
100
AcDbLine
 10
-27.6
 20
165
 30
10
 11
-27.6
 21
172.5
 31
10
  0
LINE
  5
A34
330
A02
100
AcDbEntity
  8
Part__Mirroring001
100
AcDbLine
 10
-31.2
 20
165
 30
10
 11
-31.2
 21
172.5
 31
10
  0
LINE
  5
A35
330
A02
100
AcDbEntity
  8
Part__Mirroring001
100
AcDbLine
 10
-34.8
 20
165
 30
10
 11
-34.8
 21
172.5
 31
10
  0
LINE
  5
A36
330
A02
100
AcDbEntity
  8
Part__Mirroring001
100
AcDbLine
 10
-38.4
 20
165
 30
10
 11
-38.4
 21
172.5
 31
10
  0
LINE
  5
A37
330
A02
100
AcDbEntity
  8
Part__Mirroring001
100
AcDbLine
 10
-42
 20
165
 30
10
 11
-42
 21
172.5
 31
10
  0
LINE
  5
A38
330
A02
100
AcDbEntity
  8
Part__Mirroring001
100
AcDbLine
 10
-45.6
 20
165
 30
10
 11
-45.6
 21
172.5
 31
10
  0
LINE
  5
A39
330
A02
100
AcDbEntity
  8
Part__Mirroring001
100
AcDbLine
 10
-49.2
 20
165
 30
10
 11
-49.2
 21
172.5
 31
10
  0
LINE
  5
A3A
330
A02
100
AcDbEntity
  8
Part__Mirroring001
100
AcDbLine
 10
-16.8
 20
235
 30
10
 11
-16.8
 21
242.5
 31
10
  0
LINE
  5
A3B
330
A02
100
AcDbEntity
  8
Part__Mirroring001
100
AcDbLine
 10
-20.4
 20
235
 30
10
 11
-20.4
 21
242.5
 31
10
  0
LINE
  5
A3C
330
A02
100
AcDbEntity
  8
Part__Mirroring001
100
AcDbLine
 10
-24
 20
235
 30
10
 11
-24
 21
242.5
 31
10
  0
LINE
  5
A3D
330
A02
100
AcDbEntity
  8
Part__Mirroring001
100
AcDbLine
 10
-27.6
 20
235
 30
10
 11
-27.6
 21
242.5
 31
10
  0
LINE
  5
A3E
330
A02
100
AcDbEntity
  8
Part__Mirroring001
100
AcDbLine
 10
-31.2
 20
235
 30
10
 11
-31.2
 21
242.5
 31
10
  0
LINE
  5
A3F
330
A02
100
AcDbEntity
  8
Part__Mirroring001
100
AcDbLine
 10
-34.8
 20
235
 30
10
 11
-34.8
 21
242.5
 31
10
  0
LINE
  5
A40
330
A02
100
AcDbEntity
  8
Part__Mirroring001
100
AcDbLine
 10
-38.4
 20
235
 30
10
 11
-38.4
 21
242.5
 31
10
  0
LINE
  5
A41
330
A02
100
AcDbEntity
  8
Part__Mirroring001
100
AcDbLine
 10
-42
 20
235
 30
10
 11
-42
 21
242.5
 31
10
  0
LINE
  5
A42
330
A02
100
AcDbEntity
  8
Part__Mirroring001
100
AcDbLine
 10
-45.6
 20
235
 30
10
 11
-45.6
 21
242.5
 31
10
  0
LINE
  5
A43
330
A02
100
AcDbEntity
  8
Part__Mirroring001
100
AcDbLine
 10
-49.2
 20
235
 30
10
 11
-49.2
 21
242.5
 31
10
  0
LINE
  5
A44
330
A02
100
AcDbEntity
  8
Part__Mirroring001
100
AcDbLine
 10
-16.8
 20
305
 30
10
 11
-16.8
 21
312.5
 31
10
  0
LINE
  5
A45
330
A02
100
AcDbEntity
  8
Part__Mirroring001
100
AcDbLine
 10
-20.4
 20
305
 30
10
 11
-20.4
 21
312.5
 31
10
  0
LINE
  5
A46
330
A02
100
AcDbEntity
  8
Part__Mirroring001
100
AcDbLine
 10
-24
 20
305
 30
10
 11
-24
 21
312.5
 31
10
  0
LINE
  5
A47
330
A02
100
AcDbEntity
  8
Part__Mirroring001
100
AcDbLine
 10
-27.6
 20
305
 30
10
 11
-27.6
 21
312.5
 31
10
  0
LINE
  5
A48
330
A02
100
AcDbEntity
  8
Part__Mirroring001
100
AcDbLine
 10
-31.2
 20
305
 30
10
 11
-31.2
 21
312.5
 31
10
  0
LINE
  5
A49
330
A02
100
AcDbEntity
  8
Part__Mirroring001
100
AcDbLine
 10
-34.8
 20
305
 30
10
 11
-34.8
 21
312.5
 31
10
  0
LINE
  5
A4A
330
A02
100
AcDbEntity
  8
Part__Mirroring001
100
AcDbLine
 10
-38.4
 20
305
 30
10
 11
-38.4
 21
312.5
 31
10
  0
LINE
  5
A4B
330
A02
100
AcDbEntity
  8
Part__Mirroring001
100
AcDbLine
 10
-42
 20
305
 30
10
 11
-42
 21
312.5
 31
10
  0
LINE
  5
A4C
330
A02
100
AcDbEntity
  8
Part__Mirroring001
100
AcDbLine
 10
-45.6
 20
305
 30
10
 11
-45.6
 21
312.5
 31
10
  0
LINE
  5
A4D
330
A02
100
AcDbEntity
  8
Part__Mirroring001
100
AcDbLine
 10
-49.2
 20
305
 30
10
 11
-49.2
 21
312.5
 31
10
  0
LINE
  5
A4E
330
A02
100
AcDbEntity
  8
Part__Mirroring001
100
AcDbLine
 10
-16.8
 20
375
 30
10
 11
-16.8
 21
382.5
 31
10
  0
LINE
  5
A4F
330
A02
100
AcDbEntity
  8
Part__Mirroring001
100
AcDbLine
 10
-20.4
 20
375
 30
10
 11
-20.4
 21
382.5
 31
10
  0
LINE
  5
A50
330
A02
100
AcDbEntity
  8
Part__Mirroring001
100
AcDbLine
 10
-24
 20
375
 30
10
 11
-24
 21
382.5
 31
10
  0
LINE
  5
A51
330
A02
100
AcDbEntity
  8
Part__Mirroring001
100
AcDbLine
 10
-27.6
 20
375
 30
10
 11
-27.6
 21
382.5
 31
10
  0
LINE
  5
A52
330
A02
100
AcDbEntity
  8
Part__Mirroring001
100
AcDbLine
 10
-31.2
 20
375
 30
10
 11
-31.2
 21
382.5
 31
10
  0
LINE
  5
A53
330
A02
100
AcDbEntity
  8
Part__Mirroring001
100
AcDbLine
 10
-34.8
 20
375
 30
10
 11
-34.8
 21
382.5
 31
10
  0
LINE
  5
A54
330
A02
100
AcDbEntity
  8
Part__Mirroring001
100
AcDbLine
 10
-38.4
 20
375
 30
10
 11
-38.4
 21
382.5
 31
10
  0
LINE
  5
A55
330
A02
100
AcDbEntity
  8
Part__Mirroring001
100
AcDbLine
 10
-42
 20
375
 30
10
 11
-42
 21
382.5
 31
10
  0
LINE
  5
A56
330
A02
100
AcDbEntity
  8
Part__Mirroring001
100
AcDbLine
 10
-45.6
 20
375
 30
10
 11
-45.6
 21
382.5
 31
10
  0
LINE
  5
A57
330
A02
100
AcDbEntity
  8
Part__Mirroring001
100
AcDbLine
 10
-49.2
 20
375
 30
10
 11
-49.2
 21
382.5
 31
10
  0
LINE
  5
A58
330
A02
100
AcDbEntity
  8
Part__Mirroring001
100
AcDbLine
 10
-16.8
 20
445
 30
10
 11
-16.8
 21
452.5
 31
10
  0
LINE
  5
A59
330
A02
100
AcDbEntity
  8
Part__Mirroring001
100
AcDbLine
 10
-20.4
 20
445
 30
10
 11
-20.4
 21
452.5
 31
10
  0
LINE
  5
A5A
330
A02
100
AcDbEntity
  8
Part__Mirroring001
100
AcDbLine
 10
-24
 20
445
 30
10
 11
-24
 21
452.5
 31
10
  0
LINE
  5
A5B
330
A02
100
AcDbEntity
  8
Part__Mirroring001
100
AcDbLine
 10
-27.6
 20
445
 30
10
 11
-27.6
 21
452.5
 31
10
  0
LINE
  5
A5C
330
A02
100
AcDbEntity
  8
Part__Mirroring001
100
AcDbLine
 10
-31.2
 20
445
 30
10
 11
-31.2
 21
452.5
 31
10
  0
LINE
  5
A5D
330
A02
100
AcDbEntity
  8
Part__Mirroring001
100
AcDbLine
 10
-34.8
 20
445
 30
10
 11
-34.8
 21
452.5
 31
10
  0
LINE
  5
A5E
330
A02
100
AcDbEntity
  8
Part__Mirroring001
100
AcDbLine
 10
-38.4
 20
445
 30
10
 11
-38.4
 21
452.5
 31
10
  0
LINE
  5
A5F
330
A02
100
AcDbEntity
  8
Part__Mirroring001
100
AcDbLine
 10
-42
 20
445
 30
10
 11
-42
 21
452.5
 31
10
  0
LINE
  5
A60
330
A02
100
AcDbEntity
  8
Part__Mirroring001
100
AcDbLine
 10
-45.6
 20
445
 30
10
 11
-45.6
 21
452.5
 31
10
  0
LINE
  5
A61
330
A02
100
AcDbEntity
  8
Part__Mirroring001
100
AcDbLine
 10
-49.2
 20
445
 30
10
 11
-49.2
 21
452.5
 31
10
  0
LINE
  5
A62
330
A02
100
AcDbEntity
  8
Part__Mirroring
100
AcDbLine
 10
-15
 20
130.027
 30
10
 11
-15
 21
137.527
 31
10
  0
LINE
  5
A63
330
A02
100
AcDbEntity
  8
Part__Mirroring
100
AcDbLine
 10
-18.6
 20
130.027
 30
10
 11
-18.6
 21
137.527
 31
10
  0
LINE
  5
A64
330
A02
100
AcDbEntity
  8
Part__Mirroring
100
AcDbLine
 10
-22.2
 20
130.027
 30
10
 11
-22.2
 21
137.527
 31
10
  0
LINE
  5
A65
330
A02
100
AcDbEntity
  8
Part__Mirroring
100
AcDbLine
 10
-25.8
 20
130.027
 30
10
 11
-25.8
 21
137.527
 31
10
  0
LINE
  5
A66
330
A02
100
AcDbEntity
  8
Part__Mirroring
100
AcDbLine
 10
-29.4
 20
130.027
 30
10
 11
-29.4
 21
137.527
 31
10
  0
LINE
  5
A67
330
A02
100
AcDbEntity
  8
Part__Mirroring
100
AcDbLine
 10
-33
 20
130.027
 30
10
 11
-33
 21
137.527
 31
10
  0
LINE
  5
A68
330
A02
100
AcDbEntity
  8
Part__Mirroring
100
AcDbLine
 10
-36.6
 20
130.027
 30
10
 11
-36.6
 21
137.527
 31
10
  0
LINE
  5
A69
330
A02
100
AcDbEntity
  8
Part__Mirroring
100
AcDbLine
 10
-40.2
 20
130.027
 30
10
 11
-40.2
 21
137.527
 31
10
  0
LINE
  5
A6A
330
A02
100
AcDbEntity
  8
Part__Mirroring
100
AcDbLine
 10
-43.8
 20
130.027
 30
10
 11
-43.8
 21
137.527
 31
10
  0
LINE
  5
A6B
330
A02
100
AcDbEntity
  8
Part__Mirroring
100
AcDbLine
 10
-47.4
 20
130.027
 30
10
 11
-47.4
 21
137.527
 31
10
  0
LINE
  5
A6C
330
A02
100
AcDbEntity
  8
Part__Mirroring
100
AcDbLine
 10
-51
 20
130.027
 30
10
 11
-51
 21
137.527
 31
10
  0
LINE
  5
A6D
330
A02
100
AcDbEntity
  8
Part__Mirroring
100
AcDbLine
 10
-15
 20
200.027
 30
10
 11
-15
 21
207.527
 31
10
  0
LINE
  5
A6E
330
A02
100
AcDbEntity
  8
Part__Mirroring
100
AcDbLine
 10
-18.6
 20
200.027
 30
10
 11
-18.6
 21
207.527
 31
10
  0
LINE
  5
A6F
330
A02
100
AcDbEntity
  8
Part__Mirroring
100
AcDbLine
 10
-22.2
 20
200.027
 30
10
 11
-22.2
 21
207.527
 31
10
  0
LINE
  5
A70
330
A02
100
AcDbEntity
  8
Part__Mirroring
100
AcDbLine
 10
-25.8
 20
200.027
 30
10
 11
-25.8
 21
207.527
 31
10
  0
LINE
  5
A71
330
A02
100
AcDbEntity
  8
Part__Mirroring
100
AcDbLine
 10
-29.4
 20
200.027
 30
10
 11
-29.4
 21
207.527
 31
10
  0
LINE
  5
A72
330
A02
100
AcDbEntity
  8
Part__Mirroring
100
AcDbLine
 10
-33
 20
200.027
 30
10
 11
-33
 21
207.527
 31
10
  0
LINE
  5
A73
330
A02
100
AcDbEntity
  8
Part__Mirroring
100
AcDbLine
 10
-36.6
 20
200.027
 30
10
 11
-36.6
 21
207.527
 31
10
  0
LINE
  5
A74
330
A02
100
AcDbEntity
  8
Part__Mirroring
100
AcDbLine
 10
-40.2
 20
200.027
 30
10
 11
-40.2
 21
207.527
 31
10
  0
LINE
  5
A75
330
A02
100
AcDbEntity
  8
Part__Mirroring
100
AcDbLine
 10
-43.8
 20
200.027
 30
10
 11
-43.8
 21
207.527
 31
10
  0
LINE
  5
A76
330
A02
100
AcDbEntity
  8
Part__Mirroring
100
AcDbLine
 10
-47.4
 20
200.027
 30
10
 11
-47.4
 21
207.527
 31
10
  0
LINE
  5
A77
330
A02
100
AcDbEntity
  8
Part__Mirroring
100
AcDbLine
 10
-51
 20
200.027
 30
10
 11
-51
 21
207.527
 31
10
  0
LINE
  5
A78
330
A02
100
AcDbEntity
  8
Part__Mirroring
100
AcDbLine
 10
-15
 20
270.027
 30
10
 11
-15
 21
277.527
 31
10
  0
LINE
  5
A79
330
A02
100
AcDbEntity
  8
Part__Mirroring
100
AcDbLine
 10
-18.6
 20
270.027
 30
10
 11
-18.6
 21
277.527
 31
10
  0
LINE
  5
A7A
330
A02
100
AcDbEntity
  8
Part__Mirroring
100
AcDbLine
 10
-22.2
 20
270.027
 30
10
 11
-22.2
 21
277.527
 31
10
  0
LINE
  5
A7B
330
A02
100
AcDbEntity
  8
Part__Mirroring
100
AcDbLine
 10
-25.8
 20
270.027
 30
10
 11
-25.8
 21
277.527
 31
10
  0
LINE
  5
A7C
330
A02
100
AcDbEntity
  8
Part__Mirroring
100
AcDbLine
 10
-29.4
 20
270.027
 30
10
 11
-29.4
 21
277.527
 31
10
  0
LINE
  5
A7D
330
A02
100
AcDbEntity
  8
Part__Mirroring
100
AcDbLine
 10
-33
 20
270.027
 30
10
 11
-33
 21
277.527
 31
10
  0
LINE
  5
A7E
330
A02
100
AcDbEntity
  8
Part__Mirroring
100
AcDbLine
 10
-36.6
 20
270.027
 30
10
 11
-36.6
 21
277.527
 31
10
  0
LINE
  5
A7F
330
A02
100
AcDbEntity
  8
Part__Mirroring
100
AcDbLine
 10
-40.2
 20
270.027
 30
10
 11
-40.2
 21
277.527
 31
10
  0
LINE
  5
A80
330
A02
100
AcDbEntity
  8
Part__Mirroring
100
AcDbLine
 10
-43.8
 20
270.027
 30
10
 11
-43.8
 21
277.527
 31
10
  0
LINE
  5
A81
330
A02
100
AcDbEntity
  8
Part__Mirroring
100
AcDbLine
 10
-47.4
 20
270.027
 30
10
 11
-47.4
 21
277.527
 31
10
  0
LINE
  5
A82
330
A02
100
AcDbEntity
  8
Part__Mirroring
100
AcDbLine
 10
-51
 20
270.027
 30
10
 11
-51
 21
277.527
 31
10
  0
LINE
  5
A83
330
A02
100
AcDbEntity
  8
Part__Mirroring
100
AcDbLine
 10
-15
 20
340.027
 30
10
 11
-15
 21
347.527
 31
10
  0
LINE
  5
A84
330
A02
100
AcDbEntity
  8
Part__Mirroring
100
AcDbLine
 10
-18.6
 20
340.027
 30
10
 11
-18.6
 21
347.527
 31
10
  0
LINE
  5
A85
330
A02
100
AcDbEntity
  8
Part__Mirroring
100
AcDbLine
 10
-22.2
 20
340.027
 30
10
 11
-22.2
 21
347.527
 31
10
  0
LINE
  5
A86
330
A02
100
AcDbEntity
  8
Part__Mirroring
100
AcDbLine
 10
-25.8
 20
340.027
 30
10
 11
-25.8
 21
347.527
 31
10
  0
LINE
  5
A87
330
A02
100
AcDbEntity
  8
Part__Mirroring
100
AcDbLine
 10
-29.4
 20
340.027
 30
10
 11
-29.4
 21
347.527
 31
10
  0
LINE
  5
A88
330
A02
100
AcDbEntity
  8
Part__Mirroring
100
AcDbLine
 10
-33
 20
340.027
 30
10
 11
-33
 21
347.527
 31
10
  0
LINE
  5
A89
330
A02
100
AcDbEntity
  8
Part__Mirroring
100
AcDbLine
 10
-36.6
 20
340.027
 30
10
 11
-36.6
 21
347.527
 31
10
  0
LINE
  5
A8A
330
A02
100
AcDbEntity
  8
Part__Mirroring
100
AcDbLine
 10
-40.2
 20
340.027
 30
10
 11
-40.2
 21
347.527
 31
10
  0
LINE
  5
A8B
330
A02
100
AcDbEntity
  8
Part__Mirroring
100
AcDbLine
 10
-43.8
 20
340.027
 30
10
 11
-43.8
 21
347.527
 31
10
  0
LINE
  5
A8C
330
A02
100
AcDbEntity
  8
Part__Mirroring
100
AcDbLine
 10
-47.4
 20
340.027
 30
10
 11
-47.4
 21
347.527
 31
10
  0
LINE
  5
A8D
330
A02
100
AcDbEntity
  8
Part__Mirroring
100
AcDbLine
 10
-51
 20
340.027
 30
10
 11
-51
 21
347.527
 31
10
  0
LINE
  5
A8E
330
A02
100
AcDbEntity
  8
Part__Mirroring
100
AcDbLine
 10
-15
 20
410.027
 30
10
 11
-15
 21
417.527
 31
10
  0
LINE
  5
A8F
330
A02
100
AcDbEntity
  8
Part__Mirroring
100
AcDbLine
 10
-18.6
 20
410.027
 30
10
 11
-18.6
 21
417.527
 31
10
  0
LINE
  5
A90
330
A02
100
AcDbEntity
  8
Part__Mirroring
100
AcDbLine
 10
-22.2
 20
410.027
 30
10
 11
-22.2
 21
417.527
 31
10
  0
LINE
  5
A91
330
A02
100
AcDbEntity
  8
Part__Mirroring
100
AcDbLine
 10
-25.8
 20
410.027
 30
10
 11
-25.8
 21
417.527
 31
10
  0
LINE
  5
A92
330
A02
100
AcDbEntity
  8
Part__Mirroring
100
AcDbLine
 10
-29.4
 20
410.027
 30
10
 11
-29.4
 21
417.527
 31
10
  0
LINE
  5
A93
330
A02
100
AcDbEntity
  8
Part__Mirroring
100
AcDbLine
 10
-33
 20
410.027
 30
10
 11
-33
 21
417.527
 31
10
  0
LINE
  5
A94
330
A02
100
AcDbEntity
  8
Part__Mirroring
100
AcDbLine
 10
-36.6
 20
410.027
 30
10
 11
-36.6
 21
417.527
 31
10
  0
LINE
  5
A95
330
A02
100
AcDbEntity
  8
Part__Mirroring
100
AcDbLine
 10
-40.2
 20
410.027
 30
10
 11
-40.2
 21
417.527
 31
10
  0
LINE
  5
A96
330
A02
100
AcDbEntity
  8
Part__Mirroring
100
AcDbLine
 10
-43.8
 20
410.027
 30
10
 11
-43.8
 21
417.527
 31
10
  0
LINE
  5
A97
330
A02
100
AcDbEntity
  8
Part__Mirroring
100
AcDbLine
 10
-47.4
 20
410.027
 30
10
 11
-47.4
 21
417.527
 31
10
  0
LINE
  5
A98
330
A02
100
AcDbEntity
  8
Part__Mirroring
100
AcDbLine
 10
-51
 20
410.027
 30
10
 11
-51
 21
417.527
 31
10
  0
LINE
  5
A99
330
A02
100
AcDbEntity
  8
Part__Mirroring
100
AcDbLine
 10
-15
 20
480.027
 30
10
 11
-15
 21
487.527
 31
10
  0
LINE
  5
A9A
330
A02
100
AcDbEntity
  8
Part__Mirroring
100
AcDbLine
 10
-18.6
 20
480.027
 30
10
 11
-18.6
 21
487.527
 31
10
  0
LINE
  5
A9B
330
A02
100
AcDbEntity
  8
Part__Mirroring
100
AcDbLine
 10
-22.2
 20
480.027
 30
10
 11
-22.2
 21
487.527
 31
10
  0
LINE
  5
A9C
330
A02
100
AcDbEntity
  8
Part__Mirroring
100
AcDbLine
 10
-25.8
 20
480.027
 30
10
 11
-25.8
 21
487.527
 31
10
  0
LINE
  5
A9D
330
A02
100
AcDbEntity
  8
Part__Mirroring
100
AcDbLine
 10
-29.4
 20
480.027
 30
10
 11
-29.4
 21
487.527
 31
10
  0
LINE
  5
A9E
330
A02
100
AcDbEntity
  8
Part__Mirroring
100
AcDbLine
 10
-33
 20
480.027
 30
10
 11
-33
 21
487.527
 31
10
  0
LINE
  5
A9F
330
A02
100
AcDbEntity
  8
Part__Mirroring
100
AcDbLine
 10
-36.6
 20
480.027
 30
10
 11
-36.6
 21
487.527
 31
10
  0
LINE
  5
AA0
330
A02
100
AcDbEntity
  8
Part__Mirroring
100
AcDbLine
 10
-40.2
 20
480.027
 30
10
 11
-40.2
 21
487.527
 31
10
  0
LINE
  5
AA1
330
A02
100
AcDbEntity
  8
Part__Mirroring
100
AcDbLine
 10
-43.8
 20
480.027
 30
10
 11
-43.8
 21
487.527
 31
10
  0
LINE
  5
AA2
330
A02
100
AcDbEntity
  8
Part__Mirroring
100
AcDbLine
 10
-47.4
 20
480.027
 30
10
 11
-47.4
 21
487.527
 31
10
  0
LINE
  5
AA3
330
A02
100
AcDbEntity
  8
Part__Mirroring
100
AcDbLine
 10
-51
 20
480.027
 30
10
 11
-51
 21
487.527
 31
10
  0
LINE
  5
AA4
330
A02
100
AcDbEntity
  8
Sketch007
100
AcDbLine
 10
-81
 20
600
 30
10
 11
81
 21
600
 31
10
  0
LINE
  5
AA5
330
A02
100
AcDbEntity
  8
Sketch007
100
AcDbLine
 10
81
 20
600
 30
10
 11
81
 21
0
 31
10
  0
LINE
  5
AA6
330
A02
100
AcDbEntity
  8
Sketch007
100
AcDbLine
 10
81
 20
0
 30
10
 11
-81
 21
0
 31
10
  0
LINE
  5
AA7
330
A02
100
AcDbEntity
  8
Sketch007
100
AcDbLine
 10
-81
 20
0
 30
10
 11
-81
 21
600
 31
10
  0
LINE
  5
AA8
330
A02
100
AcDbEntity
  8
Sketch004
100
AcDbLine
 10
15
 20
20
 30
10
 11
51
 21
20
 31
10
  0
LINE
  5
AA9
330
A02
100
AcDbEntity
  8
Sketch004
100
AcDbLine
 10
51
 20
20
 30
10
 11
51
 21
120
 31
10
  0
LINE
  5
AAA
330
A02
100
AcDbEntity
  8
Sketch004
100
AcDbLine
 10
51
 20
120
 30
10
 11
15
 21
120
 31
10
  0
LINE
  5
AAB
330
A02
100
AcDbEntity
  8
Sketch004
100
AcDbLine
 10
15
 20
120
 30
10
 11
15
 21
20
 31
10
  0
ARC
  5
AAC
330
A02
100
AcDbEntity
  8
Sketch006
100
AcDbCircle
 10
15.9
 20
15
 30
10
 40
0.8
100
AcDbArc
 50
-35.9973
 51
-144.003
  0
ARC
  5
AAD
330
A02
100
AcDbEntity
  8
Sketch006
100
AcDbCircle
 10
14.9
 20
14.2735
 30
10
 40
0.436026
100
AcDbArc
 50
-60.5836
 51
35.9973
  0
ARC
  5
AAE
330
A02
100
AcDbEntity
  8
Sketch006
100
AcDbCircle
 10
15.9
 20
12.5
 30
10
 40
1.6
100
AcDbArc
 50
119.416
 51
60.5836
  0
ARC
  5
AAF
330
A02
100
AcDbEntity
  8
Sketch006
100
AcDbCircle
 10
16.9
 20
14.2735
 30
10
 40
0.436026
100
AcDbArc
 50
144.003
 51
-119.416
  0
ARC
  5
AB0
330
A02
100
AcDbEntity
  8
Sketch006
100
AcDbCircle
 10
19.5099
 20
14.9994
 30
10
 40
0.8
100
AcDbArc
 50
-35.9772
 51
-144.023
  0
ARC
  5
AB1
330
A02
100
AcDbEntity
  8
Sketch006
100
AcDbCircle
 10
18.5099
 20
14.2734
 30
10
 40
0.435711
100
AcDbArc
 50
-60.5786
 51
35.9772
  0
ARC
  5
AB2
330
A02
100
AcDbEntity
  8
Sketch006
100
AcDbCircle
 10
19.5099
 20
12.5003
 30
10
 40
1.6
100
AcDbArc
 50
119.421
 51
60.5786
  0
ARC
  5
AB3
330
A02
100
AcDbEntity
  8
Sketch006
100
AcDbCircle
 10
20.5099
 20
14.2734
 30
10
 40
0.435711
100
AcDbArc
 50
144.023
 51
-119.421
  0
ARC
  5
AB4
330
A02
100
AcDbEntity
  8
Sketch006
100
AcDbCircle
 10
23.1195
 20
15.0004
 30
10
 40
0.8
100
AcDbArc
 50
-35.9973
 51
-144.003
  0
ARC
  5
AB5
330
A02
100
AcDbEntity
  8
Sketch006
100
AcDbCircle
 10
22.1195
 20
14.274
 30
10
 40
0.436026
100
AcDbArc
 50
-60.5836
 51
35.9973
  0
ARC
  5
AB6
330
A02
100
AcDbEntity
  8
Sketch006
100
AcDbCircle
 10
23.1195
 20
12.5004
 30
10
 40
1.6
100
AcDbArc
 50
119.416
 51
60.5836
  0
ARC
  5
AB7
330
A02
100
AcDbEntity
  8
Sketch006
100
AcDbCircle
 10
24.1195
 20
14.274
 30
10
 40
0.436026
100
AcDbArc
 50
144.003
 51
-119.416
  0
ARC
  5
AB8
330
A02
100
AcDbEntity
  8
Sketch006
100
AcDbCircle
 10
26.729
 20
15.002
 30
10
 40
0.8
100
AcDbArc
 50
-36.0309
 51
-143.969
  0
ARC
  5
AB9
330
A02
100
AcDbEntity
  8
Sketch006
100
AcDbCircle
 10
25.729
 20
14.2747
 30
10
 40
0.436553
100
AcDbArc
 50
-60.592
 51
36.0309
  0
ARC
  5
ABA
330
A02
100
AcDbEntity
  8
Sketch006
100
AcDbCircle
 10
26.729
 20
12.5005
 30
10
 40
1.6
100
AcDbArc
 50
119.408
 51
60.592
  0
ARC
  5
ABB
330
A02
100
AcDbEntity
  8
Sketch006
100
AcDbCircle
 10
27.729
 20
14.2747
 30
10
 40
0.436553
100
AcDbArc
 50
143.969
 51
-119.408
  0
ARC
  5
ABC
330
A02
100
AcDbEntity
  8
Sketch006
100
AcDbCircle
 10
30.339
 20
15.0009
 30
10
 40
0.8
100
AcDbArc
 50
-35.9973
 51
-144.003
  0
ARC
  5
ABD
330
A02
100
AcDbEntity
  8
Sketch006
100
AcDbCircle
 10
29.339
 20
14.2744
 30
10
 40
0.436026
100
AcDbArc
 50
-60.5836
 51
35.9973
  0
ARC
  5
ABE
330
A02
100
AcDbEntity
  8
Sketch006
100
AcDbCircle
 10
30.339
 20
12.5009
 30
10
 40
1.6
100
AcDbArc
 50
119.416
 51
60.5836
  0
ARC
  5
ABF
330
A02
100
AcDbEntity
  8
Sketch006
100
AcDbCircle
 10
31.339
 20
14.2744
 30
10
 40
0.436026
100
AcDbArc
 50
144.003
 51
-119.416
  0
ARC
  5
AC0
330
A02
100
AcDbEntity
  8
Sketch006
100
AcDbCircle
 10
33.9485
 20
15.0025
 30
10
 40
0.8
100
AcDbArc
 50
-36.0328
 51
-143.967
  0
ARC
  5
AC1
330
A02
100
AcDbEntity
  8
Sketch006
100
AcDbCircle
 10
32.9485
 20
14.2751
 30
10
 40
0.436583
100
AcDbArc
 50
-60.5924
 51
36.0328
  0
ARC
  5
AC2
330
A02
100
AcDbEntity
  8
Sketch006
100
AcDbCircle
 10
33.9485
 20
12.5009
 30
10
 40
1.6
100
AcDbArc
 50
119.408
 51
60.5924
  0
ARC
  5
AC3
330
A02
100
AcDbEntity
  8
Sketch006
100
AcDbCircle
 10
34.9485
 20
14.2751
 30
10
 40
0.436583
100
AcDbArc
 50
143.967
 51
-119.408
  0
ARC
  5
AC4
330
A02
100
AcDbEntity
  8
Sketch006
100
AcDbCircle
 10
37.5583
 20
15.0024
 30
10
 40
0.8
100
AcDbArc
 50
-36.0248
 51
-143.975
  0
ARC
  5
AC5
330
A02
100
AcDbEntity
  8
Sketch006
100
AcDbCircle
 10
36.5583
 20
14.2752
 30
10
 40
0.436458
100
AcDbArc
 50
-60.5905
 51
36.0248
  0
ARC
  5
AC6
330
A02
100
AcDbEntity
  8
Sketch006
100
AcDbCircle
 10
37.5583
 20
12.5012
 30
10
 40
1.6
100
AcDbArc
 50
119.41
 51
60.5905
  0
ARC
  5
AC7
330
A02
100
AcDbEntity
  8
Sketch006
100
AcDbCircle
 10
38.5583
 20
14.2752
 30
10
 40
0.436458
100
AcDbArc
 50
143.975
 51
-119.41
  0
ARC
  5
AC8
330
A02
100
AcDbEntity
  8
Sketch006
100
AcDbCircle
 10
41.1681
 20
15.0022
 30
10
 40
0.8
100
AcDbArc
 50
-36.0138
 51
-143.986
  0
ARC
  5
AC9
330
A02
100
AcDbEntity
  8
Sketch006
100
AcDbCircle
 10
40.1681
 20
14.2753
 30
10
 40
0.436285
100
AcDbArc
 50
-60.5877
 51
36.0138
  0
ARC
  5
ACA
330
A02
100
AcDbEntity
  8
Sketch006
100
AcDbCircle
 10
41.1681
 20
12.5014
 30
10
 40
1.6
100
AcDbArc
 50
119.412
 51
60.5877
  0
ARC
  5
ACB
330
A02
100
AcDbEntity
  8
Sketch006
100
AcDbCircle
 10
42.1681
 20
14.2753
 30
10
 40
0.436285
100
AcDbArc
 50
143.986
 51
-119.412
  0
ARC
  5
ACC
330
A02
100
AcDbEntity
  8
Sketch006
100
AcDbCircle
 10
44.778
 20
15.0017
 30
10
 40
0.8
100
AcDbArc
 50
-35.9973
 51
-144.003
  0
ARC
  5
ACD
330
A02
100
AcDbEntity
  8
Sketch006
100
AcDbCircle
 10
43.778
 20
14.2752
 30
10
 40
0.436026
100
AcDbArc
 50
-60.5836
 51
35.9973
  0
ARC
  5
ACE
330
A02
100
AcDbEntity
  8
Sketch006
100
AcDbCircle
 10
44.778
 20
12.5017
 30
10
 40
1.6
100
AcDbArc
 50
119.416
 51
60.5836
  0
ARC
  5
ACF
330
A02
100
AcDbEntity
  8
Sketch006
100
AcDbCircle
 10
45.778
 20
14.2752
 30
10
 40
0.436026
100
AcDbArc
 50
144.003
 51
-119.416
  0
ARC
  5
AD0
330
A02
100
AcDbEntity
  8
Sketch006
100
AcDbCircle
 10
48.3876
 20
15.0026
 30
10
 40
0.8
100
AcDbArc
 50
-36.0144
 51
-143.986
  0
ARC
  5
AD1
330
A02
100
AcDbEntity
  8
Sketch006
100
AcDbCircle
 10
47.3876
 20
14.2757
 30
10
 40
0.436294
100
AcDbArc
 50
-60.5879
 51
36.0144
  0
ARC
  5
AD2
330
A02
100
AcDbEntity
  8
Sketch006
100
AcDbCircle
 10
48.3876
 20
12.5019
 30
10
 40
1.6
100
AcDbArc
 50
119.412
 51
60.5879
  0
ARC
  5
AD3
330
A02
100
AcDbEntity
  8
Sketch006
100
AcDbCircle
 10
49.3876
 20
14.2757
 30
10
 40
0.436294
100
AcDbArc
 50
143.986
 51
-119.412
  0
LINE
  5
AD4
330
A02
100
AcDbEntity
  8
Sketch005
100
AcDbLine
 10
16.8
 20
165
 30
10
 11
16.8
 21
172.5
 31
10
  0
LINE
  5
AD5
330
A02
100
AcDbEntity
  8
Sketch005
100
AcDbLine
 10
20.4
 20
165
 30
10
 11
20.4
 21
172.5
 31
10
  0
LINE
  5
AD6
330
A02
100
AcDbEntity
  8
Sketch005
100
AcDbLine
 10
24
 20
165
 30
10
 11
24
 21
172.5
 31
10
  0
LINE
  5
AD7
330
A02
100
AcDbEntity
  8
Sketch005
100
AcDbLine
 10
27.6
 20
165
 30
10
 11
27.6
 21
172.5
 31
10
  0
LINE
  5
AD8
330
A02
100
AcDbEntity
  8
Sketch005
100
AcDbLine
 10
31.2
 20
165
 30
10
 11
31.2
 21
172.5
 31
10
  0
LINE
  5
AD9
330
A02
100
AcDbEntity
  8
Sketch005
100
AcDbLine
 10
34.8
 20
165
 30
10
 11
34.8
 21
172.5
 31
10
  0
LINE
  5
ADA
330
A02
100
AcDbEntity
  8
Sketch005
100
AcDbLine
 10
38.4
 20
165
 30
10
 11
38.4
 21
172.5
 31
10
  0
LINE
  5
ADB
330
A02
100
AcDbEntity
  8
Sketch005
100
AcDbLine
 10
42
 20
165
 30
10
 11
42
 21
172.5
 31
10
  0
LINE
  5
ADC
330
A02
100
AcDbEntity
  8
Sketch005
100
AcDbLine
 10
45.6
 20
165
 30
10
 11
45.6
 21
172.5
 31
10
  0
LINE
  5
ADD
330
A02
100
AcDbEntity
  8
Sketch005
100
AcDbLine
 10
49.2
 20
165
 30
10
 11
49.2
 21
172.5
 31
10
  0
LINE
  5
ADE
330
A02
100
AcDbEntity
  8
Sketch005
100
AcDbLine
 10
16.8
 20
235
 30
10
 11
16.8
 21
242.5
 31
10
  0
LINE
  5
ADF
330
A02
100
AcDbEntity
  8
Sketch005
100
AcDbLine
 10
20.4
 20
235
 30
10
 11
20.4
 21
242.5
 31
10
  0
LINE
  5
AE0
330
A02
100
AcDbEntity
  8
Sketch005
100
AcDbLine
 10
24
 20
235
 30
10
 11
24
 21
242.5
 31
10
  0
LINE
  5
AE1
330
A02
100
AcDbEntity
  8
Sketch005
100
AcDbLine
 10
27.6
 20
235
 30
10
 11
27.6
 21
242.5
 31
10
  0
LINE
  5
AE2
330
A02
100
AcDbEntity
  8
Sketch005
100
AcDbLine
 10
31.2
 20
235
 30
10
 11
31.2
 21
242.5
 31
10
  0
LINE
  5
AE3
330
A02
100
AcDbEntity
  8
Sketch005
100
AcDbLine
 10
34.8
 20
235
 30
10
 11
34.8
 21
242.5
 31
10
  0
LINE
  5
AE4
330
A02
100
AcDbEntity
  8
Sketch005
100
AcDbLine
 10
38.4
 20
235
 30
10
 11
38.4
 21
242.5
 31
10
  0
LINE
  5
AE5
330
A02
100
AcDbEntity
  8
Sketch005
100
AcDbLine
 10
42
 20
235
 30
10
 11
42
 21
242.5
 31
10
  0
LINE
  5
AE6
330
A02
100
AcDbEntity
  8
Sketch005
100
AcDbLine
 10
45.6
 20
235
 30
10
 11
45.6
 21
242.5
 31
10
  0
LINE
  5
AE7
330
A02
100
AcDbEntity
  8
Sketch005
100
AcDbLine
 10
49.2
 20
235
 30
10
 11
49.2
 21
242.5
 31
10
  0
LINE
  5
AE8
330
A02
100
AcDbEntity
  8
Sketch005
100
AcDbLine
 10
16.8
 20
305
 30
10
 11
16.8
 21
312.5
 31
10
  0
LINE
  5
AE9
330
A02
100
AcDbEntity
  8
Sketch005
100
AcDbLine
 10
20.4
 20
305
 30
10
 11
20.4
 21
312.5
 31
10
  0
LINE
  5
AEA
330
A02
100
AcDbEntity
  8
Sketch005
100
AcDbLine
 10
24
 20
305
 30
10
 11
24
 21
312.5
 31
10
  0
LINE
  5
AEB
330
A02
100
AcDbEntity
  8
Sketch005
100
AcDbLine
 10
27.6
 20
305
 30
10
 11
27.6
 21
312.5
 31
10
  0
LINE
  5
AEC
330
A02
100
AcDbEntity
  8
Sketch005
100
AcDbLine
 10
31.2
 20
305
 30
10
 11
31.2
 21
312.5
 31
10
  0
LINE
  5
AED
330
A02
100
AcDbEntity
  8
Sketch005
100
AcDbLine
 10
34.8
 20
305
 30
10
 11
34.8
 21
312.5
 31
10
  0
LINE
  5
AEE
330
A02
100
AcDbEntity
  8
Sketch005
100
AcDbLine
 10
38.4
 20
305
 30
10
 11
38.4
 21
312.5
 31
10
  0
LINE
  5
AEF
330
A02
100
AcDbEntity
  8
Sketch005
100
AcDbLine
 10
42
 20
305
 30
10
 11
42
 21
312.5
 31
10
  0
LINE
  5
AF0
330
A02
100
AcDbEntity
  8
Sketch005
100
AcDbLine
 10
45.6
 20
305
 30
10
 11
45.6
 21
312.5
 31
10
  0
LINE
  5
AF1
330
A02
100
AcDbEntity
  8
Sketch005
100
AcDbLine
 10
49.2
 20
305
 30
10
 11
49.2
 21
312.5
 31
10
  0
LINE
  5
AF2
330
A02
100
AcDbEntity
  8
Sketch005
100
AcDbLine
 10
16.8
 20
375
 30
10
 11
16.8
 21
382.5
 31
10
  0
LINE
  5
AF3
330
A02
100
AcDbEntity
  8
Sketch005
100
AcDbLine
 10
20.4
 20
375
 30
10
 11
20.4
 21
382.5
 31
10
  0
LINE
  5
AF4
330
A02
100
AcDbEntity
  8
Sketch005
100
AcDbLine
 10
24
 20
375
 30
10
 11
24
 21
382.5
 31
10
  0
LINE
  5
AF5
330
A02
100
AcDbEntity
  8
Sketch005
100
AcDbLine
 10
27.6
 20
375
 30
10
 11
27.6
 21
382.5
 31
10
  0
LINE
  5
AF6
330
A02
100
AcDbEntity
  8
Sketch005
100
AcDbLine
 10
31.2
 20
375
 30
10
 11
31.2
 21
382.5
 31
10
  0
LINE
  5
AF7
330
A02
100
AcDbEntity
  8
Sketch005
100
AcDbLine
 10
34.8
 20
375
 30
10
 11
34.8
 21
382.5
 31
10
  0
LINE
  5
AF8
330
A02
100
AcDbEntity
  8
Sketch005
100
AcDbLine
 10
38.4
 20
375
 30
10
 11
38.4
 21
382.5
 31
10
  0
LINE
  5
AF9
330
A02
100
AcDbEntity
  8
Sketch005
100
AcDbLine
 10
42
 20
375
 30
10
 11
42
 21
382.5
 31
10
  0
LINE
  5
AFA
330
A02
100
AcDbEntity
  8
Sketch005
100
AcDbLine
 10
45.6
 20
375
 30
10
 11
45.6
 21
382.5
 31
10
  0
LINE
  5
AFB
330
A02
100
AcDbEntity
  8
Sketch005
100
AcDbLine
 10
49.2
 20
375
 30
10
 11
49.2
 21
382.5
 31
10
  0
LINE
  5
AFC
330
A02
100
AcDbEntity
  8
Sketch005
100
AcDbLine
 10
16.8
 20
445
 30
10
 11
16.8
 21
452.5
 31
10
  0
LINE
  5
AFD
330
A02
100
AcDbEntity
  8
Sketch005
100
AcDbLine
 10
20.4
 20
445
 30
10
 11
20.4
 21
452.5
 31
10
  0
LINE
  5
AFE
330
A02
100
AcDbEntity
  8
Sketch005
100
AcDbLine
 10
24
 20
445
 30
10
 11
24
 21
452.5
 31
10
  0
LINE
  5
AFF
330
A02
100
AcDbEntity
  8
Sketch005
100
AcDbLine
 10
27.6
 20
445
 30
10
 11
27.6
 21
452.5
 31
10
  0
LINE
  5
B00
330
A02
100
AcDbEntity
  8
Sketch005
100
AcDbLine
 10
31.2
 20
445
 30
10
 11
31.2
 21
452.5
 31
10
  0
LINE
  5
B01
330
A02
100
AcDbEntity
  8
Sketch005
100
AcDbLine
 10
34.8
 20
445
 30
10
 11
34.8
 21
452.5
 31
10
  0
LINE
  5
B02
330
A02
100
AcDbEntity
  8
Sketch005
100
AcDbLine
 10
38.4
 20
445
 30
10
 11
38.4
 21
452.5
 31
10
  0
LINE
  5
B03
330
A02
100
AcDbEntity
  8
Sketch005
100
AcDbLine
 10
42
 20
445
 30
10
 11
42
 21
452.5
 31
10
  0
LINE
  5
B04
330
A02
100
AcDbEntity
  8
Sketch005
100
AcDbLine
 10
45.6
 20
445
 30
10
 11
45.6
 21
452.5
 31
10
  0
LINE
  5
B05
330
A02
100
AcDbEntity
  8
Sketch005
100
AcDbLine
 10
49.2
 20
445
 30
10
 11
49.2
 21
452.5
 31
10
  0
LINE
  5
B06
330
A02
100
AcDbEntity
  8
Sketch003
100
AcDbLine
 10
15
 20
130.027
 30
10
 11
15
 21
137.527
 31
10
  0
LINE
  5
B07
330
A02
100
AcDbEntity
  8
Sketch003
100
AcDbLine
 10
18.6
 20
130.027
 30
10
 11
18.6
 21
137.527
 31
10
  0
LINE
  5
B08
330
A02
100
AcDbEntity
  8
Sketch003
100
AcDbLine
 10
22.2
 20
130.027
 30
10
 11
22.2
 21
137.527
 31
10
  0
LINE
  5
B09
330
A02
100
AcDbEntity
  8
Sketch003
100
AcDbLine
 10
25.8
 20
130.027
 30
10
 11
25.8
 21
137.527
 31
10
  0
LINE
  5
B0A
330
A02
100
AcDbEntity
  8
Sketch003
100
AcDbLine
 10
29.4
 20
130.027
 30
10
 11
29.4
 21
137.527
 31
10
  0
LINE
  5
B0B
330
A02
100
AcDbEntity
  8
Sketch003
100
AcDbLine
 10
33
 20
130.027
 30
10
 11
33
 21
137.527
 31
10
  0
LINE
  5
B0C
330
A02
100
AcDbEntity
  8
Sketch003
100
AcDbLine
 10
36.6
 20
130.027
 30
10
 11
36.6
 21
137.527
 31
10
  0
LINE
  5
B0D
330
A02
100
AcDbEntity
  8
Sketch003
100
AcDbLine
 10
40.2
 20
130.027
 30
10
 11
40.2
 21
137.527
 31
10
  0
LINE
  5
B0E
330
A02
100
AcDbEntity
  8
Sketch003
100
AcDbLine
 10
43.8
 20
130.027
 30
10
 11
43.8
 21
137.527
 31
10
  0
LINE
  5
B0F
330
A02
100
AcDbEntity
  8
Sketch003
100
AcDbLine
 10
47.4
 20
130.027
 30
10
 11
47.4
 21
137.527
 31
10
  0
LINE
  5
B10
330
A02
100
AcDbEntity
  8
Sketch003
100
AcDbLine
 10
51
 20
130.027
 30
10
 11
51
 21
137.527
 31
10
  0
LINE
  5
B11
330
A02
100
AcDbEntity
  8
Sketch003
100
AcDbLine
 10
15
 20
200.027
 30
10
 11
15
 21
207.527
 31
10
  0
LINE
  5
B12
330
A02
100
AcDbEntity
  8
Sketch003
100
AcDbLine
 10
18.6
 20
200.027
 30
10
 11
18.6
 21
207.527
 31
10
  0
LINE
  5
B13
330
A02
100
AcDbEntity
  8
Sketch003
100
AcDbLine
 10
22.2
 20
200.027
 30
10
 11
22.2
 21
207.527
 31
10
  0
LINE
  5
B14
330
A02
100
AcDbEntity
  8
Sketch003
100
AcDbLine
 10
25.8
 20
200.027
 30
10
 11
25.8
 21
207.527
 31
10
  0
LINE
  5
B15
330
A02
100
AcDbEntity
  8
Sketch003
100
AcDbLine
 10
29.4
 20
200.027
 30
10
 11
29.4
 21
207.527
 31
10
  0
LINE
  5
B16
330
A02
100
AcDbEntity
  8
Sketch003
100
AcDbLine
 10
33
 20
200.027
 30
10
 11
33
 21
207.527
 31
10
  0
LINE
  5
B17
330
A02
100
AcDbEntity
  8
Sketch003
100
AcDbLine
 10
36.6
 20
200.027
 30
10
 11
36.6
 21
207.527
 31
10
  0
LINE
  5
B18
330
A02
100
AcDbEntity
  8
Sketch003
100
AcDbLine
 10
40.2
 20
200.027
 30
10
 11
40.2
 21
207.527
 31
10
  0
LINE
  5
B19
330
A02
100
AcDbEntity
  8
Sketch003
100
AcDbLine
 10
43.8
 20
200.027
 30
10
 11
43.8
 21
207.527
 31
10
  0
LINE
  5
B1A
330
A02
100
AcDbEntity
  8
Sketch003
100
AcDbLine
 10
47.4
 20
200.027
 30
10
 11
47.4
 21
207.527
 31
10
  0
LINE
  5
B1B
330
A02
100
AcDbEntity
  8
Sketch003
100
AcDbLine
 10
51
 20
200.027
 30
10
 11
51
 21
207.527
 31
10
  0
LINE
  5
B1C
330
A02
100
AcDbEntity
  8
Sketch003
100
AcDbLine
 10
15
 20
270.027
 30
10
 11
15
 21
277.527
 31
10
  0
LINE
  5
B1D
330
A02
100
AcDbEntity
  8
Sketch003
100
AcDbLine
 10
18.6
 20
270.027
 30
10
 11
18.6
 21
277.527
 31
10
  0
LINE
  5
B1E
330
A02
100
AcDbEntity
  8
Sketch003
100
AcDbLine
 10
22.2
 20
270.027
 30
10
 11
22.2
 21
277.527
 31
10
  0
LINE
  5
B1F
330
A02
100
AcDbEntity
  8
Sketch003
100
AcDbLine
 10
25.8
 20
270.027
 30
10
 11
25.8
 21
277.527
 31
10
  0
LINE
  5
B20
330
A02
100
AcDbEntity
  8
Sketch003
100
AcDbLine
 10
29.4
 20
270.027
 30
10
 11
29.4
 21
277.527
 31
10
  0
LINE
  5
B21
330
A02
100
AcDbEntity
  8
Sketch003
100
AcDbLine
 10
33
 20
270.027
 30
10
 11
33
 21
277.527
 31
10
  0
LINE
  5
B22
330
A02
100
AcDbEntity
  8
Sketch003
100
AcDbLine
 10
36.6
 20
270.027
 30
10
 11
36.6
 21
277.527
 31
10
  0
LINE
  5
B23
330
A02
100
AcDbEntity
  8
Sketch003
100
AcDbLine
 10
40.2
 20
270.027
 30
10
 11
40.2
 21
277.527
 31
10
  0
LINE
  5
B24
330
A02
100
AcDbEntity
  8
Sketch003
100
AcDbLine
 10
43.8
 20
270.027
 30
10
 11
43.8
 21
277.527
 31
10
  0
LINE
  5
B25
330
A02
100
AcDbEntity
  8
Sketch003
100
AcDbLine
 10
47.4
 20
270.027
 30
10
 11
47.4
 21
277.527
 31
10
  0
LINE
  5
B26
330
A02
100
AcDbEntity
  8
Sketch003
100
AcDbLine
 10
51
 20
270.027
 30
10
 11
51
 21
277.527
 31
10
  0
LINE
  5
B27
330
A02
100
AcDbEntity
  8
Sketch003
100
AcDbLine
 10
15
 20
340.027
 30
10
 11
15
 21
347.527
 31
10
  0
LINE
  5
B28
330
A02
100
AcDbEntity
  8
Sketch003
100
AcDbLine
 10
18.6
 20
340.027
 30
10
 11
18.6
 21
347.527
 31
10
  0
LINE
  5
B29
330
A02
100
AcDbEntity
  8
Sketch003
100
AcDbLine
 10
22.2
 20
340.027
 30
10
 11
22.2
 21
347.527
 31
10
  0
LINE
  5
B2A
330
A02
100
AcDbEntity
  8
Sketch003
100
AcDbLine
 10
25.8
 20
340.027
 30
10
 11
25.8
 21
347.527
 31
10
  0
LINE
  5
B2B
330
A02
100
AcDbEntity
  8
Sketch003
100
AcDbLine
 10
29.4
 20
340.027
 30
10
 11
29.4
 21
347.527
 31
10
  0
LINE
  5
B2C
330
A02
100
AcDbEntity
  8
Sketch003
100
AcDbLine
 10
33
 20
340.027
 30
10
 11
33
 21
347.527
 31
10
  0
LINE
  5
B2D
330
A02
100
AcDbEntity
  8
Sketch003
100
AcDbLine
 10
36.6
 20
340.027
 30
10
 11
36.6
 21
347.527
 31
10
  0
LINE
  5
B2E
330
A02
100
AcDbEntity
  8
Sketch003
100
AcDbLine
 10
40.2
 20
340.027
 30
10
 11
40.2
 21
347.527
 31
10
  0
LINE
  5
B2F
330
A02
100
AcDbEntity
  8
Sketch003
100
AcDbLine
 10
43.8
 20
340.027
 30
10
 11
43.8
 21
347.527
 31
10
  0
LINE
  5
B30
330
A02
100
AcDbEntity
  8
Sketch003
100
AcDbLine
 10
47.4
 20
340.027
 30
10
 11
47.4
 21
347.527
 31
10
  0
LINE
  5
B31
330
A02
100
AcDbEntity
  8
Sketch003
100
AcDbLine
 10
51
 20
340.027
 30
10
 11
51
 21
347.527
 31
10
  0
LINE
  5
B32
330
A02
100
AcDbEntity
  8
Sketch003
100
AcDbLine
 10
15
 20
410.027
 30
10
 11
15
 21
417.527
 31
10
  0
LINE
  5
B33
330
A02
100
AcDbEntity
  8
Sketch003
100
AcDbLine
 10
18.6
 20
410.027
 30
10
 11
18.6
 21
417.527
 31
10
  0
LINE
  5
B34
330
A02
100
AcDbEntity
  8
Sketch003
100
AcDbLine
 10
22.2
 20
410.027
 30
10
 11
22.2
 21
417.527
 31
10
  0
LINE
  5
B35
330
A02
100
AcDbEntity
  8
Sketch003
100
AcDbLine
 10
25.8
 20
410.027
 30
10
 11
25.8
 21
417.527
 31
10
  0
LINE
  5
B36
330
A02
100
AcDbEntity
  8
Sketch003
100
AcDbLine
 10
29.4
 20
410.027
 30
10
 11
29.4
 21
417.527
 31
10
  0
LINE
  5
B37
330
A02
100
AcDbEntity
  8
Sketch003
100
AcDbLine
 10
33
 20
410.027
 30
10
 11
33
 21
417.527
 31
10
  0
LINE
  5
B38
330
A02
100
AcDbEntity
  8
Sketch003
100
AcDbLine
 10
36.6
 20
410.027
 30
10
 11
36.6
 21
417.527
 31
10
  0
LINE
  5
B39
330
A02
100
AcDbEntity
  8
Sketch003
100
AcDbLine
 10
40.2
 20
410.027
 30
10
 11
40.2
 21
417.527
 31
10
  0
LINE
  5
B3A
330
A02
100
AcDbEntity
  8
Sketch003
100
AcDbLine
 10
43.8
 20
410.027
 30
10
 11
43.8
 21
417.527
 31
10
  0
LINE
  5
B3B
330
A02
100
AcDbEntity
  8
Sketch003
100
AcDbLine
 10
47.4
 20
410.027
 30
10
 11
47.4
 21
417.527
 31
10
  0
LINE
  5
B3C
330
A02
100
AcDbEntity
  8
Sketch003
100
AcDbLine
 10
51
 20
410.027
 30
10
 11
51
 21
417.527
 31
10
  0
LINE
  5
B3D
330
A02
100
AcDbEntity
  8
Sketch003
100
AcDbLine
 10
15
 20
480.027
 30
10
 11
15
 21
487.527
 31
10
  0
LINE
  5
B3E
330
A02
100
AcDbEntity
  8
Sketch003
100
AcDbLine
 10
18.6
 20
480.027
 30
10
 11
18.6
 21
487.527
 31
10
  0
LINE
  5
B3F
330
A02
100
AcDbEntity
  8
Sketch003
100
AcDbLine
 10
22.2
 20
480.027
 30
10
 11
22.2
 21
487.527
 31
10
  0
LINE
  5
B40
330
A02
100
AcDbEntity
  8
Sketch003
100
AcDbLine
 10
25.8
 20
480.027
 30
10
 11
25.8
 21
487.527
 31
10
  0
LINE
  5
B41
330
A02
100
AcDbEntity
  8
Sketch003
100
AcDbLine
 10
29.4
 20
480.027
 30
10
 11
29.4
 21
487.527
 31
10
  0
LINE
  5
B42
330
A02
100
AcDbEntity
  8
Sketch003
100
AcDbLine
 10
33
 20
480.027
 30
10
 11
33
 21
487.527
 31
10
  0
LINE
  5
B43
330
A02
100
AcDbEntity
  8
Sketch003
100
AcDbLine
 10
36.6
 20
480.027
 30
10
 11
36.6
 21
487.527
 31
10
  0
LINE
  5
B44
330
A02
100
AcDbEntity
  8
Sketch003
100
AcDbLine
 10
40.2
 20
480.027
 30
10
 11
40.2
 21
487.527
 31
10
  0
LINE
  5
B45
330
A02
100
AcDbEntity
  8
Sketch003
100
AcDbLine
 10
43.8
 20
480.027
 30
10
 11
43.8
 21
487.527
 31
10
  0
LINE
  5
B46
330
A02
100
AcDbEntity
  8
Sketch003
100
AcDbLine
 10
47.4
 20
480.027
 30
10
 11
47.4
 21
487.527
 31
10
  0
LINE
  5
B47
330
A02
100
AcDbEntity
  8
Sketch003
100
AcDbLine
 10
51
 20
480.027
 30
10
 11
51
 21
487.527
 31
10
  0
ARC
  5
B48
330
A02
100
AcDbEntity
  8
Sketch002
100
AcDbCircle
 10
36.5112
 20
524.783
 30
10
 40
14.4888
100
AcDbArc
 50
-8.13158e-05
 51
30
  0
ARC
  5
B49
330
A02
100
AcDbEntity
  8
Sketch002
100
AcDbCircle
 10
34.7112
 20
524.301
 30
10
 40
14.4888
100
AcDbArc
 50
-8.13158e-05
 51
30
  0
ARC
  5
B4A
330
A02
100
AcDbEntity
  8
Sketch002
100
AcDbCircle
 10
32.9112
 20
523.818
 30
10
 40
14.4888
100
AcDbArc
 50
-8.13158e-05
 51
30
  0
ARC
  5
B4B
330
A02
100
AcDbEntity
  8
Sketch002
100
AcDbCircle
 10
31.1112
 20
523.336
 30
10
 40
14.4888
100
AcDbArc
 50
-8.13158e-05
 51
30
  0
ARC
  5
B4C
330
A02
100
AcDbEntity
  8
Sketch002
100
AcDbCircle
 10
29.3112
 20
522.854
 30
10
 40
14.4888
100
AcDbArc
 50
-8.13158e-05
 51
30
  0
ARC
  5
B4D
330
A02
100
AcDbEntity
  8
Sketch002
100
AcDbCircle
 10
27.5112
 20
522.371
 30
10
 40
14.4888
100
AcDbArc
 50
-8.13158e-05
 51
30
  0
ARC
  5
B4E
330
A02
100
AcDbEntity
  8
Sketch002
100
AcDbCircle
 10
25.7112
 20
521.889
 30
10
 40
14.4888
100
AcDbArc
 50
-8.13158e-05
 51
30
  0
ARC
  5
B4F
330
A02
100
AcDbEntity
  8
Sketch002
100
AcDbCircle
 10
23.9112
 20
521.407
 30
10
 40
14.4888
100
AcDbArc
 50
-8.13158e-05
 51
30
  0
ARC
  5
B50
330
A02
100
AcDbEntity
  8
Sketch002
100
AcDbCircle
 10
22.1112
 20
520.924
 30
10
 40
14.4888
100
AcDbArc
 50
-8.13158e-05
 51
30
  0
ARC
  5
B51
330
A02
100
AcDbEntity
  8
Sketch002
100
AcDbCircle
 10
20.3112
 20
520.442
 30
10
 40
14.4888
100
AcDbArc
 50
-8.13158e-05
 51
30
  0
ARC
  5
B52
330
A02
100
AcDbEntity
  8
Sketch002
100
AcDbCircle
 10
18.5112
 20
519.96
 30
10
 40
14.4888
100
AcDbArc
 50
-8.13158e-05
 51
30
  0
ARC
  5
B53
330
A02
100
AcDbEntity
  8
Sketch002
100
AcDbCircle
 10
16.7112
 20
519.477
 30
10
 40
14.4888
100
AcDbArc
 50
-8.13158e-05
 51
30
  0
ARC
  5
B54
330
A02
100
AcDbEntity
  8
Sketch002
100
AcDbCircle
 10
14.9112
 20
518.995
 30
10
 40
14.4888
100
AcDbArc
 50
-8.13158e-05
 51
30
  0
ARC
  5
B55
330
A02
100
AcDbEntity
  8
Sketch002
100
AcDbCircle
 10
13.1112
 20
518.513
 30
10
 40
14.4888
100
AcDbArc
 50
-8.13158e-05
 51
30
  0
ARC
  5
B56
330
A02
100
AcDbEntity
  8
Sketch002
100
AcDbCircle
 10
11.3112
 20
518.03
 30
10
 40
14.4888
100
AcDbArc
 50
-8.13158e-05
 51
30
  0
ARC
  5
B57
330
A02
100
AcDbEntity
  8
Sketch002
100
AcDbCircle
 10
9.51123
 20
517.548
 30
10
 40
14.4888
100
AcDbArc
 50
-8.13158e-05
 51
30
  0
ARC
  5
B58
330
A02
100
AcDbEntity
  8
Sketch002
100
AcDbCircle
 10
7.71123
 20
517.066
 30
10
 40
14.4888
100
AcDbArc
 50
-8.13158e-05
 51
30
  0
ARC
  5
B59
330
A02
100
AcDbEntity
  8
Sketch002
100
AcDbCircle
 10
5.91124
 20
516.583
 30
10
 40
14.4888
100
AcDbArc
 50
-8.13158e-05
 51
30
  0
ARC
  5
B5A
330
A02
100
AcDbEntity
  8
Sketch002
100
AcDbCircle
 10
4.11124
 20
516.101
 30
10
 40
14.4888
100
AcDbArc
 50
-8.13158e-05
 51
30
  0
ARC
  5
B5B
330
A02
100
AcDbEntity
  8
Sketch002
100
AcDbCircle
 10
2.31125
 20
515.619
 30
10
 40
14.4888
100
AcDbArc
 50
-8.13158e-05
 51
30
  0
ARC
  5
B5C
330
A02
100
AcDbEntity
  8
Sketch002
100
AcDbCircle
 10
1.69154
 20
516.692
 30
10
 40
14.4888
100
AcDbArc
 50
30
 51
60.0001
  0
ARC
  5
B5D
330
A02
100
AcDbEntity
  8
Sketch002
100
AcDbCircle
 10
3.00925
 20
518.01
 30
10
 40
14.4888
100
AcDbArc
 50
30
 51
60.0001
  0
ARC
  5
B5E
330
A02
100
AcDbEntity
  8
Sketch002
100
AcDbCircle
 10
4.32696
 20
519.328
 30
10
 40
14.4888
100
AcDbArc
 50
30
 51
60.0001
  0
ARC
  5
B5F
330
A02
100
AcDbEntity
  8
Sketch002
100
AcDbCircle
 10
5.64467
 20
520.645
 30
10
 40
14.4888
100
AcDbArc
 50
30
 51
60.0001
  0
ARC
  5
B60
330
A02
100
AcDbEntity
  8
Sketch002
100
AcDbCircle
 10
6.96238
 20
521.963
 30
10
 40
14.4888
100
AcDbArc
 50
30
 51
60.0001
  0
ARC
  5
B61
330
A02
100
AcDbEntity
  8
Sketch002
100
AcDbCircle
 10
8.28009
 20
523.281
 30
10
 40
14.4888
100
AcDbArc
 50
30
 51
60.0001
  0
ARC
  5
B62
330
A02
100
AcDbEntity
  8
Sketch002
100
AcDbCircle
 10
9.5978
 20
524.598
 30
10
 40
14.4888
100
AcDbArc
 50
30
 51
60.0001
  0
ARC
  5
B63
330
A02
100
AcDbEntity
  8
Sketch002
100
AcDbCircle
 10
10.9155
 20
525.916
 30
10
 40
14.4888
100
AcDbArc
 50
30
 51
60.0001
  0
ARC
  5
B64
330
A02
100
AcDbEntity
  8
Sketch002
100
AcDbCircle
 10
12.2332
 20
527.234
 30
10
 40
14.4888
100
AcDbArc
 50
30
 51
60.0001
  0
ARC
  5
B65
330
A02
100
AcDbEntity
  8
Sketch002
100
AcDbCircle
 10
13.5509
 20
528.551
 30
10
 40
14.4888
100
AcDbArc
 50
30
 51
60.0001
  0
ARC
  5
B66
330
A02
100
AcDbEntity
  8
Sketch002
100
AcDbCircle
 10
14.8686
 20
529.869
 30
10
 40
14.4888
100
AcDbArc
 50
30
 51
60.0001
  0
ARC
  5
B67
330
A02
100
AcDbEntity
  8
Sketch002
100
AcDbCircle
 10
16.1863
 20
531.187
 30
10
 40
14.4888
100
AcDbArc
 50
30
 51
60.0001
  0
ARC
  5
B68
330
A02
100
AcDbEntity
  8
Sketch002
100
AcDbCircle
 10
17.5041
 20
532.504
 30
10
 40
14.4888
100
AcDbArc
 50
30
 51
60.0001
  0
ARC
  5
B69
330
A02
100
AcDbEntity
  8
Sketch002
100
AcDbCircle
 10
18.8218
 20
533.822
 30
10
 40
14.4888
100
AcDbArc
 50
30
 51
60.0001
  0
ARC
  5
B6A
330
A02
100
AcDbEntity
  8
Sketch002
100
AcDbCircle
 10
20.1395
 20
535.14
 30
10
 40
14.4888
100
AcDbArc
 50
30
 51
60.0001
  0
ARC
  5
B6B
330
A02
100
AcDbEntity
  8
Sketch002
100
AcDbCircle
 10
21.4572
 20
536.457
 30
10
 40
14.4888
100
AcDbArc
 50
30
 51
60.0001
  0
ARC
  5
B6C
330
A02
100
AcDbEntity
  8
Sketch002
100
AcDbCircle
 10
22.7749
 20
537.775
 30
10
 40
14.4888
100
AcDbArc
 50
30
 51
60.0001
  0
ARC
  5
B6D
330
A02
100
AcDbEntity
  8
Sketch002
100
AcDbCircle
 10
24.0926
 20
539.093
 30
10
 40
14.4888
100
AcDbArc
 50
30
 51
60.0001
  0
ARC
  5
B6E
330
A02
100
AcDbEntity
  8
Sketch002
100
AcDbCircle
 10
25.4103
 20
540.41
 30
10
 40
14.4888
100
AcDbArc
 50
30
 51
60.0001
  0
ARC
  5
B6F
330
A02
100
AcDbEntity
  8
Sketch002
100
AcDbCircle
 10
26.728
 20
541.728
 30
10
 40
14.4888
100
AcDbArc
 50
30
 51
60.0001
  0
ARC
  5
B70
330
A02
100
AcDbEntity
  8
Sketch002
100
AcDbCircle
 10
-0.618825
 20
517.311
 30
10
 40
14.4888
100
AcDbArc
 50
89.9999
 51
120
  0
ARC
  5
B71
330
A02
100
AcDbEntity
  8
Sketch002
100
AcDbCircle
 10
-1.10116
 20
519.111
 30
10
 40
14.4888
100
AcDbArc
 50
89.9999
 51
120
  0
ARC
  5
B72
330
A02
100
AcDbEntity
  8
Sketch002
100
AcDbCircle
 10
-1.58349
 20
520.911
 30
10
 40
14.4888
100
AcDbArc
 50
89.9999
 51
120
  0
ARC
  5
B73
330
A02
100
AcDbEntity
  8
Sketch002
100
AcDbCircle
 10
-2.06582
 20
522.711
 30
10
 40
14.4888
100
AcDbArc
 50
89.9999
 51
120
  0
ARC
  5
B74
330
A02
100
AcDbEntity
  8
Sketch002
100
AcDbCircle
 10
-2.54815
 20
524.511
 30
10
 40
14.4888
100
AcDbArc
 50
89.9999
 51
120
  0
ARC
  5
B75
330
A02
100
AcDbEntity
  8
Sketch002
100
AcDbCircle
 10
-3.03049
 20
526.311
 30
10
 40
14.4888
100
AcDbArc
 50
89.9999
 51
120
  0
ARC
  5
B76
330
A02
100
AcDbEntity
  8
Sketch002
100
AcDbCircle
 10
-3.51282
 20
528.111
 30
10
 40
14.4888
100
AcDbArc
 50
89.9999
 51
120
  0
ARC
  5
B77
330
A02
100
AcDbEntity
  8
Sketch002
100
AcDbCircle
 10
-3.99515
 20
529.911
 30
10
 40
14.4888
100
AcDbArc
 50
89.9999
 51
120
  0
ARC
  5
B78
330
A02
100
AcDbEntity
  8
Sketch002
100
AcDbCircle
 10
-4.47748
 20
531.711
 30
10
 40
14.4888
100
AcDbArc
 50
89.9999
 51
120
  0
ARC
  5
B79
330
A02
100
AcDbEntity
  8
Sketch002
100
AcDbCircle
 10
-4.95981
 20
533.511
 30
10
 40
14.4888
100
AcDbArc
 50
89.9999
 51
120
  0
ARC
  5
B7A
330
A02
100
AcDbEntity
  8
Sketch002
100
AcDbCircle
 10
-5.44215
 20
535.311
 30
10
 40
14.4888
100
AcDbArc
 50
89.9999
 51
120
  0
ARC
  5
B7B
330
A02
100
AcDbEntity
  8
Sketch002
100
AcDbCircle
 10
-5.92448
 20
537.111
 30
10
 40
14.4888
100
AcDbArc
 50
89.9999
 51
120
  0
ARC
  5
B7C
330
A02
100
AcDbEntity
  8
Sketch002
100
AcDbCircle
 10
-6.40681
 20
538.911
 30
10
 40
14.4888
100
AcDbArc
 50
89.9999
 51
120
  0
ARC
  5
B7D
330
A02
100
AcDbEntity
  8
Sketch002
100
AcDbCircle
 10
-6.88914
 20
540.711
 30
10
 40
14.4888
100
AcDbArc
 50
89.9999
 51
120
  0
ARC
  5
B7E
330
A02
100
AcDbEntity
  8
Sketch002
100
AcDbCircle
 10
-7.37147
 20
542.511
 30
10
 40
14.4888
100
AcDbArc
 50
89.9999
 51
120
  0
ARC
  5
B7F
330
A02
100
AcDbEntity
  8
Sketch002
100
AcDbCircle
 10
-7.85381
 20
544.311
 30
10
 40
14.4888
100
AcDbArc
 50
89.9999
 51
120
  0
ARC
  5
B80
330
A02
100
AcDbEntity
  8
Sketch002
100
AcDbCircle
 10
-8.33614
 20
546.111
 30
10
 40
14.4888
100
AcDbArc
 50
89.9999
 51
120
  0
ARC
  5
B81
330
A02
100
AcDbEntity
  8
Sketch002
100
AcDbCircle
 10
-9.78313
 20
551.511
 30
10
 40
14.4888
100
AcDbArc
 50
89.9999
 51
120
  0
ARC
  5
B82
330
A02
100
AcDbEntity
  8
Sketch002
100
AcDbCircle
 10
-9.3008
 20
549.711
 30
10
 40
14.4888
100
AcDbArc
 50
89.9999
 51
120
  0
ARC
  5
B83
330
A02
100
AcDbEntity
  8
Sketch002
100
AcDbCircle
 10
-8.81847
 20
547.911
 30
10
 40
14.4888
100
AcDbArc
 50
89.9999
 51
120
  0
ARC
  5
B84
330
A02
100
AcDbEntity
  8
Sketch002
100
AcDbCircle
 10
-26.728
 20
541.728
 30
10
 40
14.4888
100
AcDbArc
 50
120
 51
150
  0
ARC
  5
B85
330
A02
100
AcDbEntity
  8
Sketch002
100
AcDbCircle
 10
-25.4103
 20
540.41
 30
10
 40
14.4888
100
AcDbArc
 50
120
 51
150
  0
ARC
  5
B86
330
A02
100
AcDbEntity
  8
Sketch002
100
AcDbCircle
 10
-24.0927
 20
539.093
 30
10
 40
14.4888
100
AcDbArc
 50
120
 51
150
  0
ARC
  5
B87
330
A02
100
AcDbEntity
  8
Sketch002
100
AcDbCircle
 10
-22.775
 20
537.775
 30
10
 40
14.4888
100
AcDbArc
 50
120
 51
150
  0
ARC
  5
B88
330
A02
100
AcDbEntity
  8
Sketch002
100
AcDbCircle
 10
-21.4573
 20
536.457
 30
10
 40
14.4888
100
AcDbArc
 50
120
 51
150
  0
ARC
  5
B89
330
A02
100
AcDbEntity
  8
Sketch002
100
AcDbCircle
 10
-20.1396
 20
535.139
 30
10
 40
14.4888
100
AcDbArc
 50
120
 51
150
  0
ARC
  5
B8A
330
A02
100
AcDbEntity
  8
Sketch002
100
AcDbCircle
 10
-18.822
 20
533.822
 30
10
 40
14.4888
100
AcDbArc
 50
120
 51
150
  0
ARC
  5
B8B
330
A02
100
AcDbEntity
  8
Sketch002
100
AcDbCircle
 10
-17.5043
 20
532.504
 30
10
 40
14.4888
100
AcDbArc
 50
120
 51
150
  0
ARC
  5
B8C
330
A02
100
AcDbEntity
  8
Sketch002
100
AcDbCircle
 10
-16.1866
 20
531.186
 30
10
 40
14.4888
100
AcDbArc
 50
120
 51
150
  0
ARC
  5
B8D
330
A02
100
AcDbEntity
  8
Sketch002
100
AcDbCircle
 10
-14.8689
 20
529.869
 30
10
 40
14.4888
100
AcDbArc
 50
120
 51
150
  0
ARC
  5
B8E
330
A02
100
AcDbEntity
  8
Sketch002
100
AcDbCircle
 10
-13.5513
 20
528.551
 30
10
 40
14.4888
100
AcDbArc
 50
120
 51
150
  0
ARC
  5
B8F
330
A02
100
AcDbEntity
  8
Sketch002
100
AcDbCircle
 10
-12.2336
 20
527.233
 30
10
 40
14.4888
100
AcDbArc
 50
120
 51
150
  0
ARC
  5
B90
330
A02
100
AcDbEntity
  8
Sketch002
100
AcDbCircle
 10
-10.9159
 20
525.916
 30
10
 40
14.4888
100
AcDbArc
 50
120
 51
150
  0
ARC
  5
B91
330
A02
100
AcDbEntity
  8
Sketch002
100
AcDbCircle
 10
-9.59824
 20
524.598
 30
10
 40
14.4888
100
AcDbArc
 50
120
 51
150
  0
ARC
  5
B92
330
A02
100
AcDbEntity
  8
Sketch002
100
AcDbCircle
 10
-8.28056
 20
523.28
 30
10
 40
14.4888
100
AcDbArc
 50
120
 51
150
  0
ARC
  5
B93
330
A02
100
AcDbEntity
  8
Sketch002
100
AcDbCircle
 10
-6.96289
 20
521.962
 30
10
 40
14.4888
100
AcDbArc
 50
120
 51
150
  0
ARC
  5
B94
330
A02
100
AcDbEntity
  8
Sketch002
100
AcDbCircle
 10
-5.64521
 20
520.645
 30
10
 40
14.4888
100
AcDbArc
 50
120
 51
150
  0
ARC
  5
B95
330
A02
100
AcDbEntity
  8
Sketch002
100
AcDbCircle
 10
-4.32754
 20
519.327
 30
10
 40
14.4888
100
AcDbArc
 50
120
 51
150
  0
ARC
  5
B96
330
A02
100
AcDbEntity
  8
Sketch002
100
AcDbCircle
 10
-3.00986
 20
518.009
 30
10
 40
14.4888
100
AcDbArc
 50
120
 51
150
  0
ARC
  5
B97
330
A02
100
AcDbEntity
  8
Sketch002
100
AcDbCircle
 10
-1.69219
 20
516.692
 30
10
 40
14.4888
100
AcDbArc
 50
120
 51
150
  0
ARC
  5
B98
330
A02
100
AcDbEntity
  8
Sketch002
100
AcDbCircle
 10
0.618825
 20
517.311
 30
10
 40
14.4888
100
AcDbArc
 50
60
 51
90.0001
  0
ARC
  5
B99
330
A02
100
AcDbEntity
  8
Sketch002
100
AcDbCircle
 10
1.10116
 20
519.111
 30
10
 40
14.4888
100
AcDbArc
 50
60
 51
90.0001
  0
ARC
  5
B9A
330
A02
100
AcDbEntity
  8
Sketch002
100
AcDbCircle
 10
1.58349
 20
520.911
 30
10
 40
14.4888
100
AcDbArc
 50
60
 51
90.0001
  0
ARC
  5
B9B
330
A02
100
AcDbEntity
  8
Sketch002
100
AcDbCircle
 10
2.06582
 20
522.711
 30
10
 40
14.4888
100
AcDbArc
 50
60
 51
90.0001
  0
ARC
  5
B9C
330
A02
100
AcDbEntity
  8
Sketch002
100
AcDbCircle
 10
2.54815
 20
524.511
 30
10
 40
14.4888
100
AcDbArc
 50
60
 51
90.0001
  0
ARC
  5
B9D
330
A02
100
AcDbEntity
  8
Sketch002
100
AcDbCircle
 10
3.03049
 20
526.311
 30
10
 40
14.4888
100
AcDbArc
 50
60
 51
90.0001
  0
ARC
  5
B9E
330
A02
100
AcDbEntity
  8
Sketch002
100
AcDbCircle
 10
3.51282
 20
528.111
 30
10
 40
14.4888
100
AcDbArc
 50
60
 51
90.0001
  0
ARC
  5
B9F
330
A02
100
AcDbEntity
  8
Sketch002
100
AcDbCircle
 10
3.99515
 20
529.911
 30
10
 40
14.4888
100
AcDbArc
 50
60
 51
90.0001
  0
ARC
  5
BA0
330
A02
100
AcDbEntity
  8
Sketch002
100
AcDbCircle
 10
4.47748
 20
531.711
 30
10
 40
14.4888
100
AcDbArc
 50
60
 51
90.0001
  0
ARC
  5
BA1
330
A02
100
AcDbEntity
  8
Sketch002
100
AcDbCircle
 10
4.95981
 20
533.511
 30
10
 40
14.4888
100
AcDbArc
 50
60
 51
90.0001
  0
ARC
  5
BA2
330
A02
100
AcDbEntity
  8
Sketch002
100
AcDbCircle
 10
5.44215
 20
535.311
 30
10
 40
14.4888
100
AcDbArc
 50
60
 51
90.0001
  0
ARC
  5
BA3
330
A02
100
AcDbEntity
  8
Sketch002
100
AcDbCircle
 10
5.92448
 20
537.111
 30
10
 40
14.4888
100
AcDbArc
 50
60
 51
90.0001
  0
ARC
  5
BA4
330
A02
100
AcDbEntity
  8
Sketch002
100
AcDbCircle
 10
6.40681
 20
538.911
 30
10
 40
14.4888
100
AcDbArc
 50
60
 51
90.0001
  0
ARC
  5
BA5
330
A02
100
AcDbEntity
  8
Sketch002
100
AcDbCircle
 10
6.88914
 20
540.711
 30
10
 40
14.4888
100
AcDbArc
 50
60
 51
90.0001
  0
ARC
  5
BA6
330
A02
100
AcDbEntity
  8
Sketch002
100
AcDbCircle
 10
7.37147
 20
542.511
 30
10
 40
14.4888
100
AcDbArc
 50
60
 51
90.0001
  0
ARC
  5
BA7
330
A02
100
AcDbEntity
  8
Sketch002
100
AcDbCircle
 10
7.85381
 20
544.311
 30
10
 40
14.4888
100
AcDbArc
 50
60
 51
90.0001
  0
ARC
  5
BA8
330
A02
100
AcDbEntity
  8
Sketch002
100
AcDbCircle
 10
8.33614
 20
546.111
 30
10
 40
14.4888
100
AcDbArc
 50
60
 51
90.0001
  0
ARC
  5
BA9
330
A02
100
AcDbEntity
  8
Sketch002
100
AcDbCircle
 10
8.81847
 20
547.911
 30
10
 40
14.4888
100
AcDbArc
 50
60
 51
90.0001
  0
ARC
  5
BAA
330
A02
100
AcDbEntity
  8
Sketch002
100
AcDbCircle
 10
9.3008
 20
549.711
 30
10
 40
14.4888
100
AcDbArc
 50
60
 51
90.0001
  0
ARC
  5
BAB
330
A02
100
AcDbEntity
  8
Sketch002
100
AcDbCircle
 10
9.78313
 20
551.511
 30
10
 40
14.4888
100
AcDbArc
 50
60
 51
90.0001
  0
ARC
  5
BAC
330
A02
100
AcDbEntity
  8
Sketch002
100
AcDbCircle
 10
-2.31125
 20
515.619
 30
10
 40
14.4888
100
AcDbArc
 50
150
 51
-180
  0
ARC
  5
BAD
330
A02
100
AcDbEntity
  8
Sketch002
100
AcDbCircle
 10
-4.11124
 20
516.101
 30
10
 40
14.4888
100
AcDbArc
 50
150
 51
-180
  0
ARC
  5
BAE
330
A02
100
AcDbEntity
  8
Sketch002
100
AcDbCircle
 10
-5.91124
 20
516.583
 30
10
 40
14.4888
100
AcDbArc
 50
150
 51
-180
  0
ARC
  5
BAF
330
A02
100
AcDbEntity
  8
Sketch002
100
AcDbCircle
 10
-7.71123
 20
517.066
 30
10
 40
14.4888
100
AcDbArc
 50
150
 51
-180
  0
ARC
  5
BB0
330
A02
100
AcDbEntity
  8
Sketch002
100
AcDbCircle
 10
-9.51123
 20
517.548
 30
10
 40
14.4888
100
AcDbArc
 50
150
 51
-180
  0
ARC
  5
BB1
330
A02
100
AcDbEntity
  8
Sketch002
100
AcDbCircle
 10
-11.3112
 20
518.03
 30
10
 40
14.4888
100
AcDbArc
 50
150
 51
-180
  0
ARC
  5
BB2
330
A02
100
AcDbEntity
  8
Sketch002
100
AcDbCircle
 10
-13.1112
 20
518.513
 30
10
 40
14.4888
100
AcDbArc
 50
150
 51
-180
  0
ARC
  5
BB3
330
A02
100
AcDbEntity
  8
Sketch002
100
AcDbCircle
 10
-14.9112
 20
518.995
 30
10
 40
14.4888
100
AcDbArc
 50
150
 51
-180
  0
ARC
  5
BB4
330
A02
100
AcDbEntity
  8
Sketch002
100
AcDbCircle
 10
-16.7112
 20
519.477
 30
10
 40
14.4888
100
AcDbArc
 50
150
 51
-180
  0
ARC
  5
BB5
330
A02
100
AcDbEntity
  8
Sketch002
100
AcDbCircle
 10
-18.5112
 20
519.96
 30
10
 40
14.4888
100
AcDbArc
 50
150
 51
-180
  0
ARC
  5
BB6
330
A02
100
AcDbEntity
  8
Sketch002
100
AcDbCircle
 10
-20.3112
 20
520.442
 30
10
 40
14.4888
100
AcDbArc
 50
150
 51
-180
  0
ARC
  5
BB7
330
A02
100
AcDbEntity
  8
Sketch002
100
AcDbCircle
 10
-22.1112
 20
520.924
 30
10
 40
14.4888
100
AcDbArc
 50
150
 51
-180
  0
ARC
  5
BB8
330
A02
100
AcDbEntity
  8
Sketch002
100
AcDbCircle
 10
-23.9112
 20
521.407
 30
10
 40
14.4888
100
AcDbArc
 50
150
 51
-180
  0
ARC
  5
BB9
330
A02
100
AcDbEntity
  8
Sketch002
100
AcDbCircle
 10
-25.7112
 20
521.889
 30
10
 40
14.4888
100
AcDbArc
 50
150
 51
-180
  0
ARC
  5
BBA
330
A02
100
AcDbEntity
  8
Sketch002
100
AcDbCircle
 10
-27.5112
 20
522.371
 30
10
 40
14.4888
100
AcDbArc
 50
150
 51
-180
  0
ARC
  5
BBB
330
A02
100
AcDbEntity
  8
Sketch002
100
AcDbCircle
 10
-29.3112
 20
522.854
 30
10
 40
14.4888
100
AcDbArc
 50
150
 51
-180
  0
ARC
  5
BBC
330
A02
100
AcDbEntity
  8
Sketch002
100
AcDbCircle
 10
-31.1112
 20
523.336
 30
10
 40
14.4888
100
AcDbArc
 50
150
 51
-180
  0
ARC
  5
BBD
330
A02
100
AcDbEntity
  8
Sketch002
100
AcDbCircle
 10
-32.9112
 20
523.818
 30
10
 40
14.4888
100
AcDbArc
 50
150
 51
-180
  0
ARC
  5
BBE
330
A02
100
AcDbEntity
  8
Sketch002
100
AcDbCircle
 10
-34.7112
 20
524.301
 30
10
 40
14.4888
100
AcDbArc
 50
150
 51
-180
  0
ARC
  5
BBF
330
A02
100
AcDbEntity
  8
Sketch002
100
AcDbCircle
 10
-36.5112
 20
524.783
 30
10
 40
14.4888
100
AcDbArc
 50
150
 51
-180
  0
ENDSEC
  0
SECTION
  2
OBJECTS
  0
DICTIONARY
  5
F000
330
0
100
AcDbDictionary
  3
ACAD_GROUP
350
F001
  0
DICTIONARY
  5
F001
330
F000
100
AcDbDictionary
  0
ENDSEC
  0
EOF